<svg viewBox="0 0 330 200" xmlns="http://www.w3.org/2000/svg"><g><g><g><g><g><line x1="51.52000045776367" y1="177.95999908447266" x2="46.52000045776367" y2="177.95999908447266" style="visibility: inherit;" fill="rgb(0, 0, 0)" stroke="rgb(204, 204, 204)" stroke-width="1px"></line><line x1="51.52000045776367" y1="155.71499919891357" x2="46.52000045776367" y2="155.71499919891357" style="visibility: inherit;" fill="rgb(0, 0, 0)" stroke="rgb(204, 204, 204)" stroke-width="1px"></line><line x1="51.52000045776367" y1="133.4699993133545" x2="46.52000045776367" y2="133.4699993133545" style="visibility: inherit;" fill="rgb(0, 0, 0)" stroke="rgb(204, 204, 204)" stroke-width="1px"></line><line x1="51.52000045776367" y1="111.22499942779541" x2="46.52000045776367" y2="111.22499942779541" style="visibility: inherit;" fill="rgb(0, 0, 0)" stroke="rgb(204, 204, 204)" stroke-width="1px"></line><line x1="51.52000045776367" y1="88.97999954223633" x2="46.52000045776367" y2="88.97999954223633" style="visibility: inherit;" fill="rgb(0, 0, 0)" stroke="rgb(204, 204, 204)" stroke-width="1px"></line><line x1="51.52000045776367" y1="66.73499965667725" x2="46.52000045776367" y2="66.73499965667725" style="visibility: inherit;" fill="rgb(0, 0, 0)" stroke="rgb(204, 204, 204)" stroke-width="1px"></line><line x1="51.52000045776367" y1="44.489999771118164" x2="46.52000045776367" y2="44.489999771118164" style="visibility: inherit;" fill="rgb(0, 0, 0)" stroke="rgb(204, 204, 204)" stroke-width="1px"></line><line x1="51.52000045776367" y1="22.244999885559082" x2="46.52000045776367" y2="22.244999885559082" style="visibility: inherit;" fill="rgb(0, 0, 0)" stroke="rgb(204, 204, 204)" stroke-width="1px"></line><line x1="51.52000045776367" y1="0" x2="46.52000045776367" y2="0" style="visibility: inherit;" fill="rgb(0, 0, 0)" stroke="rgb(204, 204, 204)" stroke-width="1px"></line></g><g transform="translate(41.52000045776367, 0)"><text style="text-anchor: end; visibility: hidden; font-family: &quot;Helvetica Neue&quot;, sans-serif; font-size: 12px; font-weight: 200;" x="0" y="177.95999908447266" dx="0em" dy="0.3em" fill="rgb(50, 49, 63)" stroke="none" stroke-width="1px">-0.5</text><text style="text-anchor: end; visibility: inherit; font-family: &quot;Helvetica Neue&quot;, sans-serif; font-size: 12px; font-weight: 200;" x="0" y="155.71499919891357" dx="0em" dy="0.3em" fill="rgb(50, 49, 63)" stroke="none" stroke-width="1px">0</text><text style="text-anchor: end; visibility: hidden; font-family: &quot;Helvetica Neue&quot;, sans-serif; font-size: 12px; font-weight: 200;" x="0" y="133.4699993133545" dx="0em" dy="0.3em" fill="rgb(50, 49, 63)" stroke="none" stroke-width="1px">0.5</text><text style="text-anchor: end; visibility: inherit; font-family: &quot;Helvetica Neue&quot;, sans-serif; font-size: 12px; font-weight: 200;" x="0" y="111.22499942779541" dx="0em" dy="0.3em" fill="rgb(50, 49, 63)" stroke="none" stroke-width="1px">1</text><text style="text-anchor: end; visibility: hidden; font-family: &quot;Helvetica Neue&quot;, sans-serif; font-size: 12px; font-weight: 200;" x="0" y="88.97999954223633" dx="0em" dy="0.3em" fill="rgb(50, 49, 63)" stroke="none" stroke-width="1px">1.5</text><text style="text-anchor: end; visibility: inherit; font-family: &quot;Helvetica Neue&quot;, sans-serif; font-size: 12px; font-weight: 200;" x="0" y="66.73499965667725" dx="0em" dy="0.3em" fill="rgb(50, 49, 63)" stroke="none" stroke-width="1px">2</text><text style="text-anchor: end; visibility: hidden; font-family: &quot;Helvetica Neue&quot;, sans-serif; font-size: 12px; font-weight: 200;" x="0" y="44.489999771118164" dx="0em" dy="0.3em" fill="rgb(50, 49, 63)" stroke="none" stroke-width="1px">2.5</text><text style="text-anchor: end; visibility: inherit; font-family: &quot;Helvetica Neue&quot;, sans-serif; font-size: 12px; font-weight: 200;" x="0" y="22.244999885559082" dx="0em" dy="0.3em" fill="rgb(50, 49, 63)" stroke="none" stroke-width="1px">3</text><text style="text-anchor: end; visibility: hidden; font-family: &quot;Helvetica Neue&quot;, sans-serif; font-size: 12px; font-weight: 200;" x="0" y="0" dx="0em" dy="0.3em" fill="rgb(50, 49, 63)" stroke="none" stroke-width="1px">3.5</text></g><line x1="51.52000045776367" y1="0" x2="51.52000045776367" y2="177.95999908447266" fill="rgb(0, 0, 0)" stroke="rgb(204, 204, 204)" stroke-width="1px"></line></g></g><g transform="translate(51, 0)" clip-path="url(#clip_0)"><clipPath id="clip_0"><rect width="278" height="177"></rect></clipPath><g><g><g><line x1="0" y1="0" x2="0" y2="177.95999908447266" fill="rgb(0, 0, 0)" stroke="rgb(60, 60, 60)" stroke-width="1px" opacity="0.25"></line><line x1="23.20666662851969" y1="0" x2="23.20666662851969" y2="177.95999908447266" fill="rgb(0, 0, 0)" stroke="rgb(60, 60, 60)" stroke-width="1px" opacity="0.25"></line><line x1="46.41333325703938" y1="0" x2="46.41333325703938" y2="177.95999908447266" fill="rgb(0, 0, 0)" stroke="rgb(60, 60, 60)" stroke-width="1px" opacity="0.25"></line><line x1="69.61999988555908" y1="0" x2="69.61999988555908" y2="177.95999908447266" fill="rgb(0, 0, 0)" stroke="rgb(60, 60, 60)" stroke-width="1px" opacity="0.25"></line><line x1="92.82666651407877" y1="0" x2="92.82666651407877" y2="177.95999908447266" fill="rgb(0, 0, 0)" stroke="rgb(60, 60, 60)" stroke-width="1px" opacity="0.25"></line><line x1="116.03333314259848" y1="0" x2="116.03333314259848" y2="177.95999908447266" fill="rgb(0, 0, 0)" stroke="rgb(60, 60, 60)" stroke-width="1px" opacity="0.25"></line><line x1="139.23999977111816" y1="0" x2="139.23999977111816" y2="177.95999908447266" fill="rgb(0, 0, 0)" stroke="rgb(60, 60, 60)" stroke-width="1px" opacity="0.25"></line><line x1="162.44666639963788" y1="0" x2="162.44666639963788" y2="177.95999908447266" fill="rgb(0, 0, 0)" stroke="rgb(60, 60, 60)" stroke-width="1px" opacity="0.25"></line><line x1="185.65333302815753" y1="0" x2="185.65333302815753" y2="177.95999908447266" fill="rgb(0, 0, 0)" stroke="rgb(60, 60, 60)" stroke-width="1px" opacity="0.25"></line><line x1="208.85999965667725" y1="0" x2="208.85999965667725" y2="177.95999908447266" fill="rgb(0, 0, 0)" stroke="rgb(60, 60, 60)" stroke-width="1px" opacity="0.25"></line><line x1="232.06666628519696" y1="0" x2="232.06666628519696" y2="177.95999908447266" fill="rgb(0, 0, 0)" stroke="rgb(60, 60, 60)" stroke-width="1px" opacity="0.25"></line><line x1="255.27333291371662" y1="0" x2="255.27333291371662" y2="177.95999908447266" fill="rgb(0, 0, 0)" stroke="rgb(60, 60, 60)" stroke-width="1px" opacity="0.25"></line><line x1="278.4799995422363" y1="0" x2="278.4799995422363" y2="177.95999908447266" fill="rgb(0, 0, 0)" stroke="rgb(60, 60, 60)" stroke-width="1px" opacity="0.25"></line></g><g><line x1="0" y1="177.95999908447266" x2="278.4799995422363" y2="177.95999908447266" fill="rgb(0, 0, 0)" stroke="rgb(60, 60, 60)" stroke-width="1px" opacity="0.25"></line><line x1="0" y1="155.71499919891357" x2="278.4799995422363" y2="155.71499919891357" fill="rgb(0, 0, 0)" stroke="rgb(60, 60, 60)" stroke-width="1px" opacity="0.25"></line><line x1="0" y1="133.4699993133545" x2="278.4799995422363" y2="133.4699993133545" fill="rgb(0, 0, 0)" stroke="rgb(60, 60, 60)" stroke-width="1px" opacity="0.25"></line><line x1="0" y1="111.22499942779541" x2="278.4799995422363" y2="111.22499942779541" fill="rgb(0, 0, 0)" stroke="rgb(60, 60, 60)" stroke-width="1px" opacity="0.25"></line><line x1="0" y1="88.97999954223633" x2="278.4799995422363" y2="88.97999954223633" fill="rgb(0, 0, 0)" stroke="rgb(60, 60, 60)" stroke-width="1px" opacity="0.25"></line><line x1="0" y1="66.73499965667725" x2="278.4799995422363" y2="66.73499965667725" fill="rgb(0, 0, 0)" stroke="rgb(60, 60, 60)" stroke-width="1px" opacity="0.25"></line><line x1="0" y1="44.489999771118164" x2="278.4799995422363" y2="44.489999771118164" fill="rgb(0, 0, 0)" stroke="rgb(60, 60, 60)" stroke-width="1px" opacity="0.25"></line><line x1="0" y1="22.244999885559082" x2="278.4799995422363" y2="22.244999885559082" fill="rgb(0, 0, 0)" stroke="rgb(60, 60, 60)" stroke-width="1px" opacity="0.25"></line><line x1="0" y1="0" x2="278.4799995422363" y2="0" fill="rgb(0, 0, 0)" stroke="rgb(60, 60, 60)" stroke-width="1px" opacity="0.25"></line></g></g></g><g><g><line x1="0" y1="155.71499919891357" x2="278.4799995422363" y2="155.71499919891357" fill="rgb(0, 0, 0)" stroke="rgb(153, 153, 153)" stroke-width="1.5px"></line></g></g><g><g><line x1="23.20666662851969" y1="0" x2="23.20666662851969" y2="177.95999908447266" fill="rgb(0, 0, 0)" stroke="rgb(153, 153, 153)" stroke-width="1.5px"></line></g></g><g><g><g><g><g><path style="fill: none;" stroke="rgb(204, 51, 17)" stroke-width="2px" d="M23.20666662851969,33.04995080872823L25.52733329137166,48.88369995002586L27.847999954223635,71.35263214679496L30.168666617075605,88.31315100384009L32.48933327992757,99.96786464479072L34.80999994277954,108.32722981196466L37.13066660563151,114.62948619824101L39.45133326848348,119.56524084017212L41.77199993133545,123.39258075753254L44.09266659418741,126.3086089376611L46.41333325703938,128.45971706038387L48.73399991989135,130.0866446118869L51.05466658274332,131.3428270541063L53.3753332455953,132.3539931681318L55.69599990844727,133.12279935489192L58.01666657129924,133.75836934259178L60.33733323415121,134.29405885588295L62.65799989700317,134.76104395086483L64.97866655985514,135.1483194024044L67.29933322270712,135.4708482174032L69.61999988555908,135.76605288498428L71.94066654841106,136.03015313524267L74.26133321126302,136.25378194306958L76.581999874115,136.46727784187684L78.90266653696696,136.68593909755256L81.22333319981894,136.871186871055L83.5439998626709,137.04952963130444L85.86466652552288,137.20745898220403L88.18533318837483,137.36152323659596L90.5059998512268,137.49753525412143L92.82666651407877,137.64457641178916L95.14733317693074,137.79251722229105L97.4679998397827,137.92180720343862L99.78866650263468,138.0410432558533L102.10933316548665,138.15280171549614L104.42999982833862,138.2702868037312L106.7506664911906,138.38240438837556L109.07133315404256,138.47768866634294L111.39199981689454,138.57682201479992L113.7126664797465,138.66987129457334L116.03333314259848,138.7611454936612L118.35399980545044,138.8245952232545L120.67466646830242,138.92480281810978L122.99533313115437,138.99635190557296L125.31599979400634,139.08265649419974L127.63666645685831,139.17225830988767L129.95733311971028,139.261807174869L132.27799978256226,139.34667670611282L134.59866644541424,139.4266039295556L136.9193331082662,139.50451299507608L139.23999977111816,139.57888764936726L141.5606664339701,139.66647760817034L143.88133309682212,139.74324685742303L146.20199975967407,139.80625029474297L148.52266642252604,139.8684750026973L150.843333085378,139.91716488059788L153.16399974823,139.98486506540857L155.48466641108195,140.0378739052075L157.80533307393392,140.11115140592932L160.12599973678587,140.1895092384542L162.44666639963788,140.25065967972628L164.76733306248983,140.3238139317716L167.0879997253418,140.3828711272813L169.40866638819375,140.44818127353406L171.72933305104576,140.51407533725114L174.0499997138977,140.56110367088007L176.37066637674965,140.6179432542995L178.69133303960166,140.68561574478474L181.0119997024536,140.73965437246395L183.33266636530558,140.79469112942044L185.65333302815753,140.8780747800388L187.97399969100954,140.91832509279746L190.2946663538615,140.98922723226426L192.61533301671346,141.04085680134375L194.9359996795654,141.0879453531076L197.25666634241742,141.13613267505193L199.57733300526937,141.20196675801574L201.89799966812134,141.24413864182512L204.2186663309733,141.28950696244198L206.5393329938253,141.33218164645356L208.85999965667725,141.38064983777107L211.1806663195292,141.42944006990592L213.5013329823812,141.48130445360226L215.82199964523315,141.54352245819274L218.14266630808513,141.57839397176656L220.46333297093707,141.61424710413345L222.78399963378908,141.67681272467826L225.10466629664103,141.7531120219328L227.425332959493,141.78927772601872L229.74599962234495,141.8408068359122L232.06666628519696,141.8816791989624L234.3873329480489,141.92702198206757L236.70799961090088,141.9652448643841L239.02866627375283,142.00629258184193L241.34933293660484,142.06879384140666L243.6699995994568,142.11482918448485L245.99066626230874,142.17275210006625L248.31133292516074,142.20289965434657L250.6319995880127,142.23501520443597" fill="none"></path></g></g></g></g><g opacity="0.2"><g><g><g><path style="fill: none;" stroke="rgb(204, 51, 17)" stroke-width="2px" d="M23.20666662851969,33.04995080872823L25.52733329137166,58.383949434804435L27.847999954223635,92.92280705569328L30.168666617075605,108.25872117972517L32.48933327992757,115.18425877441587L34.80999994277954,119.8912412096264L37.13066660563151,123.64181366671835L39.45133326848348,126.76161849135224L41.77199993133545,129.03716371313362L44.09266659418741,130.6385709395638L46.41333325703938,131.66686885211652L48.73399991989135,132.51818227125125L51.05466658274332,133.22299906380886L53.3753332455953,133.8687613594879L55.69599990844727,134.2751049322194L58.01666657129924,134.71127607094428L60.33733323415121,135.0973664399707L62.65799989700317,135.46140302587264L64.97866655985514,135.72917358219667L67.29933322270712,135.95461195949014L69.61999988555908,136.20884369663037L71.94066654841106,136.426294820299L74.26133321126302,136.58922073964925L76.581999874115,136.78751916102527L78.90266653696696,137.01392942691552L81.22333319981894,137.14905774131148L83.5439998626709,137.31704331534837L85.86466652552288,137.44435276609465L88.18533318837483,137.5926194762689L90.5059998512268,137.70155320523787L92.82666651407877,137.86513809953027L95.14733317693074,138.01442840860864L97.4679998397827,138.11574215972536L99.78866650263468,138.2198973259347L102.10933316548665,138.3204394001574L104.42999982833862,138.4465144330543L106.7506664911906,138.55058076360746L109.07133315404256,138.62061508240953L111.39199981689454,138.72552203693317L113.7126664797465,138.80944521392252L116.03333314259848,138.89805679210997L118.35399980545044,138.91976981756818L120.67466646830242,139.07511421032035L122.99533313115437,139.10367553673677L125.31599979400634,139.21211337711748L127.63666645685831,139.3066610334056L129.95733311971028,139.39613047233263L132.27799978256226,139.47398100297374L134.59866644541424,139.54649476471712L136.9193331082662,139.62137659335525L139.23999977111816,139.69044963080307L141.5606664339701,139.79786254637435L143.88133309682212,139.85840073130174L146.20199975967407,139.90075545072267L148.52266642252604,139.9618120646287L150.843333085378,139.9901996974487L153.16399974823,140.0864153426246L155.48466641108195,140.1173871649059L157.80533307393392,140.22106765701204L160.12599973678587,140.3070459872415L162.44666639963788,140.34238534163438L164.76733306248983,140.4335453098396L167.0879997253418,140.4714569205459L169.40866638819375,140.54614649291318L171.72933305104576,140.61291643282675L174.0499997138977,140.6316461713235L176.37066637674965,140.70320262942857L178.69133303960166,140.7871244805126L181.0119997024536,140.82071231398277L183.33266636530558,140.87724626485522L185.65333302815753,141.00315025596632L187.97399969100954,140.97870056193545L190.2946663538615,141.09558044146445L192.61533301671346,141.11830115496298L194.9359996795654,141.1585781807534L197.25666634241742,141.20841365796838L199.57733300526937,141.30071788246147L201.89799966812134,141.3073964675392L204.2186663309733,141.35755944336728L206.5393329938253,141.39619367247093L208.85999965667725,141.4533521247473L211.1806663195292,141.5026254181082L213.5013329823812,141.55910102914675L215.82199964523315,141.6368494650785L218.14266630808513,141.63070124212726L220.46333297093707,141.6680268026838L222.78399963378908,141.77066115549547L225.10466629664103,141.86756096781454L227.425332959493,141.84352628214765L229.74599962234495,141.91810050075242L232.06666628519696,141.94298774353763L234.3873329480489,141.99503615672535L236.70799961090088,142.02257918785892L239.02866627375283,142.06786415802867L241.34933293660484,142.16254573075372L243.6699995994568,142.18388219910213L245.99066626230874,142.25963647343832L248.31133292516074,142.24812098576706L250.6319995880127,142.2831885295701" fill="none"></path></g></g></g></g></g></g><g transform="translate(51, 177)" clip-path="url(#clip_1)"><clipPath id="clip_1"><rect width="278" height="22"></rect></clipPath><g><g><line x1="0" y1="0" x2="0" y2="5" style="visibility: inherit;" fill="rgb(0, 0, 0)" stroke="rgb(204, 204, 204)" stroke-width="1px"></line><line x1="23.20666662851969" y1="0" x2="23.20666662851969" y2="5" style="visibility: inherit;" fill="rgb(0, 0, 0)" stroke="rgb(204, 204, 204)" stroke-width="1px"></line><line x1="46.41333325703938" y1="0" x2="46.41333325703938" y2="5" style="visibility: inherit;" fill="rgb(0, 0, 0)" stroke="rgb(204, 204, 204)" stroke-width="1px"></line><line x1="69.61999988555908" y1="0" x2="69.61999988555908" y2="5" style="visibility: inherit;" fill="rgb(0, 0, 0)" stroke="rgb(204, 204, 204)" stroke-width="1px"></line><line x1="92.82666651407877" y1="0" x2="92.82666651407877" y2="5" style="visibility: inherit;" fill="rgb(0, 0, 0)" stroke="rgb(204, 204, 204)" stroke-width="1px"></line><line x1="116.03333314259848" y1="0" x2="116.03333314259848" y2="5" style="visibility: inherit;" fill="rgb(0, 0, 0)" stroke="rgb(204, 204, 204)" stroke-width="1px"></line><line x1="139.23999977111816" y1="0" x2="139.23999977111816" y2="5" style="visibility: inherit;" fill="rgb(0, 0, 0)" stroke="rgb(204, 204, 204)" stroke-width="1px"></line><line x1="162.44666639963788" y1="0" x2="162.44666639963788" y2="5" style="visibility: inherit;" fill="rgb(0, 0, 0)" stroke="rgb(204, 204, 204)" stroke-width="1px"></line><line x1="185.65333302815753" y1="0" x2="185.65333302815753" y2="5" style="visibility: inherit;" fill="rgb(0, 0, 0)" stroke="rgb(204, 204, 204)" stroke-width="1px"></line><line x1="208.85999965667725" y1="0" x2="208.85999965667725" y2="5" style="visibility: inherit;" fill="rgb(0, 0, 0)" stroke="rgb(204, 204, 204)" stroke-width="1px"></line><line x1="232.06666628519696" y1="0" x2="232.06666628519696" y2="5" style="visibility: inherit;" fill="rgb(0, 0, 0)" stroke="rgb(204, 204, 204)" stroke-width="1px"></line><line x1="255.27333291371662" y1="0" x2="255.27333291371662" y2="5" style="visibility: inherit;" fill="rgb(0, 0, 0)" stroke="rgb(204, 204, 204)" stroke-width="1px"></line><line x1="278.4799995422363" y1="0" x2="278.4799995422363" y2="5" style="visibility: inherit;" fill="rgb(0, 0, 0)" stroke="rgb(204, 204, 204)" stroke-width="1px"></line></g><g transform="translate(0, 8)"><text style="text-anchor: middle; visibility: hidden; font-family: &quot;Helvetica Neue&quot;, sans-serif; font-size: 12px; font-weight: 200;" x="0" y="0" dx="0em" dy="0.95em" fill="rgb(50, 49, 63)" stroke="none" stroke-width="1px">-10</text><text style="text-anchor: middle; visibility: inherit; font-family: &quot;Helvetica Neue&quot;, sans-serif; font-size: 12px; font-weight: 200;" x="23.20666662851969" y="0" dx="0em" dy="0.95em" fill="rgb(50, 49, 63)" stroke="none" stroke-width="1px">0</text><text style="text-anchor: middle; visibility: hidden; font-family: &quot;Helvetica Neue&quot;, sans-serif; font-size: 12px; font-weight: 200;" x="46.41333325703938" y="0" dx="0em" dy="0.95em" fill="rgb(50, 49, 63)" stroke="none" stroke-width="1px">10</text><text style="text-anchor: middle; visibility: inherit; font-family: &quot;Helvetica Neue&quot;, sans-serif; font-size: 12px; font-weight: 200;" x="69.61999988555908" y="0" dx="0em" dy="0.95em" fill="rgb(50, 49, 63)" stroke="none" stroke-width="1px">20</text><text style="text-anchor: middle; visibility: hidden; font-family: &quot;Helvetica Neue&quot;, sans-serif; font-size: 12px; font-weight: 200;" x="92.82666651407877" y="0" dx="0em" dy="0.95em" fill="rgb(50, 49, 63)" stroke="none" stroke-width="1px">30</text><text style="text-anchor: middle; visibility: inherit; font-family: &quot;Helvetica Neue&quot;, sans-serif; font-size: 12px; font-weight: 200;" x="116.03333314259848" y="0" dx="0em" dy="0.95em" fill="rgb(50, 49, 63)" stroke="none" stroke-width="1px">40</text><text style="text-anchor: middle; visibility: hidden; font-family: &quot;Helvetica Neue&quot;, sans-serif; font-size: 12px; font-weight: 200;" x="139.23999977111816" y="0" dx="0em" dy="0.95em" fill="rgb(50, 49, 63)" stroke="none" stroke-width="1px">50</text><text style="text-anchor: middle; visibility: inherit; font-family: &quot;Helvetica Neue&quot;, sans-serif; font-size: 12px; font-weight: 200;" x="162.44666639963788" y="0" dx="0em" dy="0.95em" fill="rgb(50, 49, 63)" stroke="none" stroke-width="1px">60</text><text style="text-anchor: middle; visibility: hidden; font-family: &quot;Helvetica Neue&quot;, sans-serif; font-size: 12px; font-weight: 200;" x="185.65333302815753" y="0" dx="0em" dy="0.95em" fill="rgb(50, 49, 63)" stroke="none" stroke-width="1px">70</text><text style="text-anchor: middle; visibility: inherit; font-family: &quot;Helvetica Neue&quot;, sans-serif; font-size: 12px; font-weight: 200;" x="208.85999965667725" y="0" dx="0em" dy="0.95em" fill="rgb(50, 49, 63)" stroke="none" stroke-width="1px">80</text><text style="text-anchor: middle; visibility: hidden; font-family: &quot;Helvetica Neue&quot;, sans-serif; font-size: 12px; font-weight: 200;" x="232.06666628519696" y="0" dx="0em" dy="0.95em" fill="rgb(50, 49, 63)" stroke="none" stroke-width="1px">90</text><text style="text-anchor: middle; visibility: inherit; font-family: &quot;Helvetica Neue&quot;, sans-serif; font-size: 12px; font-weight: 200;" x="255.27333291371662" y="0" dx="0em" dy="0.95em" fill="rgb(50, 49, 63)" stroke="none" stroke-width="1px">100</text><text style="text-anchor: middle; visibility: hidden; font-family: &quot;Helvetica Neue&quot;, sans-serif; font-size: 12px; font-weight: 200;" x="278.4799995422363" y="0" dx="0em" dy="0.95em" fill="rgb(50, 49, 63)" stroke="none" stroke-width="1px">110</text></g><line x1="0" y1="0" x2="278.4799995422363" y2="0" fill="rgb(0, 0, 0)" stroke="rgb(204, 204, 204)" stroke-width="1px"></line></g></g></g></g></svg>