<svg viewBox="0 0 330 200" xmlns="http://www.w3.org/2000/svg"><g><g><g><g><g><line x1="30.760000228881836" y1="177.95999908447266" x2="25.760000228881836" y2="177.95999908447266" style="visibility: inherit;" fill="rgb(0, 0, 0)" stroke="rgb(204, 204, 204)" stroke-width="1px"></line><line x1="30.760000228881836" y1="155.71499919891357" x2="25.760000228881836" y2="155.71499919891357" style="visibility: inherit;" fill="rgb(0, 0, 0)" stroke="rgb(204, 204, 204)" stroke-width="1px"></line><line x1="30.760000228881836" y1="133.4699993133545" x2="25.760000228881836" y2="133.4699993133545" style="visibility: inherit;" fill="rgb(0, 0, 0)" stroke="rgb(204, 204, 204)" stroke-width="1px"></line><line x1="30.760000228881836" y1="111.22499942779541" x2="25.760000228881836" y2="111.22499942779541" style="visibility: inherit;" fill="rgb(0, 0, 0)" stroke="rgb(204, 204, 204)" stroke-width="1px"></line><line x1="30.760000228881836" y1="88.97999954223633" x2="25.760000228881836" y2="88.97999954223633" style="visibility: inherit;" fill="rgb(0, 0, 0)" stroke="rgb(204, 204, 204)" stroke-width="1px"></line><line x1="30.760000228881836" y1="66.73499965667725" x2="25.760000228881836" y2="66.73499965667725" style="visibility: inherit;" fill="rgb(0, 0, 0)" stroke="rgb(204, 204, 204)" stroke-width="1px"></line><line x1="30.760000228881836" y1="44.489999771118164" x2="25.760000228881836" y2="44.489999771118164" style="visibility: inherit;" fill="rgb(0, 0, 0)" stroke="rgb(204, 204, 204)" stroke-width="1px"></line><line x1="30.760000228881836" y1="22.244999885559082" x2="25.760000228881836" y2="22.244999885559082" style="visibility: inherit;" fill="rgb(0, 0, 0)" stroke="rgb(204, 204, 204)" stroke-width="1px"></line><line x1="30.760000228881836" y1="0" x2="25.760000228881836" y2="0" style="visibility: inherit;" fill="rgb(0, 0, 0)" stroke="rgb(204, 204, 204)" stroke-width="1px"></line></g><g transform="translate(20.760000228881836, 0)"><text style="text-anchor: end; visibility: hidden; font-family: &quot;Helvetica Neue&quot;, sans-serif; font-size: 12px; font-weight: 200;" x="0" y="177.95999908447266" dx="0em" dy="0.3em" fill="rgb(50, 49, 63)" stroke="none" stroke-width="1px">-1</text><text style="text-anchor: end; visibility: inherit; font-family: &quot;Helvetica Neue&quot;, sans-serif; font-size: 12px; font-weight: 200;" x="0" y="155.71499919891357" dx="0em" dy="0.3em" fill="rgb(50, 49, 63)" stroke="none" stroke-width="1px">0</text><text style="text-anchor: end; visibility: hidden; font-family: &quot;Helvetica Neue&quot;, sans-serif; font-size: 12px; font-weight: 200;" x="0" y="133.4699993133545" dx="0em" dy="0.3em" fill="rgb(50, 49, 63)" stroke="none" stroke-width="1px">1</text><text style="text-anchor: end; visibility: inherit; font-family: &quot;Helvetica Neue&quot;, sans-serif; font-size: 12px; font-weight: 200;" x="0" y="111.22499942779541" dx="0em" dy="0.3em" fill="rgb(50, 49, 63)" stroke="none" stroke-width="1px">2</text><text style="text-anchor: end; visibility: hidden; font-family: &quot;Helvetica Neue&quot;, sans-serif; font-size: 12px; font-weight: 200;" x="0" y="88.97999954223633" dx="0em" dy="0.3em" fill="rgb(50, 49, 63)" stroke="none" stroke-width="1px">3</text><text style="text-anchor: end; visibility: inherit; font-family: &quot;Helvetica Neue&quot;, sans-serif; font-size: 12px; font-weight: 200;" x="0" y="66.73499965667725" dx="0em" dy="0.3em" fill="rgb(50, 49, 63)" stroke="none" stroke-width="1px">4</text><text style="text-anchor: end; visibility: hidden; font-family: &quot;Helvetica Neue&quot;, sans-serif; font-size: 12px; font-weight: 200;" x="0" y="44.489999771118164" dx="0em" dy="0.3em" fill="rgb(50, 49, 63)" stroke="none" stroke-width="1px">5</text><text style="text-anchor: end; visibility: inherit; font-family: &quot;Helvetica Neue&quot;, sans-serif; font-size: 12px; font-weight: 200;" x="0" y="22.244999885559082" dx="0em" dy="0.3em" fill="rgb(50, 49, 63)" stroke="none" stroke-width="1px">6</text><text style="text-anchor: end; visibility: hidden; font-family: &quot;Helvetica Neue&quot;, sans-serif; font-size: 12px; font-weight: 200;" x="0" y="0" dx="0em" dy="0.3em" fill="rgb(50, 49, 63)" stroke="none" stroke-width="1px">7</text></g><line x1="30.760000228881836" y1="0" x2="30.760000228881836" y2="177.95999908447266" fill="rgb(0, 0, 0)" stroke="rgb(204, 204, 204)" stroke-width="1px"></line></g></g><g transform="translate(30, 0)" clip-path="url(#clip_0)"><clipPath id="clip_0"><rect width="299" height="177"></rect></clipPath><g><g><g><line x1="0" y1="0" x2="0" y2="177.95999908447266" fill="rgb(0, 0, 0)" stroke="rgb(60, 60, 60)" stroke-width="1px" opacity="0.25"></line><line x1="24.936666647593178" y1="0" x2="24.936666647593178" y2="177.95999908447266" fill="rgb(0, 0, 0)" stroke="rgb(60, 60, 60)" stroke-width="1px" opacity="0.25"></line><line x1="49.873333295186356" y1="0" x2="49.873333295186356" y2="177.95999908447266" fill="rgb(0, 0, 0)" stroke="rgb(60, 60, 60)" stroke-width="1px" opacity="0.25"></line><line x1="74.80999994277954" y1="0" x2="74.80999994277954" y2="177.95999908447266" fill="rgb(0, 0, 0)" stroke="rgb(60, 60, 60)" stroke-width="1px" opacity="0.25"></line><line x1="99.74666659037271" y1="0" x2="99.74666659037271" y2="177.95999908447266" fill="rgb(0, 0, 0)" stroke="rgb(60, 60, 60)" stroke-width="1px" opacity="0.25"></line><line x1="124.68333323796591" y1="0" x2="124.68333323796591" y2="177.95999908447266" fill="rgb(0, 0, 0)" stroke="rgb(60, 60, 60)" stroke-width="1px" opacity="0.25"></line><line x1="149.61999988555908" y1="0" x2="149.61999988555908" y2="177.95999908447266" fill="rgb(0, 0, 0)" stroke="rgb(60, 60, 60)" stroke-width="1px" opacity="0.25"></line><line x1="174.55666653315228" y1="0" x2="174.55666653315228" y2="177.95999908447266" fill="rgb(0, 0, 0)" stroke="rgb(60, 60, 60)" stroke-width="1px" opacity="0.25"></line><line x1="199.49333318074542" y1="0" x2="199.49333318074542" y2="177.95999908447266" fill="rgb(0, 0, 0)" stroke="rgb(60, 60, 60)" stroke-width="1px" opacity="0.25"></line><line x1="224.42999982833862" y1="0" x2="224.42999982833862" y2="177.95999908447266" fill="rgb(0, 0, 0)" stroke="rgb(60, 60, 60)" stroke-width="1px" opacity="0.25"></line><line x1="249.36666647593182" y1="0" x2="249.36666647593182" y2="177.95999908447266" fill="rgb(0, 0, 0)" stroke="rgb(60, 60, 60)" stroke-width="1px" opacity="0.25"></line><line x1="274.30333312352496" y1="0" x2="274.30333312352496" y2="177.95999908447266" fill="rgb(0, 0, 0)" stroke="rgb(60, 60, 60)" stroke-width="1px" opacity="0.25"></line><line x1="299.23999977111816" y1="0" x2="299.23999977111816" y2="177.95999908447266" fill="rgb(0, 0, 0)" stroke="rgb(60, 60, 60)" stroke-width="1px" opacity="0.25"></line></g><g><line x1="0" y1="177.95999908447266" x2="299.23999977111816" y2="177.95999908447266" fill="rgb(0, 0, 0)" stroke="rgb(60, 60, 60)" stroke-width="1px" opacity="0.25"></line><line x1="0" y1="155.71499919891357" x2="299.23999977111816" y2="155.71499919891357" fill="rgb(0, 0, 0)" stroke="rgb(60, 60, 60)" stroke-width="1px" opacity="0.25"></line><line x1="0" y1="133.4699993133545" x2="299.23999977111816" y2="133.4699993133545" fill="rgb(0, 0, 0)" stroke="rgb(60, 60, 60)" stroke-width="1px" opacity="0.25"></line><line x1="0" y1="111.22499942779541" x2="299.23999977111816" y2="111.22499942779541" fill="rgb(0, 0, 0)" stroke="rgb(60, 60, 60)" stroke-width="1px" opacity="0.25"></line><line x1="0" y1="88.97999954223633" x2="299.23999977111816" y2="88.97999954223633" fill="rgb(0, 0, 0)" stroke="rgb(60, 60, 60)" stroke-width="1px" opacity="0.25"></line><line x1="0" y1="66.73499965667725" x2="299.23999977111816" y2="66.73499965667725" fill="rgb(0, 0, 0)" stroke="rgb(60, 60, 60)" stroke-width="1px" opacity="0.25"></line><line x1="0" y1="44.489999771118164" x2="299.23999977111816" y2="44.489999771118164" fill="rgb(0, 0, 0)" stroke="rgb(60, 60, 60)" stroke-width="1px" opacity="0.25"></line><line x1="0" y1="22.244999885559082" x2="299.23999977111816" y2="22.244999885559082" fill="rgb(0, 0, 0)" stroke="rgb(60, 60, 60)" stroke-width="1px" opacity="0.25"></line><line x1="0" y1="0" x2="299.23999977111816" y2="0" fill="rgb(0, 0, 0)" stroke="rgb(60, 60, 60)" stroke-width="1px" opacity="0.25"></line></g></g></g><g><g><line x1="0" y1="155.71499919891357" x2="299.23999977111816" y2="155.71499919891357" fill="rgb(0, 0, 0)" stroke="rgb(153, 153, 153)" stroke-width="1.5px"></line></g></g><g><g><line x1="24.936666647593178" y1="0" x2="24.936666647593178" y2="177.95999908447266" fill="rgb(0, 0, 0)" stroke="rgb(153, 153, 153)" stroke-width="1.5px"></line></g></g><g><g><g><g><g><path style="fill: none;" stroke="rgb(0, 119, 187)" stroke-width="2px" d="M25.186033314069114,31.068242115882185L25.435399980545046,34.369831211178735L25.684766647020975,37.42377301513534L25.934133313496908,38.0281736944753L26.183499979972837,38.63503525408214L26.432866646448772,39.67277361248625L26.682233312924705,39.30689799591073L26.931599979400634,39.62901873705141L27.180966645876566,40.47743903078617L27.430333312352495,39.5107798045733L27.67969997882843,43.07887586842753L27.929066645304363,43.572759687850976L28.178433311780292,42.87216192600954L28.427799978256225,43.64791200117361L28.67716664473216,42.177419362044475L28.92653331120809,43.45688617045698L29.175899977684022,42.634729409225656L29.42526664415995,44.37485815345872L29.674633310635883,44.545942368219585L29.92399997711182,47.95358267432766L30.173366643587748,47.83740154690031L30.42273331006368,47.13447019170235L30.67209997653961,44.963496470399605L30.921466643015542,43.88076218918468L31.170833309491478,48.02271007389345L31.420199975967407,48.45712969169563L31.66956664244334,47.14185283250299L31.91893330891927,47.10735807979654L32.1682999753952,48.606097805782156L32.417666641871136,48.5599775152632L32.667033308347065,47.922726205808885L32.916399974823,51.42381631860326L33.16576664129893,50.74157969358066L33.41513330777486,49.82345920918351L33.664499974250795,50.40406784352945L33.913866640726724,45.55098920514729L34.16323330720266,52.83147165298669L34.41259997367859,52.882068199853165L34.66196664015452,52.149574459725045L34.91133330663045,50.49186398994743L35.16069997310638,53.2323193481825L35.65943330605825,50.30872994767287L35.908799972534176,53.37381996352815L36.15816663901011,53.171232238454195L36.40753330548605,53.231576841205424L36.65689997196198,51.732656792096805L36.906266638437906,51.40879646318126L37.155633304913835,53.78036374796238L37.40499997138977,57.573396996900556L37.6543666378657,56.66254247363622L37.903733304341635,55.59986648804488L38.153099970817564,58.10403491168927L38.40246663729349,55.81935155046858L38.651833303769436,54.67753492836346L38.901199970245365,55.64623074514202L39.150566636721294,60.01457961440383L39.39993330319722,58.44845207662729L39.64929996967316,55.8439285314098L39.89866663614909,57.30006957139631L40.14803330262502,59.19332446878752L40.39739996910095,54.86646052505921L40.64676663557688,57.70257199642674L40.89613330205281,59.8733017511513L41.14549996852875,59.04764459988519L41.39486663500468,59.3674529621544L41.64423330148061,55.2212727876763L41.89359996795655,58.45123117417006L42.142966634432476,56.445147037990864L42.392333300908405,53.777224004173604L42.64169996738433,58.90643038008784L42.89106663386027,61.806195913875854L43.1404333003362,61.998643115091454L43.38979996681213,58.431830527583315L43.63916663328807,59.4684869472494L43.888533299764,57.45087273844047L44.13789996623993,59.39214662276345L44.387266632715864,62.16818927968552L44.63663329919179,61.13097067616536L44.88599996566772,63.134657575532856L45.13536663214366,63.02289966824037L45.38473329861959,60.510595489575735L45.634099965095515,56.59013743612877L45.88346663157145,61.44780901052627L46.13283329804739,65.11850893136989L46.382199964523316,60.01401743054976L46.631566630999245,62.39901348437343L46.88093329747518,58.86675929302692L47.13029996395111,62.565133509630414L47.37966663042704,54.32352881617862L47.629033296902975,58.65740414721904L47.87839996337891,61.39589716558612L48.12776662985484,60.42712709810985L48.37713329633077,59.0634918202245L48.626499962806705,61.16055427558058L48.87586662928263,60.95991828313208L49.12523329575856,65.81076940058301L49.3745999622345,64.02844504556697L49.62396662871043,62.73696023136836L49.873333295186356,68.70769749699434L50.1226999616623,64.24585108845486L50.37206662813823,62.340917617038485L50.62143329461416,61.8069278136104L50.87079996109009,63.652025829916965L51.12016662756602,65.40204052418767L51.36953329404195,64.4664605185867L51.61889996051788,64.54300238068072L51.868266626993815,68.82328461884003L52.117633293469744,66.90150684628657L52.36699995994567,67.27678047974337L52.616366626421616,62.20953631106613L52.865733292897545,66.4146078960689L53.115099959373474,68.22301015684411L53.36446662584941,66.09481014104222L53.61383329232534,65.99368069076445L53.86319995880127,61.79925877726146L54.1125666252772,61.329814044626346L54.36193329175313,60.45188440217407L54.61129995822906,70.65393026719994L54.86066662470499,65.78037965073554L55.11003329118093,67.73449360214067L55.35939995765686,65.86637256592348L55.60876662413279,65.17663662043242L55.85813329060873,73.55805007404638L56.107499957084656,75.73229612966952L56.356866623560585,70.65010105264673L56.60623329003652,71.57475559844215L56.85559995651245,69.56962611409062L57.10496662298838,67.7310515519398L57.35433328946432,68.5069023959079L57.60369995594025,73.04034238790132L57.85306662241618,72.01257483747509L58.10243328889211,67.01216160035597L58.351799955368044,70.92362471213778L58.60116662184397,72.13556581460648L58.8505332883199,69.08723524194806L59.09989995479584,71.3202931537769L59.34926662127177,76.86430105243471L59.598633287747695,70.19344865450239L59.84799995422364,71.64923965548542L60.09736662069957,77.42944963079367L60.346733287175496,72.46655421050195L60.59609995365143,72.90317483112904L60.84546662012736,76.81407045543551L61.09483328660329,72.75199510697507L61.34419995307922,69.88608258772047L61.593566619555155,67.88137739307012L61.842933286031084,72.98203437571578L62.09229995250701,75.05835967192638L62.341666618982956,67.87952112562743L62.591033285458884,68.36596396441632L62.84039995193481,70.3696985963752L63.08976661841075,76.69733244777535L63.33913328488668,76.44212749613303L63.58849995136261,72.18982716376695L63.83786661783854,71.47564682786629L64.08723328431448,72.74053398142178L64.3365999507904,78.43975235639482L64.58596661726634,82.35982854911072L64.83533328374227,73.37007382555703L65.0846999502182,70.70990468602895L65.33406661669413,75.4488759128983L65.58343328317007,74.37219306354655L65.832799949646,73.43156401050146L66.08216661612192,72.49378830569685L66.33153328259786,71.18888002607696L66.5808999490738,73.71467661723932L66.83026661554972,79.10951486420254L67.07963328202565,71.60713420626394L67.32899994850159,73.1578016880535L67.57836661497751,78.38902321899673L67.82773328145345,75.54878553028516L68.07709994792938,70.4438007926874L68.32646661440532,74.49256405177312L68.57583328088124,77.34653811956059L68.82519994735718,82.03463170763644L69.07456661383311,74.1443760121158L69.32393328030903,73.70155545823013L69.57329994678497,71.99086711563814L69.8226666132609,76.15681919019153L70.07203327973683,81.79617559194844L70.32139994621276,80.30671189955501L70.5707666126887,76.55442106917326L70.82013327916464,75.63792879650441L71.06949994564056,75.62354007201293L71.3188666121165,78.20723629652343L71.56823327859243,75.33720816716732L71.81759994506835,85.36492400121824L72.06696661154429,73.79310126488235L72.31633327802022,77.53641836808401L72.56569994449615,75.11025030238147L72.8150666109721,73.6554457749537L73.06443327744802,75.14052337256112L73.31379994392395,72.76802795405865L73.56316661039988,79.57546981404539L74.06189994335175,72.42493669443684L74.31126660982767,75.0886963855612L74.5606332763036,74.7973578622416L74.80999994277954,70.65203157078713L75.05936660925548,74.92004122933963L75.3087332757314,75.60150882927883L75.55809994220733,76.18157649425575L75.80746660868327,72.47566052821367L76.05683327515919,71.68559597925582L76.30619994163513,77.64778911102417L76.55556660811106,76.83754428315365L76.80493327458699,78.8957948380937L77.05429994106294,77.5145250195028L77.30366660753887,81.90230105345768L77.5530332740148,82.72353498458892L77.80239994049073,69.32891595936508L78.05176660696665,78.35681432705542L78.30113327344259,77.07806881113493L78.55049993991852,77.5493592039702L78.79986660639445,78.2315640072652L79.04923327287038,75.99094313151272L79.29859993934632,77.85873003959023L79.54796660582224,74.8092697956024L79.79733327229818,77.06589169671088L80.04669993877411,80.52160932958463L80.29606660525003,78.39484659514551L80.54543327172597,77.07390016482077L80.7947999382019,80.37542031304088L81.29353327115376,74.14835903168569L81.54289993762971,71.0772228875885L81.79226660410562,80.75718027530456L82.04163327058157,78.44095097480067L82.2909999370575,79.46071536073828L82.54036660353343,82.609385144106L82.78973327000936,82.46203463450524L83.0390999364853,80.91975217793538L83.28846660296122,81.09170088296241L83.53783326943716,83.51342451404503L83.7871999359131,75.84535342417189L84.03656660238902,74.06192591593276L84.28593326886495,83.72043545925385L84.53529993534087,81.9342659788208L84.78466660181681,86.01414558386728L85.03403326829275,81.09459135655175L85.28339993476867,81.4038083871551L85.5327666012446,80.93883460724624L85.78213326772054,78.85181190694448L86.03149993419646,78.10068124169175L86.2808666006724,82.21371378326467L86.53023326714835,80.36199154399833L86.77959993362425,81.94122432992026L87.0289666001002,82.86242621827228L87.27833326657614,89.87502275602515L87.52769993305206,79.8415047603105L87.777066599528,86.96438479864423L88.02643326600393,80.51740355792163L88.27579993247986,73.56707683743912L88.52516659895579,78.02040563022729L88.77453326543173,80.42509402980727L89.02389993190765,79.57723061630531L89.27326659838359,83.94025464981723L89.52263326485952,81.14325738527782L89.77199993133544,83.71814429486744L90.02136659781138,81.41306850988349L90.27073326428732,74.96279372035542L90.52009993076324,79.10972700905313L90.76946659723917,88.18419117144867L91.0188332637151,87.46217738693986L91.26819993019103,85.00460657972826L91.7669332631429,81.73504074962875L92.01629992961884,82.7997055931944L92.26566659609477,87.08201911829815L92.5150332625707,84.77882081524194L92.76439992904663,84.18491069876382L93.01376659552257,82.23529952181252L93.26313326199849,81.00390473654443L93.51249992847443,78.80595679748876L93.76186659495036,80.67679859141481L94.01123326142628,88.97225095156841L94.26059992790222,76.01889851919964L94.50996659437816,77.16213651180374L94.75933326085408,88.19621448085604L95.00869992733001,84.08130976097664L95.25806659380595,82.65422195827887L95.50743326028187,87.71040277299767L95.75679992675782,85.48776117333296L96.00616659323376,80.98087110939127L96.25553325970968,84.69283320367526L96.50489992618562,85.87463382649594L96.75426659266154,84.27990385923817L97.25299992561341,84.40343050211732L97.75173325856527,81.77072351349852L98.0010999250412,85.84294468943858L98.25046659151712,86.12359641590956L98.49983325799306,86.4096525324494L98.749199924469,82.37628038227422L98.99856659094492,84.31738455071672L99.24793325742085,82.96542784685653L99.49729992389679,86.57824934883706L99.74666659037271,89.8130817632732L99.99603325684865,84.51714014203526L100.2453999233246,93.1727667259047L100.4947665898005,88.43341363830427L100.74413325627646,89.12164865897739L100.99349992275239,84.8031060970136L101.24286658922831,81.69611747316617L101.74159992218019,83.83281389023432L101.99096658865611,82.63526681587837L102.24033325513204,84.80010955099897L102.48969992160798,85.43368545091676L102.7390665880839,89.4968162200089L103.23779992103576,85.14494039839565L103.4871665875117,91.8618123180429L103.73653325398763,91.26523978368982L103.98589992046355,88.21879199658042L104.23526658693949,87.10743937502048L104.48463325341542,81.29648430724001L104.73399991989135,87.44174783782773L104.98336658636728,89.64560401097242L105.23273325284323,84.40802343813266L105.48209991931914,86.68308072675768L105.73146658579509,89.655649069648L105.98083325227103,84.49005985185704L106.23019991874695,86.87650379428601L106.47956658522288,87.00646372975939L106.72893325169882,94.59311362597487L106.97829991817474,89.06278907018032L107.22766658465068,86.31978797373813L107.47703325112661,88.56681032035726L107.72639991760254,85.44065440925874L107.97576658407847,91.0420793117296L108.2251332505544,88.37231061771217L108.47449991703033,89.43100888735489L108.72386658350626,90.86775988799718L108.9732332499822,91.47438808826837L109.22259991645812,88.27671814803489L109.47196658293406,86.1607323720059L109.72133324940998,85.19818875589453L109.97069991588592,85.854808890208L110.22006658236187,92.07605740265694L110.46943324883779,87.16972510315463L110.71879991531372,89.14322379028272L110.96816658178966,90.22615430548444L111.21753324826558,91.58725975602647L111.46689991474152,92.0186403988439L111.71626658121745,94.96706135411546L111.96563324769338,87.73720727487012L112.21499991416931,92.96685363029769L112.46436658064525,83.86415829190946L112.71373324712117,89.77861883229434L112.9630999135971,87.14501553168179L113.21246658007304,83.88380820869565L113.46183324654896,88.72666676890049L113.7111999130249,85.94257851851967L113.96056657950083,88.42000078012552L114.20993324597676,86.22184069621926L114.4592999124527,83.37611906311986L114.70866657892864,92.48765553815656L114.95803324540456,87.59093340038612L115.2073999118805,97.2486155787899L115.45676657835642,91.37054848752427L115.70613324483236,88.0302694751008L115.9554999113083,87.87594470353679L116.20486657778422,84.54440075533648L116.45423324426015,92.8082435327517L116.70359991073609,87.76079778225608L116.95296657721201,87.72035236649049L117.45169991016388,89.50758787479776L117.7010665766398,87.70370960296145L117.95043324311574,90.65173278663815L118.19979990959168,87.1616476879683L118.4491665760676,88.84029155087819L118.69853324254353,98.75334839680477L118.94789990901948,92.32137640426163L119.19726657549539,85.27666643975022L119.44663324197134,85.51701064460849L119.69599990844728,86.94800191255717L119.9453665749232,90.88528835627744L120.19473324139913,92.22862667558229L120.44409990787507,87.92656776850959L120.69346657435099,92.59381282139339L120.94283324082693,85.72478531127945L121.19219990730286,89.79976967389848L121.44156657377879,89.1674295177354L121.69093324025472,96.79654550941837L121.94029990673064,92.59339913893473L122.18966657320658,93.2295260806809L122.43903323968252,85.34026746595805L122.68839990615844,87.97343056600562L122.93776657263437,86.69598974091627L123.18713323911031,89.15223994643293L123.68586657206217,94.7999866770308L123.93523323853812,91.35587336748449L124.18459990501403,90.17920665004817L124.43396657148998,88.39781042875347L124.68333323796591,90.93351418443854L124.93269990444183,99.12412986305026L125.18206657091777,88.17679261978424L125.4314332373937,92.42002375978745L125.68079990386963,90.2129058595649L125.93016657034556,96.81087589407593L126.1795332368215,87.43427503546559L126.42889990329742,86.19697201610848L126.67826656977336,97.54820123317631L126.92763323624929,98.51273901088325L127.17699990272521,94.19806278882152L127.42636656920115,91.3040888094547L127.67573323567709,95.43895635977492L127.92509990215301,90.28345993325092L128.17446656862896,93.76149520440708L128.42383323510487,98.69072854053093L128.6731999015808,92.72182102424131L128.92256656805674,90.34232482566927L129.4212999010086,88.79671699856635L129.67066656748455,97.07229668984064L129.92003323396045,98.71065954924416L130.1693999004364,85.99878629668433L130.41876656691232,94.41855023566427L130.66813323338826,99.04077284763093L130.9174998998642,95.66052044173443L131.16686656634013,95.65383257531948L131.41623323281607,92.03005379180581L131.665599899292,95.22925647858483L131.91496656576794,99.31644447373424L132.16433323224385,89.95215332007956L132.41369989871978,96.48564723087406L132.91243323167166,89.10166461405151L133.1617998981476,90.73795906116175L133.41116656462353,97.42050594398302L133.66053323109944,97.24073439759036L133.90989989757537,95.4655752349031L134.1592665640513,91.88796977812103L134.40863323052724,104.03246162776941L134.65799989700318,88.78440729361068L134.9073665634791,93.74044513160698L135.15673322995502,93.1696747147073L135.406099896431,98.98815562106256L135.6554665629069,97.78386764407901L135.90483322938283,94.93409404433328L136.15419989585877,90.61143056864671L136.4035665623347,96.42806581480181L136.65293322881064,90.18934187028526L136.90229989528657,94.36907805650594L137.15166656176248,93.02663604919485L137.40103322823842,96.07043202567183L137.65039989471435,91.1153064105331L137.8997665611903,93.0147612411829L138.14913322766623,93.93594191504985L138.39849989414216,94.81644381381557L138.64786656061807,98.6638603952033L138.897233227094,98.67875296371494L139.14659989356994,84.47904423048999L139.39596656004588,94.5559829734998L139.6453332265218,94.20620384746303L139.89469989299775,91.2956295335373L140.14406655947366,94.35835943792972L140.39343322594962,99.87958297963382L140.64279989242553,92.52422931039882L140.89216655890147,94.63823683569603L141.1415332253774,97.0682924557857L141.39089989185334,86.97446698266867L141.64026655832927,97.23054614114062L141.8896332248052,98.55742202003944L142.13899989128112,93.90154262752617L142.38836655775705,90.90088100279604L142.637733224233,99.76561876589517L142.88709989070892,96.82248021740338L143.13646655718486,98.7138045966542L143.3858332236608,94.39519308761396L143.6351998901367,96.24067826827286L143.88456655661264,89.49876264901309L144.13393322308858,98.98582202770604L144.3832998895645,101.97520815362714L144.63266655604045,98.21186457652948L144.88203322251638,95.90125181094504L145.1313998889923,105.68199391355665L145.38076655546826,92.01480588066943L145.6301332219442,93.38027621151241L145.8794998884201,94.39303451375918L146.12886655489604,100.51323843387058L146.37823322137197,93.74832631280651L146.6275998878479,97.30950115091014L146.87696655432384,93.02938332501003L147.12633322079975,96.20257174948506L147.3756998872757,90.70004877636075L147.62506655375162,97.89707874359806L147.87443322022756,102.55269295504809L148.1237998867035,104.03812059165898L148.62253321965534,99.49701156331662L148.87189988613127,100.35811281549559L149.1212665526072,101.52514285309371L149.37063321908315,90.87363630035861L149.61999988555908,96.10136274488832L149.86936655203502,99.55424824400666L150.36809988498686,102.47704210132656L150.6174665514628,96.8352354265453L150.86683321793873,98.38397239019446L151.11619988441467,100.59635148271173L151.3655665508906,97.83899348350565L151.61493321736654,106.77036064055483L151.86429988384245,94.8150065324528L152.11366655031838,103.07393285295552L152.36303321679432,87.38147748577421L152.61239988327026,106.43643403847864L152.8617665497462,99.86582008245159L153.11113321622213,102.23960958454268L153.36049988269804,96.93731422502947L153.60986654917397,103.74332941089597L153.8592332156499,99.31169242908095L154.10859988212587,94.77498010276713L154.3579665486018,99.30112761552141L154.60733321507774,94.56120173682439L154.85669988155362,98.04533086881383L155.1060665480296,99.22529113505561L155.35543321450552,94.19616409240871L155.60479988098146,99.3598652210294L155.8541665474574,95.9390931486696L156.1035332139333,96.01248465973231L157.10099987983705,102.25664481604531L157.35036654631298,103.40433785051187L157.5997332127889,101.52169549927157L157.84909987926483,99.66907164439021L158.09846654574076,106.17579287503986L158.3478332122167,100.34623800748363L158.59719987869263,102.63058724056464L158.84656654516857,99.79228006999347L159.09593321164448,105.18400509127423L159.34529987812041,101.29836531143087L159.59466654459635,91.92854248079698L159.8440332110723,103.33895480755905L160.09339987754822,103.36509635677339L160.34276654402416,98.92603960880888L160.59213321050007,101.60384859266378L160.841499876976,107.65464932490363L161.09086654345194,104.08493035294237L161.34023320992787,106.02571100048772L161.5895998764038,103.18870321712643L161.83896654287975,98.71393718718582L162.08833320935565,98.65179996044708L162.3376998758316,99.70494003500426L162.58706654230753,99.34361492547396L162.83643320878346,98.94154209376597L163.08579987525943,100.76765844956572L163.3351665417353,94.78184298868382L163.58453320821124,105.78006317436461L163.83389987468718,100.7488412013181L164.08326654116314,101.13997266235674L164.33263320763908,104.93673966066535L164.581999874115,104.75478832593285L164.83136654059092,98.69702393897228L165.08073320706686,98.24630098940202L165.3300998735428,106.1307598268802L165.57946654001873,100.6004723964345L165.82883320649466,106.06880822688572L166.0781998729706,97.4290288633556L166.3275665394465,108.40082640789501L166.57693320592244,107.94738270061589L166.82629987239838,104.73612488270192L167.07566653887432,100.50778100758907L167.32503320535025,97.92857695028988L167.5743998718262,97.45818286944836L167.8237665383021,105.11232664988006L168.07313320477803,102.79227343844423L168.32249987125397,107.51330781819593L168.5718665377299,99.78382079407606L168.82123320420584,108.7799610776326L169.07059987068175,105.477008951671L169.31996653715768,103.66698908641001L169.56933320363362,104.75873952377515L169.81869987010955,101.43809982089533L170.0680665365855,97.27973722837191L170.31743320306143,106.51225460808064L170.56679986953733,104.45328276064856L170.81616653601327,100.9644970491886L171.0655332024892,96.93674673755413L171.31489986896514,102.0875282447737L171.56426653544108,104.77813486674063L171.813633201917,100.64360144456009L172.06299986839292,99.51739868345862L172.5617332013448,102.00001319028274L172.81109986782076,102.34399545827705L173.0604665342967,99.73318712186074L173.30983320077263,97.91938577463793L173.5591998672485,104.36060197904567L173.80856653372447,103.76781623027568L174.0579332002004,102.74509772729357L174.30729986667635,107.38443512508184L174.55666653315228,105.03779486024541L174.8060331996282,94.5229732347475L175.05539986610412,104.78983995887211L175.30476653258006,106.68106887294016L175.554133199056,102.39494734776827L175.80349986553193,106.26822969006457L176.05286653200787,101.75334706887679L176.30223319848378,103.00774365957045L176.80096653143565,98.18753156216644L177.05033319791158,109.04087272575589L177.29969986438752,101.71017559178108L177.54906653086346,100.62102392883571L177.79843319733936,106.66827653844939L178.0477998638153,98.90584872265367L178.29716653029124,98.01019437793434L178.54653319676717,102.23810335610347L178.7958998632431,97.92852391407723L179.04526652971904,101.99850696184353L179.29463319619495,100.86332516994071L179.5439998626709,106.74356144230364L179.79336652914682,102.84492779036145L180.04273319562276,104.86553324156375L180.2920998620987,104.48980880029944L180.54146652857463,103.79695962912592L180.79083319505054,101.97813575256532L181.04019986152647,106.41501801581126L181.2895665280024,103.34008447888846L181.53893319447835,100.96007382905373L181.7882998609543,100.66659794636439L182.0376665274302,105.2481736049574L182.28703319390613,103.28406232746806L182.53639986038206,103.57993014334784L182.78576652685803,104.36526386213745L183.03513319333396,106.1158460438835L183.2844998598099,105.79384198241064L183.5338665262858,99.95405642943456L183.78323319276174,103.34391369344166L184.03259985923768,109.09587127827217L184.2819665257136,106.54385888719776L184.53133319218955,112.23124223131833L184.78069985866549,105.84980579399712L185.0300665251414,108.72198719358676L185.27943319161733,102.67523312437197L185.52879985809327,109.32711446904L185.7781665245692,106.82364612340257L186.02753319104514,106.34159468302096L186.27689985752107,109.28399072453567L186.52626652399698,105.56651286413626L186.77563319047292,107.24729408641588L187.02499985694885,104.0735859070569L187.2743665234248,106.26216765095887L187.52373318990072,112.49061317746418L187.77309985637663,97.9976088846729L188.02246652285257,107.66472090168554L188.2718331893285,112.08255786096947L188.52119985580444,104.92935701986471L188.77056652228038,109.21238653383921L189.0199331887563,109.59829392793199L189.26929985523222,102.42412787196736L189.51866652170816,105.532803047377L189.7680331881841,108.78005654281537L190.01739985466003,105.28804622962639L190.26676652113596,103.90830915758102L190.5161331876119,101.28843162880185L190.7654998540878,102.26826505023655L191.01486652056374,105.94169633603155L191.26423318703968,110.0737105381113L191.51359985351564,101.01104693303L191.76296651999158,97.48413348829718L192.01233318646752,105.51025204975895L192.2616998529434,104.75932822573554L192.51106651941936,100.44362310114843L192.7604331858953,106.71601973707538L193.00979985237123,103.96321224491453L193.25916651884717,102.9910425562075L193.50853318532307,103.39938426825051L193.757899851799,106.26889794634394L194.00726651827495,109.28821240706247L194.25663318475088,104.24836144221808L194.50599985122682,112.37759831193193L194.75536651770275,109.83501045584512L195.00473318417866,112.185615177577L195.2540998506546,101.91198898815037L195.50346651713053,101.003176359073L195.75283318360647,101.08211545797872L196.0021998500824,105.86436953799034L196.25156651655834,103.84952912310291L196.50093318303425,111.69215564785475L196.75029984951018,101.81286961033197L196.99966651598612,105.22820016727405L197.24903318246206,108.45413310522781L197.498399848938,102.83606013560666L197.74776651541393,107.65650028872506L197.99713318188984,112.60888127985925L198.24649984836577,109.77248076113278L198.4958665148417,97.71872326408311L198.74523318131764,102.85237407461727L198.99459984779358,103.84537108403129L199.24396651426952,108.97384025658971L199.49333318074542,103.5388429894092L199.74269984722136,104.26586339239202L199.9920665136973,108.97155439582457L200.24143318017323,106.68416618775882L200.4907998466492,110.84232724267417L200.74016651312508,101.32507965174182L200.989533179601,103.75104087621503L201.23889984607695,103.7594152941922L201.4882665125529,105.15805447242542L201.73763317902885,110.1391254027917L201.98699984550478,103.12963148347876L202.2363665119807,105.93460009077921L202.48573317845663,110.53241013406387L202.73509984493256,112.44260479777495L202.9844665114085,111.25931120556822L203.23383317788443,108.43886397960637L203.48319984436037,105.84947166585744L203.73256651083628,114.14203090061108L203.98193317731221,112.86322704485667L204.23129984378815,111.52525864208246L204.4806665102641,114.23300126435606L204.73003317674002,106.7927578331562L204.97939984321596,111.23124974545601L205.22876650969187,106.88924131120598L205.4781331761678,103.42746163922652L205.72749984264374,107.4655699231912L205.97686650911967,113.07603219629732L206.2262331755956,104.70549116627626L206.47559984207152,109.43203600852212L206.72496650854745,109.7885825552928L206.9743331750234,108.24830486756105L207.22369984149933,109.09101316119359L207.47306650797526,109.24901334229412L207.7224331744512,107.82539410790355L207.9717998409271,104.79274634332523L208.22116650740304,112.30177774232993L208.47053317387898,100.4250657303428L208.7198998403549,114.66564947265579L208.96926650683085,104.69198284291474L209.21863317330678,107.78773839692326L209.4679998397827,104.36110051944456L209.71736650625863,106.04173854395003L209.96673317273456,108.9547047910662L210.21609983921053,109.71466068210361L210.46546650568646,110.39375225971617L210.7148331721624,107.37321796610672L210.96419983863828,103.72634721560598L211.21356650511424,109.24811703030036L211.46293317159018,109.78230306771525L211.71229983806612,109.2992015103232L211.96166650454205,110.21205549880438L212.21103317101796,107.376087225211L212.4603998374939,100.53636222258524L212.70976650396983,104.42087763472045L212.95913317044577,109.60923529860133L213.2084998369217,110.46001570379894L213.45786650339764,108.92339221111865L213.70723316987355,108.56336118517697L213.95659983634948,109.3709807205214L214.20596650282542,105.13330777560373L214.45533316930135,101.90864240313226L214.7046998357773,104.41219030308866L214.95406650225323,109.71330295505982L215.20343316872913,100.62853385654671L215.45279983520507,111.27654267105765L215.702166501681,107.63481908499443L215.95153316815694,107.2177953449409L216.20089983463288,108.4940057298968L216.4502665011088,100.7343941369927L216.69963316758472,112.26456753553589L216.94899983406066,114.2189254535192L217.1983665005366,105.70553138472997L217.44773316701253,111.5587297958848L217.69709983348847,103.25216634918138L217.9464664999644,101.29327383501663L218.1958331664403,110.80022709707396L218.44519983291624,109.12316371330098L218.69456649939218,114.3898160861039L219.19329983234408,109.42258495542819L219.44266649881996,104.35348451930827L219.6920331652959,111.52412366713179L219.94139983177183,109.57204100267109L220.1907664982478,106.81481029037536L220.44013316472373,111.59109514465342L220.68949983119967,111.9412190060724L220.93886649767558,104.71370647561548L221.1882331641515,104.8748145787772L221.43759983062745,108.75003274283517L221.68696649710338,100.71920456569023L221.93633316357932,112.05794640649003L222.18569983005526,114.17103905711906L222.43506649653116,110.17308448975041L222.6844331630071,106.44126033382963L222.93379982948304,115.04777273297611L223.18316649595897,110.4471438149892L223.4325331624349,116.34277119626267L223.68189982891084,109.97111728836444L223.93126649538675,108.26319743607269L224.1806331618627,104.37879339998403L224.42999982833862,110.04949950703735L224.67936649481456,106.48906187228954L224.9287331612905,115.57314415184885L225.1780998277664,107.11452323167214L225.42746649424234,110.13475521886949L225.67683316071827,112.87763963564385L225.9261998271942,106.63929755185836L226.17556649367015,106.6681704660241L226.42493316014608,115.10284023256884L226.674299826622,112.4742196841346L226.92366649309793,104.16146691141512L227.4223998260498,111.08490427208494L227.67176649252573,108.96233139844503L227.92113315900167,104.79760976402508L228.17049982547758,109.8022765053986L228.4198664919535,115.45641675143122L228.66923315842945,113.81038485567876L228.9185998249054,109.78735741878063L229.16796649138135,101.01069689402652L229.41733315785729,105.8232240442178L229.66669982433316,114.10603787489731L229.91606649080913,121.584308270566L230.16543315728507,114.12153770804377L230.414799823761,105.70729749061115L230.66416649023694,114.58282547117358L230.91353315671284,112.33871481262884L231.16289982318878,107.99188538664907L231.41226648966472,107.28258438231205L231.66163315614065,116.53440163980349L231.9109998226166,113.99410229629245L232.16036648909252,110.82232198326324L232.40973315556843,107.4949148596495L232.65909982204437,111.59499065447244L232.9084664885203,112.28732272257264L233.15783315499624,112.27050228773123L233.40719982147218,107.82762693245604L233.6565664879481,98.28026007636072L233.90593315442402,113.1816379029226L234.15529982089996,114.54960093576005L234.4046664873759,108.53236682250531L234.65403315385183,105.41634082802261L234.90339982032776,110.88743984515281L235.1527664868037,110.96260276571797L235.4021331532796,112.21572913911871L235.65149981975554,117.62117728042222L235.90086648623148,113.88476284029673L236.15023315270741,109.14027319550132L236.39959981918335,115.50454446259891L236.6489664856593,112.32398930818704L236.8983331521352,109.59824089171934L237.14769981861113,111.13969067975063L237.39706648508707,112.7543330930472L237.646433151563,108.23409646619257L237.89579981803897,109.56392115851463L238.14516648451485,113.04473287540293L238.39453315099078,108.31961205546668L238.64389981746672,111.59967110023865L238.89326648394268,117.10556187286613L239.39199981689455,109.96626447490712L239.64136648337046,112.69640163797146L239.8907331498464,109.3645262134421L240.14009981632233,107.5083807540409L240.38946648279827,110.1630129129685L240.88819981575014,115.07535951898512L241.13756648222605,112.12496296479242L241.38693314870198,104.34050125445196L241.63629981517792,109.38151371235335L241.88566648165386,115.21837431820188L242.1350331481298,104.77623086670656L242.38439981460573,119.25313866895908L242.63376648108164,114.26715658530156L242.88313314755757,106.18109119268343L243.1324998140335,110.67592612549015L243.38186648050944,119.53220461267188L243.63123314698538,116.8310490880092L243.8805998134613,111.5774887042985L244.12996647993722,114.70270322262252L244.37933314641316,118.33766734338371L244.6286998128891,113.30246235076731L244.87806647936503,113.88759232224152L245.12743314584097,121.37784890196872L245.37679981231688,115.78980768775966L245.6261664787928,109.55349423910798L245.87553314526875,114.73612399202284L246.12489981174468,115.81667583308729L246.37426647822062,114.11417097810693L246.62363314469656,107.8649856406455L246.87299981117246,111.44703288023686L247.1223664776484,107.9657332301922L247.37173314412433,113.17139926207085L247.6210998106003,111.18044370554958L247.87046647707623,112.13403480896591L248.11983314355217,111.80718854127826L248.36919981002805,108.26983226627499L248.61856647650401,110.87137517634164L248.86793314297995,110.6100498457597L249.1172998094559,113.1935896134429L249.36666647593182,118.08721178458404L249.61603314240773,113.83399392573915L249.86539980888367,112.68525077426216L250.1147664753596,117.14053395148642L250.36413314183554,115.52102546567937L250.61349980831147,111.37650532465716L250.8628664747874,113.74482944503484L251.11223314126332,113.07617274226084L251.36159980773925,117.20320154035164L251.6109664742152,115.30546508299165L251.86033314069113,119.29140429638483L252.10969980716706,110.87585143268916L252.359066473643,108.27455779282195L252.6084331401189,114.86873043450737L252.85779980659484,119.22865715320063L253.3565331395467,108.35294001149487L253.60589980602265,112.79290102688503L253.85526647249858,111.49909853019369L254.1046331389745,105.3715252283348L254.35399980545043,115.60546972345799L254.60336647192636,110.60752532203765L254.8527331384023,113.93666672980498L255.10209980487824,111.83950350564487L255.35146647135417,110.22661393917633L255.60083313783008,110.35609124511461L255.85019980430602,114.82230518576569L256.09956647078195,114.46735768080634L256.3489331372579,119.80063414393805L256.5982998037338,115.96517192488125L257.0970331366857,110.06353288890409L257.3463998031616,116.10587699703717L257.59576646963757,110.87272759976418L257.8451331361135,116.75571645156356L258.09449980258944,113.58307695188944L258.34386646906535,111.7302091304299L258.59323313554125,111.96583576417311L258.8425998020172,113.15836030919127L259.0919664684931,106.01391574679474L259.3413331349691,117.00470290727287L259.590699801445,114.26623375520148L259.8400664679209,109.81955570347941L260.08943313439687,109.94602055253927L260.3387998008728,115.65565523967643L260.58816646734874,111.59744357930742L260.83753313382465,113.84169743562632L261.3362664667765,117.80924899409433L261.58563313325243,116.40950931444866L261.8349997997284,113.47835960182601L262.33373313268027,109.5536109187758L262.5830997991562,114.79009364201374L262.83246646563214,119.46123420471656L263.08183313210804,120.57643195169351L263.331199798584,118.21785588720059L263.5805664650599,110.13976714096475L263.8299331315359,112.78370719942245L264.0792997980118,114.28565561627329L264.3286664644877,114.5475431307093L264.57803313096366,109.06291457573252L264.82739979743957,109.77551443249627L265.07676646391553,118.08353637504752L265.32613313039144,118.93816986109402L265.57549979686735,119.79782057285706L265.8248664633433,129.0302743091106L266.0742331298192,115.86829597885787L266.3235997962952,108.22850644937944L266.5729664627711,110.46653385433342L266.82233312924706,113.26490740859106L267.07169979572296,110.21479216737703L267.32106646219887,118.61511568261074L267.57043312867484,115.49820398337681L267.81979979515074,115.2062025073991L268.0691664616267,111.57857594665779L268.3185331281026,120.01602746255594L268.5678997945785,112.65453750351753L268.8172664610545,119.08138089429758L269.0666331275304,116.82865185119749L269.31599979400636,114.08376796920629L269.56536646048227,121.70020565425568L269.8147331269582,113.6185051419385L270.06409979343414,114.20752001598919L270.31346645991005,119.86768252396803L270.562833126386,116.97340623818911L270.812199792862,115.60602130006953L271.0615664593379,107.27392356878659L271.3109331258138,114.49877898498983L271.5602997922897,116.39287715816215L271.80966645876566,115.05181144056928L272.0590331252416,116.0441136755976L272.30839979171753,117.41269192850177L272.5577664581935,114.54692260702132L272.8071331246694,114.1645553801228L273.0564997911453,113.2365065167179L273.5552331240972,111.86360316067226L273.80459979057315,118.30580849044588L274.05396645704906,113.286434807305L274.30333312352496,114.3410572440057L274.55269979000093,117.03638408889833L274.80206645647684,113.64467851288043L275.0514331229528,109.3685993945735L275.3007997894287,115.60730477641562L275.5501664559046,115.50962798358125L275.7995331223806,119.48138001009102L276.29826645533245,118.59866384944723L276.54763312180836,118.09932260374228L276.7969997882843,118.61778340410694L277.04636645476023,114.81410843910089L277.29573312123614,111.89701067101942L277.5450997877121,118.47168720093532L277.794466454188,112.89487640475454L278.043833120664,110.43754956412113L278.2931997871399,120.67328933504245L278.5425664536158,116.14511318715438L278.79193312009176,114.57691458527393L279.04129978656766,116.57251611402319L279.2906664530436,116.5428450048571L279.54003311951953,114.22629483526669L279.7893997859955,119.70443971324721L280.0387664524714,114.63901468666381L280.2881331189473,113.73631978471542L280.5374997854233,117.05012842340614L280.78686645189924,123.59245816722785L281.03623311837515,125.31561267160282L281.28559978485106,111.3657177590045L281.534966451327,119.37219966273324" fill="none"></path></g></g></g></g></g></g><g transform="translate(30, 177)" clip-path="url(#clip_1)"><clipPath id="clip_1"><rect width="299" height="22"></rect></clipPath><g><g><line x1="0" y1="0" x2="0" y2="5" style="visibility: inherit;" fill="rgb(0, 0, 0)" stroke="rgb(204, 204, 204)" stroke-width="1px"></line><line x1="24.936666647593178" y1="0" x2="24.936666647593178" y2="5" style="visibility: inherit;" fill="rgb(0, 0, 0)" stroke="rgb(204, 204, 204)" stroke-width="1px"></line><line x1="49.873333295186356" y1="0" x2="49.873333295186356" y2="5" style="visibility: inherit;" fill="rgb(0, 0, 0)" stroke="rgb(204, 204, 204)" stroke-width="1px"></line><line x1="74.80999994277954" y1="0" x2="74.80999994277954" y2="5" style="visibility: inherit;" fill="rgb(0, 0, 0)" stroke="rgb(204, 204, 204)" stroke-width="1px"></line><line x1="99.74666659037271" y1="0" x2="99.74666659037271" y2="5" style="visibility: inherit;" fill="rgb(0, 0, 0)" stroke="rgb(204, 204, 204)" stroke-width="1px"></line><line x1="124.68333323796591" y1="0" x2="124.68333323796591" y2="5" style="visibility: inherit;" fill="rgb(0, 0, 0)" stroke="rgb(204, 204, 204)" stroke-width="1px"></line><line x1="149.61999988555908" y1="0" x2="149.61999988555908" y2="5" style="visibility: inherit;" fill="rgb(0, 0, 0)" stroke="rgb(204, 204, 204)" stroke-width="1px"></line><line x1="174.55666653315228" y1="0" x2="174.55666653315228" y2="5" style="visibility: inherit;" fill="rgb(0, 0, 0)" stroke="rgb(204, 204, 204)" stroke-width="1px"></line><line x1="199.49333318074542" y1="0" x2="199.49333318074542" y2="5" style="visibility: inherit;" fill="rgb(0, 0, 0)" stroke="rgb(204, 204, 204)" stroke-width="1px"></line><line x1="224.42999982833862" y1="0" x2="224.42999982833862" y2="5" style="visibility: inherit;" fill="rgb(0, 0, 0)" stroke="rgb(204, 204, 204)" stroke-width="1px"></line><line x1="249.36666647593182" y1="0" x2="249.36666647593182" y2="5" style="visibility: inherit;" fill="rgb(0, 0, 0)" stroke="rgb(204, 204, 204)" stroke-width="1px"></line><line x1="274.30333312352496" y1="0" x2="274.30333312352496" y2="5" style="visibility: inherit;" fill="rgb(0, 0, 0)" stroke="rgb(204, 204, 204)" stroke-width="1px"></line><line x1="299.23999977111816" y1="0" x2="299.23999977111816" y2="5" style="visibility: inherit;" fill="rgb(0, 0, 0)" stroke="rgb(204, 204, 204)" stroke-width="1px"></line></g><g transform="translate(0, 8)"><text style="text-anchor: middle; visibility: hidden; font-family: &quot;Helvetica Neue&quot;, sans-serif; font-size: 12px; font-weight: 200;" x="0" y="0" dx="0em" dy="0.95em" fill="rgb(50, 49, 63)" stroke="none" stroke-width="1px">-100</text><text style="text-anchor: middle; visibility: inherit; font-family: &quot;Helvetica Neue&quot;, sans-serif; font-size: 12px; font-weight: 200;" x="24.936666647593178" y="0" dx="0em" dy="0.95em" fill="rgb(50, 49, 63)" stroke="none" stroke-width="1px">0</text><text style="text-anchor: middle; visibility: hidden; font-family: &quot;Helvetica Neue&quot;, sans-serif; font-size: 12px; font-weight: 200;" x="49.873333295186356" y="0" dx="0em" dy="0.95em" fill="rgb(50, 49, 63)" stroke="none" stroke-width="1px">100</text><text style="text-anchor: middle; visibility: inherit; font-family: &quot;Helvetica Neue&quot;, sans-serif; font-size: 12px; font-weight: 200;" x="74.80999994277954" y="0" dx="0em" dy="0.95em" fill="rgb(50, 49, 63)" stroke="none" stroke-width="1px">200</text><text style="text-anchor: middle; visibility: hidden; font-family: &quot;Helvetica Neue&quot;, sans-serif; font-size: 12px; font-weight: 200;" x="99.74666659037271" y="0" dx="0em" dy="0.95em" fill="rgb(50, 49, 63)" stroke="none" stroke-width="1px">300</text><text style="text-anchor: middle; visibility: inherit; font-family: &quot;Helvetica Neue&quot;, sans-serif; font-size: 12px; font-weight: 200;" x="124.68333323796591" y="0" dx="0em" dy="0.95em" fill="rgb(50, 49, 63)" stroke="none" stroke-width="1px">400</text><text style="text-anchor: middle; visibility: hidden; font-family: &quot;Helvetica Neue&quot;, sans-serif; font-size: 12px; font-weight: 200;" x="149.61999988555908" y="0" dx="0em" dy="0.95em" fill="rgb(50, 49, 63)" stroke="none" stroke-width="1px">500</text><text style="text-anchor: middle; visibility: inherit; font-family: &quot;Helvetica Neue&quot;, sans-serif; font-size: 12px; font-weight: 200;" x="174.55666653315228" y="0" dx="0em" dy="0.95em" fill="rgb(50, 49, 63)" stroke="none" stroke-width="1px">600</text><text style="text-anchor: middle; visibility: hidden; font-family: &quot;Helvetica Neue&quot;, sans-serif; font-size: 12px; font-weight: 200;" x="199.49333318074542" y="0" dx="0em" dy="0.95em" fill="rgb(50, 49, 63)" stroke="none" stroke-width="1px">700</text><text style="text-anchor: middle; visibility: inherit; font-family: &quot;Helvetica Neue&quot;, sans-serif; font-size: 12px; font-weight: 200;" x="224.42999982833862" y="0" dx="0em" dy="0.95em" fill="rgb(50, 49, 63)" stroke="none" stroke-width="1px">800</text><text style="text-anchor: middle; visibility: hidden; font-family: &quot;Helvetica Neue&quot;, sans-serif; font-size: 12px; font-weight: 200;" x="249.36666647593182" y="0" dx="0em" dy="0.95em" fill="rgb(50, 49, 63)" stroke="none" stroke-width="1px">900</text><text style="text-anchor: middle; visibility: inherit; font-family: &quot;Helvetica Neue&quot;, sans-serif; font-size: 12px; font-weight: 200;" x="274.30333312352496" y="0" dx="0em" dy="0.95em" fill="rgb(50, 49, 63)" stroke="none" stroke-width="1px">1k</text><text style="text-anchor: middle; visibility: hidden; font-family: &quot;Helvetica Neue&quot;, sans-serif; font-size: 12px; font-weight: 200;" x="299.23999977111816" y="0" dx="0em" dy="0.95em" fill="rgb(50, 49, 63)" stroke="none" stroke-width="1px">1.1k</text></g><line x1="0" y1="0" x2="299.23999977111816" y2="0" fill="rgb(0, 0, 0)" stroke="rgb(204, 204, 204)" stroke-width="1px"></line></g></g></g></g></svg>