<svg viewBox="0 0 330 200" xmlns="http://www.w3.org/2000/svg"><g><g><g><g><g><line x1="41.140000343322754" y1="169.23068039506822" x2="36.140000343322754" y2="169.23068039506822" style="visibility: inherit;" fill="rgb(0, 0, 0)" stroke="rgb(204, 204, 204)" stroke-width="1px"></line><line x1="41.140000343322754" y1="160.8365821105062" x2="36.140000343322754" y2="160.8365821105062" style="visibility: inherit;" fill="rgb(0, 0, 0)" stroke="rgb(204, 204, 204)" stroke-width="1px"></line><line x1="41.140000343322754" y1="105.61337517230993" x2="36.140000343322754" y2="105.61337517230993" style="visibility: inherit;" fill="rgb(0, 0, 0)" stroke="rgb(204, 204, 204)" stroke-width="1px"></line><line x1="41.140000343322754" y1="73.30986994390075" x2="36.140000343322754" y2="73.30986994390075" style="visibility: inherit;" fill="rgb(0, 0, 0)" stroke="rgb(204, 204, 204)" stroke-width="1px"></line><line x1="41.140000343322754" y1="50.39016823411367" x2="36.140000343322754" y2="50.39016823411367" style="visibility: inherit;" fill="rgb(0, 0, 0)" stroke="rgb(204, 204, 204)" stroke-width="1px"></line><line x1="41.140000343322754" y1="32.612266430929566" x2="36.140000343322754" y2="32.612266430929566" style="visibility: inherit;" fill="rgb(0, 0, 0)" stroke="rgb(204, 204, 204)" stroke-width="1px"></line><line x1="41.140000343322754" y1="18.08666300570445" x2="36.140000343322754" y2="18.08666300570445" style="visibility: inherit;" fill="rgb(0, 0, 0)" stroke="rgb(204, 204, 204)" stroke-width="1px"></line><line x1="41.140000343322754" y1="5.805440300755237" x2="36.140000343322754" y2="5.805440300755237" style="visibility: inherit;" fill="rgb(0, 0, 0)" stroke="rgb(204, 204, 204)" stroke-width="1px"></line></g><g transform="translate(31.140000343322754, 0)"><text style="text-anchor: end; visibility: inherit; font-family: &quot;Helvetica Neue&quot;, sans-serif; font-size: 12px; font-weight: 200;" x="0" y="169.23068039506822" dx="0em" dy="0.3em" fill="rgb(50, 49, 63)" stroke="none" stroke-width="1px">0.9</text><text style="text-anchor: end; visibility: hidden; font-family: &quot;Helvetica Neue&quot;, sans-serif; font-size: 12px; font-weight: 200;" x="0" y="160.8365821105062" dx="0em" dy="0.3em" fill="rgb(50, 49, 63)" stroke="none" stroke-width="1px">1</text><text style="text-anchor: end; visibility: inherit; font-family: &quot;Helvetica Neue&quot;, sans-serif; font-size: 12px; font-weight: 200;" x="0" y="105.61337517230993" dx="0em" dy="0.3em" fill="rgb(50, 49, 63)" stroke="none" stroke-width="1px">2</text><text style="text-anchor: end; visibility: hidden; font-family: &quot;Helvetica Neue&quot;, sans-serif; font-size: 12px; font-weight: 200;" x="0" y="73.30986994390075" dx="0em" dy="0.3em" fill="rgb(50, 49, 63)" stroke="none" stroke-width="1px">3</text><text style="text-anchor: end; visibility: inherit; font-family: &quot;Helvetica Neue&quot;, sans-serif; font-size: 12px; font-weight: 200;" x="0" y="50.39016823411367" dx="0em" dy="0.3em" fill="rgb(50, 49, 63)" stroke="none" stroke-width="1px">4</text><text style="text-anchor: end; visibility: hidden; font-family: &quot;Helvetica Neue&quot;, sans-serif; font-size: 12px; font-weight: 200;" x="0" y="32.612266430929566" dx="0em" dy="0.3em" fill="rgb(50, 49, 63)" stroke="none" stroke-width="1px">5</text><text style="text-anchor: end; visibility: inherit; font-family: &quot;Helvetica Neue&quot;, sans-serif; font-size: 12px; font-weight: 200;" x="0" y="18.08666300570445" dx="0em" dy="0.3em" fill="rgb(50, 49, 63)" stroke="none" stroke-width="1px">6</text><text style="text-anchor: end; visibility: hidden; font-family: &quot;Helvetica Neue&quot;, sans-serif; font-size: 12px; font-weight: 200;" x="0" y="5.805440300755237" dx="0em" dy="0.3em" fill="rgb(50, 49, 63)" stroke="none" stroke-width="1px">7</text></g><line x1="41.140000343322754" y1="0" x2="41.140000343322754" y2="177.95999908447266" fill="rgb(0, 0, 0)" stroke="rgb(204, 204, 204)" stroke-width="1px"></line></g></g><g transform="translate(41, 0)" clip-path="url(#clip_0)"><clipPath id="clip_0"><rect width="288" height="177"></rect></clipPath><g><g><g><line x1="0" y1="0" x2="0" y2="177.95999908447266" fill="rgb(0, 0, 0)" stroke="rgb(60, 60, 60)" stroke-width="1px" opacity="0.25"></line><line x1="22.219999973590557" y1="0" x2="22.219999973590557" y2="177.95999908447266" fill="rgb(0, 0, 0)" stroke="rgb(60, 60, 60)" stroke-width="1px" opacity="0.25"></line><line x1="44.439999947181114" y1="0" x2="44.439999947181114" y2="177.95999908447266" fill="rgb(0, 0, 0)" stroke="rgb(60, 60, 60)" stroke-width="1px" opacity="0.25"></line><line x1="66.65999992077168" y1="0" x2="66.65999992077168" y2="177.95999908447266" fill="rgb(0, 0, 0)" stroke="rgb(60, 60, 60)" stroke-width="1px" opacity="0.25"></line><line x1="88.87999989436223" y1="0" x2="88.87999989436223" y2="177.95999908447266" fill="rgb(0, 0, 0)" stroke="rgb(60, 60, 60)" stroke-width="1px" opacity="0.25"></line><line x1="111.09999986795279" y1="0" x2="111.09999986795279" y2="177.95999908447266" fill="rgb(0, 0, 0)" stroke="rgb(60, 60, 60)" stroke-width="1px" opacity="0.25"></line><line x1="133.31999984154336" y1="0" x2="133.31999984154336" y2="177.95999908447266" fill="rgb(0, 0, 0)" stroke="rgb(60, 60, 60)" stroke-width="1px" opacity="0.25"></line><line x1="155.53999981513388" y1="0" x2="155.53999981513388" y2="177.95999908447266" fill="rgb(0, 0, 0)" stroke="rgb(60, 60, 60)" stroke-width="1px" opacity="0.25"></line><line x1="177.75999978872446" y1="0" x2="177.75999978872446" y2="177.95999908447266" fill="rgb(0, 0, 0)" stroke="rgb(60, 60, 60)" stroke-width="1px" opacity="0.25"></line><line x1="199.979999762315" y1="0" x2="199.979999762315" y2="177.95999908447266" fill="rgb(0, 0, 0)" stroke="rgb(60, 60, 60)" stroke-width="1px" opacity="0.25"></line><line x1="222.19999973590558" y1="0" x2="222.19999973590558" y2="177.95999908447266" fill="rgb(0, 0, 0)" stroke="rgb(60, 60, 60)" stroke-width="1px" opacity="0.25"></line><line x1="244.41999970949612" y1="0" x2="244.41999970949612" y2="177.95999908447266" fill="rgb(0, 0, 0)" stroke="rgb(60, 60, 60)" stroke-width="1px" opacity="0.25"></line><line x1="266.6399996830867" y1="0" x2="266.6399996830867" y2="177.95999908447266" fill="rgb(0, 0, 0)" stroke="rgb(60, 60, 60)" stroke-width="1px" opacity="0.25"></line><line x1="288.85999965667725" y1="0" x2="288.85999965667725" y2="177.95999908447266" fill="rgb(0, 0, 0)" stroke="rgb(60, 60, 60)" stroke-width="1px" opacity="0.25"></line></g><g><line x1="0" y1="169.23068039506822" x2="288.85999965667725" y2="169.23068039506822" fill="rgb(0, 0, 0)" stroke="rgb(60, 60, 60)" stroke-width="1px" opacity="0.25"></line><line x1="0" y1="160.8365821105062" x2="288.85999965667725" y2="160.8365821105062" fill="rgb(0, 0, 0)" stroke="rgb(60, 60, 60)" stroke-width="1px" opacity="0.25"></line><line x1="0" y1="105.61337517230993" x2="288.85999965667725" y2="105.61337517230993" fill="rgb(0, 0, 0)" stroke="rgb(60, 60, 60)" stroke-width="1px" opacity="0.25"></line><line x1="0" y1="73.30986994390075" x2="288.85999965667725" y2="73.30986994390075" fill="rgb(0, 0, 0)" stroke="rgb(60, 60, 60)" stroke-width="1px" opacity="0.25"></line><line x1="0" y1="50.39016823411367" x2="288.85999965667725" y2="50.39016823411367" fill="rgb(0, 0, 0)" stroke="rgb(60, 60, 60)" stroke-width="1px" opacity="0.25"></line><line x1="0" y1="32.612266430929566" x2="288.85999965667725" y2="32.612266430929566" fill="rgb(0, 0, 0)" stroke="rgb(60, 60, 60)" stroke-width="1px" opacity="0.25"></line><line x1="0" y1="18.08666300570445" x2="288.85999965667725" y2="18.08666300570445" fill="rgb(0, 0, 0)" stroke="rgb(60, 60, 60)" stroke-width="1px" opacity="0.25"></line><line x1="0" y1="5.805440300755237" x2="288.85999965667725" y2="5.805440300755237" fill="rgb(0, 0, 0)" stroke="rgb(60, 60, 60)" stroke-width="1px" opacity="0.25"></line></g></g></g><g><g><line x1="22.219999973590557" y1="0" x2="22.219999973590557" y2="177.95999908447266" fill="rgb(0, 0, 0)" stroke="rgb(153, 153, 153)" stroke-width="1.5px"></line></g></g><g><g><g><g><g><path style="fill: none;" stroke="rgb(187, 187, 187)" stroke-width="2px" d="M22.44219997332646,26.205227401852L22.664399973062366,25.42285701206754L23.10879997253418,28.556617011344912L23.330999972270085,29.081718062728868L23.553199972005988,28.204125100426182L23.775399971741894,30.360884299260448L23.9975999714778,30.990941275568446L24.219799971213707,27.74555443572092L24.441999970949613,30.54969342208986L24.664199970685516,30.33910524395364L24.886399970421422,32.70404929103046L25.10859997015733,31.38705434418111L25.330799969893235,29.553558045727982L25.55299996962914,32.19518427631357L25.775199969365044,34.08688426530094L25.99739996910095,32.6827077356038L26.219599968836857,34.34504029882109L26.441799968572763,35.881318460127034L26.66399996830867,32.02331323153183L26.886199968044572,35.291793328715386L27.10839996778048,32.75117915888114L27.330599967516385,33.31142636898241L27.55279996725229,33.31494464371923L27.774999966988197,34.54204117665125L27.9971999667241,35.634746872350405L28.219399966460006,36.53123755135093L28.441599966195913,35.286041603139466L28.885999965667725,35.932117025984496L29.108199965403628,37.26664971650891L29.330399965139534,36.682358001398285L29.55259996487544,37.96256724553541L29.774799964611347,37.64528131139568L29.996999964347253,37.20539853754215L30.441399963819062,37.8917100338239L30.66359996355497,37.699355596676554L30.885799963290875,36.844661890771334L31.10799996302678,40.1084363208621L31.330199962762684,35.684654020558355L31.774599962234497,37.637366341797815L31.996799961970403,37.72858993686259L32.21899996170631,38.298027548973494L32.441199961442216,40.23633991606826L32.66339996117812,41.69180307825323L32.88559996091403,40.07660512721134L33.32999996038584,38.21377115246216L33.55219996012174,42.22065669776924L33.99659995959355,39.90198532917671L34.21879995932946,39.421613934456246L34.440999959065365,40.943132686556794L34.663199958801265,40.72875564325969L34.88539995853718,41.0170869841491L35.107599958273084,40.194236880426956L35.5519999577449,41.744256377425046L35.774199957480796,41.84444628380598L35.9963999572167,40.32485640302005L36.2185999569526,39.792599241222064L36.44079995668851,44.19127424586691L36.662999956424414,43.528218812766994L36.88519995616032,39.35622809096938L37.10739995589623,43.924734476996434L37.32959995563213,42.61287269215123L37.55179995536805,40.807959427566715L37.77399995510395,43.42010336805407L38.218399954575766,41.987031754760835L38.44059995431166,44.12959064841789L38.662799954047564,42.990132749020006L38.88499995378347,43.996925994649274L39.10719995351938,46.157584381748876L39.32939995325528,41.332951328194866L39.55159995299119,41.88242876771622L39.773799952727096,46.47162164674765L39.995999952463,43.88343776016853L40.44039995193482,44.59887456663719L40.662599951670714,45.74024978240507L41.10699995114253,42.99529995735327L41.32919995087843,45.32736260938296L41.55139995061434,44.346321958419736L41.773599950350246,45.68502781715054L41.99579995008615,44.06238417819105L42.21799994982206,43.49725647273712L42.66239994929387,44.35686937049792L42.88459994902977,48.44961202854856L43.106799948765676,48.13691925124556L43.32899994850158,48.08368347278761L43.55119994823749,47.36790275329929L43.773399947973395,47.43393077247296L43.9955999477093,48.889427937579256L44.439999947181114,50.082467009893406L44.66219994691702,45.83981943376287L44.88439994665292,47.56158632693678L45.106599946388826,47.11644045003908L45.32879994612473,48.75985202275814L45.55099994586064,48.76149903534841L45.773199945596545,50.667066919899995L45.99539994533245,50.251379729045695L46.21759994506836,49.78295232113982L46.439799944804264,49.57237695259258L46.66199994454017,52.259638015131245L46.88419994427608,44.88118014662794L47.106399944011976,44.10654730918773L47.32859994374788,55.66840726507961L47.55079994348379,52.23464915074422L47.772999943219695,49.171143997814994L47.9951999429556,52.65034285223838L48.21739994269151,51.70199112318252L48.439599942427414,47.49675299501317L48.66179994216332,46.486731606542264L48.883999941899226,50.54328569032134L49.10619994163513,49.268505017612796L49.32839994137103,50.82448511451264L49.55059994110694,50.45901637685674L49.772799940842845,47.50848615331353L49.99499994057875,46.75590816227563L50.21719994031466,50.319320398299965L50.43939994005056,48.78380684735839L50.66159993978647,47.98181512708064L51.10599993925828,52.65556547620804L51.32819993899419,53.21868625745424L51.55039993873009,54.85489786153033L51.9947999382019,52.20693773914991L52.21699993793781,49.06726940280328L52.66139993740962,50.070982398068764L52.883599937145526,51.923206864078736L53.32799993661734,54.52781123418198L53.772399936089144,51.83498050274477L53.99459993582505,51.03807977531136L54.21679993556096,57.399708555897064L54.43899993529686,54.19396753466573L54.66119993503277,50.67599273298332L54.883399934768676,57.05438637330934L55.32779993424049,56.01769333773839L55.549999933976395,57.20815003401391L55.7721999337123,58.02513157058175L55.9943999334482,58.78778275721149L56.43879993292001,60.00301490035554L56.66099993265592,60.10794461869699L56.883199932391825,60.360196997865486L57.10539993212773,55.66569273209224L57.32759993186364,57.338139595150224L57.549799931599544,61.16240734698404L57.77199993133545,52.03971753173313L58.216399930807256,53.3064149651737L58.43859993054316,50.537281507290785L58.882999930014975,64.35111867644027L59.10519992975088,60.193961122575075L59.549599929222694,57.08919273918218L59.7717999289586,54.62276300497247L59.99399992869451,56.009605961737236L60.43839992816631,56.504567484302825L60.66059992790222,57.86152263796333L60.882799927638125,61.94384644382785L61.32719992710994,57.61633972033552L61.549399926845844,61.48171783835815L61.77159992658175,55.93560409483628L61.99379992631766,62.94617944128825L62.43819992578946,56.673657328376336L62.66039992552537,64.19360829810955L62.882599925261275,60.03749907807622L63.10479992499718,54.16058230591108L63.32699992473309,59.39316422841945L63.549199924468994,58.38792570977695L63.7713999242049,58.12543017734477L63.993599923940806,53.89513927410765L64.21579992367671,56.37001728957259L64.43799992341262,58.10030052772396L64.66019992314853,61.41664073479188L64.88239992288443,64.54434889648294L65.54899992209215,66.01845383015171L66.43779992103578,61.39585432618448L66.65999992077168,61.38183256193973L66.88219992050757,63.679610424802235L67.10439992024348,56.370759527849856L67.32659991997939,61.141654546086926L67.5487999197153,60.909546229738424L67.9931999191871,64.4333919922416L68.21539991892301,58.4874260087727L68.43759991865892,59.488110284723575L68.65979991839482,58.009161552047786L68.88199991813073,64.95591792664902L69.54859991733845,59.470359483063945L69.77079991707436,65.04674629478271L69.99299991681026,62.22920651286091L70.21519991654617,61.853902822432346L70.43739991628208,63.048141269932174L70.65959991601798,74.03450447455641L70.88179991575389,65.72162008397544L71.1039999154898,64.59714393337224L71.32619991522569,59.857023188298825L71.54839991496159,63.74048198984045L71.7705999146975,60.932059927396494L71.9927999144334,65.9144275163311L72.4371999139052,59.86446243431162L72.65939991364112,65.6155888667637L72.88159991337702,61.70811734268955L73.32599991284883,70.48365905098548L73.54819991258475,63.219030132514305L73.77039991232064,62.23916832207429L73.99259991205656,57.87622153652164L74.21479991179245,64.91644028146409L74.43699991152836,60.097258757371506L74.65919991126427,67.19094673028668L75.1035999107361,60.69217814210204L75.32579991047199,64.84209235876128L75.7701999099438,78.34628008555072L75.99239990967972,67.73400388792165L76.21459990941561,68.85958961678385L76.65899990888742,64.41062571664061L76.88119990862332,71.95837088762606L77.10339990835924,64.98302667200842L77.32559990809513,64.19047989917262L77.54779990783105,64.39784094493228L77.76999990756694,65.39486178419375L77.99219990730286,63.94240650051479L78.21439990703875,63.64385007733718L78.43659990677467,65.19783890283962L78.65879990651057,69.48542066834472L78.88099990624647,67.6756677351729L79.10319990598238,66.5676693930318L79.32539990571829,70.95696828081454L79.7697999051901,69.57138536260138L79.991999904926,69.72111652009944L80.21419990466191,71.22395257028302L80.43639990439782,71.18445632294848L80.88079990386964,63.229819455549574L81.10299990360554,64.26413150688076L81.32519990334143,66.13947091193232L81.76959990281324,72.82807493600178L82.21399990228505,66.27621706599949L82.65839990175687,69.31462416041427L82.88059990149279,70.95398686469473L83.10279990122868,65.64689113089231L83.32499990096458,64.82006274940983L83.54719990070049,66.81992288997816L83.9915999001723,71.12825803460105L84.21379989990821,70.63896741314498L84.43599989964412,74.2892635319888L84.65819989938002,66.09356697951833L84.88039989911593,69.62064385390778L85.10259989885184,69.99729706609804L85.32479989858774,76.46509327708239L85.54699989832365,66.96052069070623L86.21359989753135,74.56292455128442L86.65799989700317,72.78932930462136L87.10239989647498,69.1379258080499L87.3245998962109,71.22434115522097L87.7689998956827,70.63339579019485L87.9911998954186,77.01282422301709L88.21339989515451,78.87511744783451L88.43559989489042,67.82730654861085L88.65779989462632,69.16386914679215L88.87999989436223,74.95132015683065L89.10219989409813,64.08888502755411L89.32439989383404,65.14118702110343L89.54659989356995,68.13391509115792L89.76879989330584,67.08436028194983L89.99099989304176,78.40420526670417L90.65759989224946,71.67461910204412L90.87979989198539,74.54784295426003L91.10199989172128,67.57891862530194L91.3241998914572,68.4560522740126L91.54639989119309,73.29655565469504L91.9907998906649,74.24953182555417L92.21299989040081,71.21545968718316L92.43519989013672,74.46582848126525L92.65739988987262,71.21963508737899L92.87959988960853,65.00379499422075L93.10179988934443,71.1616616255683L93.32399988908034,70.6087567453542L93.54619988881625,74.57497258590433L93.76839988855215,77.01433652782198L93.99059988828806,79.3034967513869L94.21279988802395,69.73566864101937L94.43499988775987,73.53268710721409L94.65719988749576,71.55439668248765L94.87939988723168,73.1687302095735L95.10159988696758,82.365567855303L95.3237998867035,73.62074416297983L95.54599988643939,75.23703052811126L95.76819988617531,76.53340104127642L95.9903998859112,65.50729883283591L96.43479988538301,73.93923051478147L96.87919988485483,74.69415518974542L97.10139988459073,78.50211592366146L97.32359988432664,79.62017747250776L97.54579988406255,67.27232729585285L97.76799988379845,74.69444510712717L97.99019988353436,72.53451102966832L98.21239988327027,70.16805542283181L98.43459988300617,79.1485805928987L98.65679988274206,85.0530069033317L98.87899988247798,69.4996762881127L99.10119988221388,74.41467005629757L99.3233998819498,70.5583882588918L99.54559988168569,79.78920672905707L99.76779988142161,77.94714614986658L99.9899998811575,72.3954255479598L100.21219988089342,68.73766080054601L100.43439988062931,71.57537728878727L100.65659988036523,77.87030760359603L100.87879988010113,75.65633910264576L101.10099987983703,80.82735397824699L101.32319987957294,77.46943575998559L101.54539987930885,81.98026490661677L101.76759987904475,74.8689217802219L101.98979987878066,72.38980483708228L102.21199987851656,72.45110326613276L102.43419987825247,70.88508270109313L102.65639987798838,72.71587257191312L102.87859987772428,73.7953734533214L103.10079987746018,75.81565331127331L103.3229998771961,78.12593560472668L103.54519987693199,69.23613073969594L103.76739987666791,71.93931807144499L103.9895998764038,76.62356597204759L104.21179987613972,74.89205319814788L104.65619987561153,72.8570552419964L104.87839987534743,88.53726241720197L105.10059987508333,79.13196525395598L105.32279987481924,84.01916433151116L105.54499987455515,71.78376719136298L105.76719987429105,86.13394759289942L105.98939987402696,73.26116932939762L106.21159987376286,72.65443296619281L106.43379987349877,73.38648140780262L106.65599987323468,77.20053603596678L106.87819987297058,86.43052219580059L107.10039987270649,78.33725605101306L107.3225998724424,72.63852795582673L107.76699987191421,82.09442941520504L107.9891998716501,84.87144288768113L108.21139987138602,79.92810399902962L108.43359987112191,83.51083255994493L108.65579987085783,74.44559494876272L108.87799987059373,71.73384864241498L109.10019987032965,80.89861644604589L109.32239987006554,78.61690224774576L109.54459986980144,78.23801865915986L109.76679986953735,85.62790370656471L110.21119986900916,72.32730897619683L110.43339986874507,75.28612361966786L110.65559986848098,89.74353306867572L110.87779986821688,80.17232087627188L111.09999986795279,84.73913285955337L111.5443998674246,84.30439439497763L111.76659986716051,85.5638038095111L111.9887998668964,78.36583566755584L112.21099986663232,78.50553554921011L112.43319986636821,79.82565705625443L112.65539986610413,86.68008392220652L113.09979986557595,76.49720677766621L113.54419986504776,78.05366874561163L113.76639986478365,81.93541392703426L113.98859986451956,80.04340080866116L114.43299986399137,79.69291276318465L114.65519986372728,87.81583509717103L114.87739986346318,79.93164730680796L115.321799862935,86.15641169920985L115.5439998626709,81.66242110849736L115.76619986240681,77.38799142323755L115.9883998621427,85.58558327263614L116.21059986187862,76.26342489858082L116.43279986161451,71.16821335446593L116.65499986135043,84.801380218053L116.87719986108632,77.40598002340266L117.09939986082225,71.6765978800819L117.54379986029406,78.96216848811284L117.98819985976587,77.97030951128374L118.43259985923767,83.8988257305726L119.09919985844539,83.5292001726742L119.3213998581813,75.1750163807082L119.7657998576531,84.26329407705381L119.98799985738901,87.50593388126147L120.21019985712492,89.42075552943543L120.43239985686081,84.88891144037011L120.65459985659673,87.42377288785306L121.09899985606855,94.72501327100672L121.32119985580444,90.01564736044392L121.54339985554036,88.50296050043825L121.76559985527625,81.09161707636068L121.98779985501217,80.54671859062472L122.20999985474806,75.15335781920543L122.43219985448398,85.73913152419365L122.65439985421988,90.4810852248388L122.87659985395578,92.08114663653254L123.09879985369169,81.98644227524493L123.3209998534276,83.31519832001459L123.5431998531635,81.60989929450155L123.98759985263531,88.91842652813162L124.20979985237122,84.4955101103644L124.43199985210713,87.52134093672633L124.65419985184303,85.22452165658336L124.87639985157892,91.07955372514118L125.09859985131484,82.64712114917869L125.32079985105074,90.64830985032408L125.54299985078666,83.71293642269042L125.76519985052255,85.9776776136363L125.98739985025847,84.46385141318629L126.20959984999436,79.30342166181235L126.43179984973028,84.30436532078129L126.65399984946617,90.77827929376724L126.8761998492021,87.30686382829643L127.09839984893799,86.88652606617897L127.3205998486739,81.90858598614614L127.5427998484098,83.28688274535553L127.7649998481457,91.06978089075331L127.98719984788161,86.66724957204907L128.43159984735343,81.23262382715554L128.65379984708932,92.34867216476205L129.32039984629705,87.45290221203042L129.54259984603294,89.93095979935958L129.76479984576886,88.8819970254551L129.98699984550476,99.07486159452586L130.20919984524068,84.79114122897015L130.43139984497657,86.61629948143796L130.6535998447125,95.47029141416388L130.87579984444838,83.2073586972736L131.0979998441843,85.90155582329785L131.3201998439202,86.28661992473712L131.5423998436561,89.73684851655894L131.764599843392,89.14138561938499L131.98679984312793,83.86137462251884L132.65339984233563,94.82927222454806L132.87559984207155,83.29004038438414L133.31999984154336,87.49379800425864L133.98659984075107,92.15353637267107L134.20879984048696,86.12553634068139L134.43099984022288,86.74899344740726L134.65319983995877,85.52917867229903L134.8753998396947,85.02339225113656L135.0975998394306,88.72230739779893L135.3197998391665,92.55096149069217L135.5419998389024,81.8002797422872L135.7641998386383,85.81439448107285L135.9863998383742,98.54332794592212L136.2085998381101,90.11913343312573L136.65299983758192,85.98449205689728L136.87519983731784,87.57888644545942L137.09739983705373,78.95976913207501L137.31959983678965,101.89225238040024L137.54179983652554,84.73346911187146L137.76399983626146,99.82311480316616L137.98619983599735,101.87576659554058L138.43059983546917,89.30743646653356L138.65279983520506,89.65394133603876L138.87499983494098,94.28114860377113L139.0971998346769,97.8657263420746L140.43039983309234,87.9780852291272L140.87479983256415,92.12983750752048L141.09699983230004,98.1845929319546L141.31919983203596,84.57345750592431L141.54139983177186,86.07532528866875L141.76359983150778,90.22461744012028L141.98579983124367,104.04803476623789L142.2079998309796,99.43797970937796L142.43019983071548,83.43431283652481L142.65239983045137,93.83384461595895L142.8745998301873,93.4084370869782L143.09679982992319,97.49311538880737L143.3189998296591,84.99914826977827L143.541199829395,80.8712650606571L143.76339982913092,93.07762123888195L143.9855998288668,86.63080949123943L144.20779982860273,86.66379797885809L144.42999982833862,92.02488538782602L144.8743998278104,88.16475651043056L145.09659982754636,91.6247784553645L145.31879982728225,110.34370640072562L145.76319982675403,85.66893786392545L145.98539982648998,94.18662187151348L146.20759982622587,89.26565342860273L146.42979982596177,96.40868761176317L146.65199982569766,87.52538237675223L146.87419982543358,99.92728172974495L147.0963998251695,96.72176428463725L147.3185998249054,88.93551124146718L147.54079982464128,101.75739394774675L147.7629998243772,88.38944651027796L147.98519982411312,92.97620349199968L148.20739982384902,101.40084128492555L148.4295998235849,87.60782253124736L148.65179982332083,103.35525153202293L148.87399982305672,78.28936080106105L149.09619982279264,86.29564439994577L149.31839982252853,100.1924532187364L149.54059982226445,91.07650700443675L149.76279982200035,95.67665048275296L149.98499982173627,98.01239894756272L150.42939982120808,91.33091737650626L150.65159982094397,84.5852149140431L150.8737998206799,98.94550609405938L151.0959998204158,98.23231372762793L151.3181998201517,98.05208705480545L151.5403998198876,98.35024101480656L151.7625998196235,99.1727454918175L151.98479981935944,97.6502315131345L152.20699981909533,93.53349991206628L152.42919981883122,98.02587652499993L152.6513998185671,97.79110937558161L152.87359981830306,95.40515229048341L153.09579981803896,102.62610193398606L153.31799981777485,86.64729079942416L153.76239981724663,94.3263067626981L153.98459981698258,90.73273159170525L154.20679981671847,92.29910811360519L154.42899981645436,91.04807128784473L154.65119981619026,104.5350446445287L154.8733998159262,91.12355819816804L155.0955998156621,87.9047283544882L155.317799815398,88.57249166244084L155.53999981513388,100.15784831615007L155.7621998148698,81.37062283955838L155.98439981460572,95.53720785890815L156.20659981434162,91.33526791339696L156.4287998140775,94.04948964034467L156.65099981381343,98.68331403191222L156.87319981354935,97.769778480568L157.09539981328524,81.99764041816852L157.53979981275705,94.12269611747514L157.76199981249295,89.66889869187524L157.98419981222887,105.98305008919716L158.20639981196476,90.03392189692167L158.42859981170068,88.90803730144856L158.65079981143657,101.62533797535514L159.09519981090838,91.46501192533027L159.983999809852,87.04665952466841L160.20619980958793,98.76324235386862L160.42839980932382,101.49762222078343L160.6505998090597,96.91544428814767L160.87279980879563,90.42171956500445L161.09499980853155,93.01115719235429L161.31719980826745,91.0886075256183L161.53939980800334,96.0883666084272L162.20599980721107,92.75952018319462L162.42819980694696,103.00670301078496L162.65039980668286,99.24694981631639L162.8725998064188,97.50876159267123L163.3169998058906,84.89766912187002L163.53919980562648,95.14264536222711L163.76139980536243,104.31336516132659L164.20579980483421,104.73464532394084L164.4279998045701,102.74397766379883L164.65019980430603,94.13598371353L164.87239980404195,101.24538358351306L165.09459980377784,107.08493774492564L165.31679980351373,102.5749723434984L165.53899980324965,93.98995011051464L165.76119980298557,101.85758090479293L165.98339980272146,97.84959633548455L166.20559980245736,99.93976049278334L166.42779980219328,106.48985319767452L166.64999980192917,93.13600348222842L166.8721998016651,94.20164018326864L167.09439980140098,105.64370625043932L167.3165998011369,101.46237375090438L167.5387998008728,87.44571150302006L168.20539980008053,103.06010642891579L168.42759979981642,93.58429544184034L168.6497997995523,103.98144920189L168.87199979928823,103.24246069324336L169.09419979902415,99.34110390497828L169.31639979876005,98.87634685482921L169.53859979849594,106.62999515832954L169.76079979823186,99.10667970877377L169.98299979796778,98.22274823824709L170.20519979770367,93.36585648962144L170.42739979743956,94.72381206666223L170.64959979717548,106.19945630597529L170.8717997969114,110.03116892149225L171.0939997966473,94.92093578178896L171.53839979611908,105.0263508594255L171.76059979585503,99.55914132470728L171.98279979559092,97.25878175775412L172.2049997953268,102.76637142183688L172.4271997950627,104.65825842158775L172.64939979479865,102.42440805209891L172.87159979453455,95.15100688243776L173.09379979427044,97.9450969940916L173.31599979400633,94.95199283740591L173.53819979374225,96.17686778127027L173.76039979347817,106.49705059253851L173.98259979321406,98.87708868186407L174.20479979294996,96.05565887944826L174.42699979268588,105.78198570111326L174.6491997924218,102.10447926776261L174.8713997921577,103.09041002702727L175.09359979189358,105.88550398571442L175.3157997916295,94.38386282095358L175.5379997913654,105.76489400626868L175.76019979110131,90.63333276134986L175.9823997908372,86.54193507992215L176.20459979057313,102.45796695985794L176.64899979004494,113.26049061834946L177.09339978951675,93.50144894288391L177.75999978872446,97.27590456076642L177.98219978846038,92.67918167401326L178.20439978819627,95.54113307076315L178.42659978793216,101.25111089398483L178.64879978766808,96.65783500700643L178.870999787404,96.97877963031449L179.0931997871399,98.40981679129324L179.3153997868758,95.90296469160916L179.53759978661168,111.94746795192684L179.75979978634763,107.46418398067814L179.98199978608352,111.09768618023053L180.2041997858194,100.26478083334673L180.4263997855553,117.68551974013496L180.64859978529125,93.62014610822513L181.09299978476304,108.4417800279554L181.31519978449893,106.80531391346072L181.53739978423488,103.40330023520671L181.98179978370666,115.11972864936602L182.20399978344255,108.0035820702769L182.42619978317848,108.7267432268192L182.6483997829144,117.98810906286141L182.8705997826503,118.83722693659476L183.09279978238618,105.49451801837176L183.3149997821221,111.58517266655282L183.53719978185802,108.82974158509727L183.7593997815939,95.83572366380228L184.20379978106573,113.49037583120813L184.42599978080162,109.86398511110562L184.64819978053754,96.27601708642544L184.87039978027343,98.48781223445141L185.09259978000935,102.56142498103067L185.53699977948116,102.33498060185696L185.75919977921706,98.48938421297265L185.98139977895298,118.05766700253128L186.20359977868887,106.74694223696712L186.42579977842476,98.0348916289168L186.64799977816068,105.35825563090897L186.8701997778966,105.75977482465893L187.0923997776325,108.7643299790986L187.3145997773684,119.85405472310273L187.5367997771043,107.85815749935827L187.75899977684023,102.69253434851393L187.98119977657612,112.4769648072535L188.203399776312,90.16998805026638L188.4255997760479,103.58641484634606L188.86999977551974,103.44729255787578L189.09219977525564,108.3962701255927L189.31439977499153,108.94753380436511L189.53659977472748,108.08707197655617L189.75879977446337,97.76325467419171L189.98099977419926,103.18430105408935L190.20319977393515,97.4128396898498L190.42539977367107,102.66701277031311L190.647599773407,112.13413891755282L191.09199977287878,114.49377963122316L191.3141997726147,118.05326476817226L191.7585997720865,108.00291657843204L191.9807997718224,125.0573113909258L192.20299977155832,106.3878727835539L192.42519977129425,97.54026061184906L192.64739977103014,108.70506852426425L192.86959977076603,114.81709496559466L193.09179977050195,103.54754642262351L193.31399977023784,104.56825796959167L193.53619976997376,105.40393786877264L193.75839976970965,111.40168676952752L193.98059976944558,102.19089145031411L194.20279976918147,102.4762080528975L194.4249997689174,101.06974532735485L194.64719976865328,113.09966843665175L194.8693997683892,104.79299881067342L195.31379976786098,105.03974876457588L195.5359997675969,113.59042342492984L195.75819976733283,82.73732612636908L195.98039976706872,121.20053289150084L196.2025997668046,106.90881502505493L196.42479976654053,110.40102277209841L196.64699976627645,93.1870011760226L196.86919976601234,110.76936930792546L197.09139976574824,106.02316355007896L197.31359976548413,109.7093786012356L197.53579976522008,105.17080114629526L197.75799976495597,92.11109192734108L197.98019976469186,105.18827598119253L198.20239976442775,114.92262371098136L198.4245997641637,111.39020802889749L198.6467997638996,130.50566991816424L198.8689997636355,115.46826367841751L199.09119976337138,117.75908904207219L199.31339976310727,108.95855202112608L199.53559976284322,101.10323193515006L199.7577997625791,103.07599276137708L199.979999762315,102.84090989750898L200.20219976205092,123.09980508153593L200.64659976152274,110.54904122016426L200.86879976125863,113.16931401739569L201.09099976099455,116.5296031242072L201.31319976073047,110.78508621174116L201.53539976046636,121.4017126566032L201.75759976020225,114.32911610574659L201.97979975993817,112.15290587018367L202.20199975967407,121.93798249606189L202.64639975914588,109.85326166387077L202.8685997588818,109.0710249572032L203.0907997586177,100.93296616748742L203.3129997583536,111.38048200973547L203.5351997580895,112.23739384475559L203.75739975782543,112.9953219015578L203.97959975756132,119.89998689467802L204.2017997572972,117.896032002628L204.42399975703313,112.351407069868L204.64619975676905,120.06626714557714L204.86839975650494,107.86848871536831L205.09059975624083,121.87431301768021L205.31279975597676,112.6720056992914L205.53499975571268,112.98786710695809L205.75719975544857,102.31319980445524L205.97939975518446,112.58059273613026L206.4237997546563,116.33892536619172L206.6459997543922,124.40797752403424L206.86819975412809,117.86778163855362L207.09039975386398,101.63138176670692L207.31259975359993,108.24812501169431L207.53479975333582,116.71354897144182L207.7569997530717,118.53155798359069L207.9791997528076,102.85319297502451L208.2013997525435,109.63259225833326L208.42359975227944,106.55506161018647L208.64579975201534,116.33443236933118L208.86799975175123,114.53516074197073L209.09019975148712,104.79199300216827L209.53459975095896,128.09126159363703L209.75679975069485,117.62850439131472L210.20119975016667,120.2135227260159L210.4233997499026,106.37556949280169L210.64559974963848,119.70941681928953L210.86779974937437,117.19230500723323L211.3121997488462,107.161102682916L211.5343997485821,117.01263759697804L211.75659974831802,128.00365470954486L211.97879974805392,103.81541870545087L212.42319974752573,120.84647648570362L212.86759974699754,129.18637932251963L213.31199974646935,104.35802195805681L213.53419974620527,104.2975665011087L213.75639974594117,113.74024435008504L213.97859974567706,113.6186512440564L214.20079974541298,119.550536369392L214.6451997448848,92.52978746462877L214.86739974462068,105.75901839355987L215.08959974435658,124.50536742101644L215.31179974409253,96.10056172003388L215.53399974382842,113.99868037396169L215.7561997435643,131.88467553685416L215.9783997433002,114.05442254871011L216.42279974277204,116.07800217430511L216.64499974250793,122.2295782024386L216.86719974224383,120.90854123901457L217.08939974197972,115.84422690543L217.31159974171567,130.2577030857896L217.53379974145156,116.18517211753317L217.75599974118745,112.51256782280467L217.97819974092334,117.82463884861195L218.2003997406593,125.40649297171433L218.42259974039519,121.1517441829803L218.64479974013108,118.08615139556375L218.86699973986697,105.61208353182175L219.0891997396029,113.06294180567609L219.3113997393388,117.70420415214588L219.5335997390747,113.8428705285467L219.7557997388106,123.4931117794508L219.97799973854652,132.03442222262123L220.20019973828244,99.05650807739165L220.42239973801833,124.32696317245934L220.64459973775422,122.81203090464678L220.86679973749014,132.07371825071678L221.08899973722603,113.90812578855729L221.31119973696195,112.14734387618948L221.53339973669785,107.59856372196371L221.75559973643377,118.96234695102815L221.97779973616966,111.67719218422233L222.19999973590558,114.24997076019858L222.4221997356415,112.40935408750494L222.86659973511328,134.7877121948118L223.0887997348492,120.16982653445842L223.31099973458512,122.34589613903992L223.53319973432102,122.82255041714785L223.7553997340569,130.81373194465036L223.9775997337928,122.06196578256392L224.19979973352875,132.69800634396108L224.42199973326464,114.89762233974055L224.64419973300053,112.44819685249844L224.86639973273643,113.1511622031039L225.08859973247237,127.7881410070982L225.31079973220827,119.96482090300213L225.75519973168005,117.37629743402384L225.97739973141594,115.88856298290997L226.1995997311519,113.61240844913914L226.42179973088778,116.10905941406736L226.86619973035957,108.71201464904671L227.08839973009552,112.72069005716878L227.3105997298314,112.22224946068611L227.5327997295673,105.37758973268804L227.7549997293032,119.83683485481941L227.9771997290391,121.78407555899079L228.42159972851093,119.39657881392498L228.64379972824682,110.74315096916L229.08819972771866,106.02471963009674L229.31039972745455,119.51760522248676L229.53259972719044,129.31562108675146L229.75479972692636,132.85047413600722L229.97699972666226,126.08332090992617L230.19919972639818,107.24126627093973L230.64359972587,118.91115533719949L230.86579972560588,109.50182069665289L231.0879997253418,110.82824510705164L231.53239972481362,104.6091845032548L231.7545997245495,111.57943521004704L231.9767997242854,110.56013664409654L232.19899972402132,107.36095440190492L232.42119972375724,119.87898555779562L232.86559972322902,114.49938046147125L233.08779972296495,126.63067749776916L233.30999972270087,115.97200372674452L233.75439972217265,112.10831774544467L233.9765997219086,124.80270024173893L234.1987997216445,131.37628018769024L234.42099972138038,120.90962870900793L234.64319972111628,127.48740038632803L234.86539972085217,128.03723613587266L235.08759972058812,135.2954890555147L235.309799720324,119.63704898770014L235.5319997200599,134.9726025340771L235.7541997197958,124.412498775166L235.97639971953174,118.55717884877461L236.19859971926763,140.09555756913772L236.42079971900353,133.02958475949399L236.64299971873942,126.16664601798257L236.86519971847534,123.02226601197933L237.08739971821126,143.01570271831767L237.30959971794715,110.48731198773949L237.75399971741896,128.47531544034092L238.19839971689078,117.65298030999264L238.42059971662667,119.09134741901654L238.86499971609848,124.76667394694057L239.0871997158344,119.51722073856993L239.3093997155703,123.31017931591998L239.5315997153062,112.03209852985454L239.7537997150421,126.26761412134624L239.97599971477803,131.84407334139516L240.19819971451392,117.89398766949245L240.42039971424984,109.42256901397906L240.64259971398573,111.73323028320118L240.86479971372162,137.34501493375512L241.08699971345754,119.68747971572591L241.30919971319346,111.09737077935145L241.53139971292936,122.07729115657312L241.75359971266525,111.74929237290522L241.97579971240117,102.03618332476518L242.1979997121371,118.29694676689672L242.42019971187298,112.67253494279525L242.64239971160887,119.51870779694985L242.8645997113448,122.44100733966707L243.3089997108166,127.07413002818697L243.7533997102884,124.74567216671346L243.97559971002434,108.18972190824145L244.41999970949612,112.89288087067982L244.64219970923202,104.93043451267371L244.86439970896797,127.82967708066644L245.08659970870386,105.29361231131173L245.30879970843975,118.47790207577209L245.53099970817564,123.70119138747702L245.75319970791156,118.17002014345849L246.19759970738338,125.66751506432956L246.41979970711927,130.2809538261755L246.6419997068552,112.11427375302176L247.086399706327,137.84562216707783L247.3085997060629,127.44032136463782L247.5307997057988,118.63323537161938L247.7529997055347,118.93001719144019L248.19739970500652,134.1949531792289L248.41959970474244,125.12569437263177L248.64179970447833,122.74748860176098L248.86399970421425,119.16317600504237L249.08619970395014,122.29688128441069L249.30839970368606,114.59523956152745L249.53059970342196,120.9025978160731L249.75279970315785,122.93441421693758L249.97499970289377,118.51305263430459L250.1971997026297,109.55222254366416L250.41939970236558,124.57459146891034L250.64159970210147,132.1877122177963L251.08599970157331,120.86568142771232L251.3081997013092,119.58791780828898L251.5303997010451,129.55704482576616L251.752599700781,120.82497129576441L251.97479970051694,119.76139632888274L252.19699970025283,145.1641129184593L252.41919969998872,142.651522785518L252.64139969972462,122.413321050266L252.86359969946056,122.60511153813111L253.08579969919646,119.01182413500447L253.30799969893235,129.15038307390566L253.53019969866824,120.80056439146549L253.7523996984042,125.24398862379135L253.97459969814008,121.33819824637851L254.19679969787597,124.52384336338622L254.41899969761187,137.55654708302944L254.6411996973478,122.40377001723782L255.0855996968196,124.22100936940092L255.3077996965555,125.82633909173678L255.5299996962914,133.35005058159285L255.75219969602733,122.38775452565102L255.97439969576322,130.73649566342624L256.1965996954991,128.28133715621126L256.6409996949709,138.190981933905L256.86319969470685,109.04866144442896L257.08539969444274,144.20202407925012L257.30759969417863,119.16811287076649L257.5297996939145,126.74353971413728L258.19639969312226,132.0799009667278L258.41859969285815,123.71165017394355L258.6407996925941,134.7560910419533L258.86299969233,138.1618249642154L259.0851996920659,149.5818570669745L259.3073996918018,131.34443625425038L259.5295996915377,128.52721401553202L259.7517996912736,118.18704470797384L259.9739996910095,140.47663105972123L260.1961996907454,119.93767479717064L260.41839969048135,120.50509743775106L260.64059969021724,120.79141732050478L260.86279968995314,140.71870514197332L261.084999689689,120.1316754059032L261.307199689425,122.39568566063207L261.52939968916087,130.45872609196033L261.75159968889676,129.36171684068182L261.97379968863265,130.80927547296372L262.1959996883686,112.7756436122589L262.4181996881045,134.3475026470527L262.6403996878404,125.68628085005867L262.8625996875763,120.85519863554408L263.0847996873122,117.75003571145085L263.3069996870481,125.53579645174756L263.529199686784,128.5225417590959L263.7513996865199,125.08103291478582L264.19579968599174,112.48276726721105L264.64019968546353,138.62768132426694L264.8623996851995,123.87293091119412L265.08459968493537,131.35671571959938L265.30679968467126,139.52836453462348L265.52899968440715,127.39062995823048L265.973399683879,115.6197068005803L266.4177996833508,115.4813289160349L266.6399996830867,110.50054972007466L266.8621996828226,130.51993697783072L267.0843996825585,123.06147242116131L267.5287996820303,131.77081069420967L267.75099968176625,134.4571191914714L267.97319968150214,131.7034922277666L268.19539968123803,121.46535306552073L268.4175996809739,118.48769712341259L268.63979968070987,149.72938656332067L268.86199968044576,139.33948817954544L269.08419968018165,135.63361500446075L269.30639967991755,132.95950794334138L269.52859967965344,136.64791159470542L269.9729996791253,134.59973107573921L270.1951996788612,151.63464447581143L270.41739967859706,130.9382359765081L270.8617996780689,140.093266269352L271.0839996778048,122.01426290104145L271.3061996775407,126.88227046274571L271.5283996772766,134.6112926538232L271.75059967701253,148.94846581478987L271.9727996767484,135.17200195304974L272.1949996764843,130.1261953301416L272.4171996762202,113.15467530312918L272.63939967595616,142.6960363249051L272.86159967569205,143.7406573538198L273.08379967542794,129.6313866029085L273.30599967516383,128.23252520756031L273.5281996748998,143.90938940480822L273.7503996746357,137.55954660354934L273.97259967437157,123.15078421574412L274.19479967410746,134.32323197212813L274.41699967384335,136.48709846037895L274.6391996735793,144.12432140785694L275.0835996730511,128.93485463358792L275.305799672787,130.93834691317426L275.5279996725229,152.53714207240515L275.7501996722588,135.39467897404776L275.9723996719947,140.89186382628736L276.1945996717306,118.39217565909243L276.4167996714665,115.59152542703914L276.63899967120244,139.4680505555664L276.86119967093833,130.3808545254875L277.0833996706742,135.41792528632843L277.3055996704101,123.29695683260425L277.74999966988196,120.7400649877577L277.97219966961785,130.8586689306647L278.1943996693538,117.16195900371162L278.4165996690897,119.65311560853789L278.6387996688256,136.69755452362682L278.8609996685615,126.77430248126745L279.0831996682974,132.63940608214003L279.3053996680333,147.2284907338032" fill="none"></path></g></g></g></g></g></g><g transform="translate(41, 177)" clip-path="url(#clip_1)"><clipPath id="clip_1"><rect width="288" height="22"></rect></clipPath><g><g><line x1="0" y1="0" x2="0" y2="5" style="visibility: inherit;" fill="rgb(0, 0, 0)" stroke="rgb(204, 204, 204)" stroke-width="1px"></line><line x1="22.219999973590557" y1="0" x2="22.219999973590557" y2="5" style="visibility: inherit;" fill="rgb(0, 0, 0)" stroke="rgb(204, 204, 204)" stroke-width="1px"></line><line x1="44.439999947181114" y1="0" x2="44.439999947181114" y2="5" style="visibility: inherit;" fill="rgb(0, 0, 0)" stroke="rgb(204, 204, 204)" stroke-width="1px"></line><line x1="66.65999992077168" y1="0" x2="66.65999992077168" y2="5" style="visibility: inherit;" fill="rgb(0, 0, 0)" stroke="rgb(204, 204, 204)" stroke-width="1px"></line><line x1="88.87999989436223" y1="0" x2="88.87999989436223" y2="5" style="visibility: inherit;" fill="rgb(0, 0, 0)" stroke="rgb(204, 204, 204)" stroke-width="1px"></line><line x1="111.09999986795279" y1="0" x2="111.09999986795279" y2="5" style="visibility: inherit;" fill="rgb(0, 0, 0)" stroke="rgb(204, 204, 204)" stroke-width="1px"></line><line x1="133.31999984154336" y1="0" x2="133.31999984154336" y2="5" style="visibility: inherit;" fill="rgb(0, 0, 0)" stroke="rgb(204, 204, 204)" stroke-width="1px"></line><line x1="155.53999981513388" y1="0" x2="155.53999981513388" y2="5" style="visibility: inherit;" fill="rgb(0, 0, 0)" stroke="rgb(204, 204, 204)" stroke-width="1px"></line><line x1="177.75999978872446" y1="0" x2="177.75999978872446" y2="5" style="visibility: inherit;" fill="rgb(0, 0, 0)" stroke="rgb(204, 204, 204)" stroke-width="1px"></line><line x1="199.979999762315" y1="0" x2="199.979999762315" y2="5" style="visibility: inherit;" fill="rgb(0, 0, 0)" stroke="rgb(204, 204, 204)" stroke-width="1px"></line><line x1="222.19999973590558" y1="0" x2="222.19999973590558" y2="5" style="visibility: inherit;" fill="rgb(0, 0, 0)" stroke="rgb(204, 204, 204)" stroke-width="1px"></line><line x1="244.41999970949612" y1="0" x2="244.41999970949612" y2="5" style="visibility: inherit;" fill="rgb(0, 0, 0)" stroke="rgb(204, 204, 204)" stroke-width="1px"></line><line x1="266.6399996830867" y1="0" x2="266.6399996830867" y2="5" style="visibility: inherit;" fill="rgb(0, 0, 0)" stroke="rgb(204, 204, 204)" stroke-width="1px"></line><line x1="288.85999965667725" y1="0" x2="288.85999965667725" y2="5" style="visibility: inherit;" fill="rgb(0, 0, 0)" stroke="rgb(204, 204, 204)" stroke-width="1px"></line></g><g transform="translate(0, 8)"><text style="text-anchor: middle; visibility: hidden; font-family: &quot;Helvetica Neue&quot;, sans-serif; font-size: 12px; font-weight: 200;" x="0" y="0" dx="0em" dy="0.95em" fill="rgb(50, 49, 63)" stroke="none" stroke-width="1px">-100</text><text style="text-anchor: middle; visibility: inherit; font-family: &quot;Helvetica Neue&quot;, sans-serif; font-size: 12px; font-weight: 200;" x="22.219999973590557" y="0" dx="0em" dy="0.95em" fill="rgb(50, 49, 63)" stroke="none" stroke-width="1px">0</text><text style="text-anchor: middle; visibility: hidden; font-family: &quot;Helvetica Neue&quot;, sans-serif; font-size: 12px; font-weight: 200;" x="44.439999947181114" y="0" dx="0em" dy="0.95em" fill="rgb(50, 49, 63)" stroke="none" stroke-width="1px">100</text><text style="text-anchor: middle; visibility: inherit; font-family: &quot;Helvetica Neue&quot;, sans-serif; font-size: 12px; font-weight: 200;" x="66.65999992077168" y="0" dx="0em" dy="0.95em" fill="rgb(50, 49, 63)" stroke="none" stroke-width="1px">200</text><text style="text-anchor: middle; visibility: hidden; font-family: &quot;Helvetica Neue&quot;, sans-serif; font-size: 12px; font-weight: 200;" x="88.87999989436223" y="0" dx="0em" dy="0.95em" fill="rgb(50, 49, 63)" stroke="none" stroke-width="1px">300</text><text style="text-anchor: middle; visibility: inherit; font-family: &quot;Helvetica Neue&quot;, sans-serif; font-size: 12px; font-weight: 200;" x="111.09999986795279" y="0" dx="0em" dy="0.95em" fill="rgb(50, 49, 63)" stroke="none" stroke-width="1px">400</text><text style="text-anchor: middle; visibility: hidden; font-family: &quot;Helvetica Neue&quot;, sans-serif; font-size: 12px; font-weight: 200;" x="133.31999984154336" y="0" dx="0em" dy="0.95em" fill="rgb(50, 49, 63)" stroke="none" stroke-width="1px">500</text><text style="text-anchor: middle; visibility: inherit; font-family: &quot;Helvetica Neue&quot;, sans-serif; font-size: 12px; font-weight: 200;" x="155.53999981513388" y="0" dx="0em" dy="0.95em" fill="rgb(50, 49, 63)" stroke="none" stroke-width="1px">600</text><text style="text-anchor: middle; visibility: hidden; font-family: &quot;Helvetica Neue&quot;, sans-serif; font-size: 12px; font-weight: 200;" x="177.75999978872446" y="0" dx="0em" dy="0.95em" fill="rgb(50, 49, 63)" stroke="none" stroke-width="1px">700</text><text style="text-anchor: middle; visibility: inherit; font-family: &quot;Helvetica Neue&quot;, sans-serif; font-size: 12px; font-weight: 200;" x="199.979999762315" y="0" dx="0em" dy="0.95em" fill="rgb(50, 49, 63)" stroke="none" stroke-width="1px">800</text><text style="text-anchor: middle; visibility: hidden; font-family: &quot;Helvetica Neue&quot;, sans-serif; font-size: 12px; font-weight: 200;" x="222.19999973590558" y="0" dx="0em" dy="0.95em" fill="rgb(50, 49, 63)" stroke="none" stroke-width="1px">900</text><text style="text-anchor: middle; visibility: inherit; font-family: &quot;Helvetica Neue&quot;, sans-serif; font-size: 12px; font-weight: 200;" x="244.41999970949612" y="0" dx="0em" dy="0.95em" fill="rgb(50, 49, 63)" stroke="none" stroke-width="1px">1k</text><text style="text-anchor: middle; visibility: hidden; font-family: &quot;Helvetica Neue&quot;, sans-serif; font-size: 12px; font-weight: 200;" x="266.6399996830867" y="0" dx="0em" dy="0.95em" fill="rgb(50, 49, 63)" stroke="none" stroke-width="1px">1.1k</text><text style="text-anchor: middle; visibility: hidden; font-family: &quot;Helvetica Neue&quot;, sans-serif; font-size: 12px; font-weight: 200;" x="288.85999965667725" y="0" dx="0em" dy="0.95em" fill="rgb(50, 49, 63)" stroke="none" stroke-width="1px">1.2k</text></g><line x1="0" y1="0" x2="288.85999965667725" y2="0" fill="rgb(0, 0, 0)" stroke="rgb(204, 204, 204)" stroke-width="1px"></line></g></g></g></g></svg>