<svg viewBox="0 0 330 200" xmlns="http://www.w3.org/2000/svg"><g><g><g><g><g><line x1="41.140000343322754" y1="177.95999908447266" x2="36.140000343322754" y2="177.95999908447266" style="visibility: inherit;" fill="rgb(0, 0, 0)" stroke="rgb(204, 204, 204)" stroke-width="1px"></line><line x1="41.140000343322754" y1="152.53714207240515" x2="36.140000343322754" y2="152.53714207240515" style="visibility: inherit;" fill="rgb(0, 0, 0)" stroke="rgb(204, 204, 204)" stroke-width="1px"></line><line x1="41.140000343322754" y1="127.11428506033761" x2="36.140000343322754" y2="127.11428506033761" style="visibility: inherit;" fill="rgb(0, 0, 0)" stroke="rgb(204, 204, 204)" stroke-width="1px"></line><line x1="41.140000343322754" y1="101.6914280482701" x2="36.140000343322754" y2="101.6914280482701" style="visibility: inherit;" fill="rgb(0, 0, 0)" stroke="rgb(204, 204, 204)" stroke-width="1px"></line><line x1="41.140000343322754" y1="76.26857103620257" x2="36.140000343322754" y2="76.26857103620257" style="visibility: inherit;" fill="rgb(0, 0, 0)" stroke="rgb(204, 204, 204)" stroke-width="1px"></line><line x1="41.140000343322754" y1="50.84571402413505" x2="36.140000343322754" y2="50.84571402413505" style="visibility: inherit;" fill="rgb(0, 0, 0)" stroke="rgb(204, 204, 204)" stroke-width="1px"></line><line x1="41.140000343322754" y1="25.42285701206754" x2="36.140000343322754" y2="25.42285701206754" style="visibility: inherit;" fill="rgb(0, 0, 0)" stroke="rgb(204, 204, 204)" stroke-width="1px"></line><line x1="41.140000343322754" y1="0" x2="36.140000343322754" y2="0" style="visibility: inherit;" fill="rgb(0, 0, 0)" stroke="rgb(204, 204, 204)" stroke-width="1px"></line></g><g transform="translate(31.140000343322754, 0)"><text style="text-anchor: end; visibility: hidden; font-family: &quot;Helvetica Neue&quot;, sans-serif; font-size: 12px; font-weight: 200;" x="0" y="177.95999908447266" dx="0em" dy="0.3em" fill="rgb(50, 49, 63)" stroke="none" stroke-width="1px">2.5</text><text style="text-anchor: end; visibility: inherit; font-family: &quot;Helvetica Neue&quot;, sans-serif; font-size: 12px; font-weight: 200;" x="0" y="152.53714207240515" dx="0em" dy="0.3em" fill="rgb(50, 49, 63)" stroke="none" stroke-width="1px">3</text><text style="text-anchor: end; visibility: inherit; font-family: &quot;Helvetica Neue&quot;, sans-serif; font-size: 12px; font-weight: 200;" x="0" y="127.11428506033761" dx="0em" dy="0.3em" fill="rgb(50, 49, 63)" stroke="none" stroke-width="1px">3.5</text><text style="text-anchor: end; visibility: inherit; font-family: &quot;Helvetica Neue&quot;, sans-serif; font-size: 12px; font-weight: 200;" x="0" y="101.6914280482701" dx="0em" dy="0.3em" fill="rgb(50, 49, 63)" stroke="none" stroke-width="1px">4</text><text style="text-anchor: end; visibility: inherit; font-family: &quot;Helvetica Neue&quot;, sans-serif; font-size: 12px; font-weight: 200;" x="0" y="76.26857103620257" dx="0em" dy="0.3em" fill="rgb(50, 49, 63)" stroke="none" stroke-width="1px">4.5</text><text style="text-anchor: end; visibility: inherit; font-family: &quot;Helvetica Neue&quot;, sans-serif; font-size: 12px; font-weight: 200;" x="0" y="50.84571402413505" dx="0em" dy="0.3em" fill="rgb(50, 49, 63)" stroke="none" stroke-width="1px">5</text><text style="text-anchor: end; visibility: inherit; font-family: &quot;Helvetica Neue&quot;, sans-serif; font-size: 12px; font-weight: 200;" x="0" y="25.42285701206754" dx="0em" dy="0.3em" fill="rgb(50, 49, 63)" stroke="none" stroke-width="1px">5.5</text><text style="text-anchor: end; visibility: hidden; font-family: &quot;Helvetica Neue&quot;, sans-serif; font-size: 12px; font-weight: 200;" x="0" y="0" dx="0em" dy="0.3em" fill="rgb(50, 49, 63)" stroke="none" stroke-width="1px">6</text></g><line x1="41.140000343322754" y1="0" x2="41.140000343322754" y2="177.95999908447266" fill="rgb(0, 0, 0)" stroke="rgb(204, 204, 204)" stroke-width="1px"></line></g></g><g transform="translate(41, 0)" clip-path="url(#clip_0)"><clipPath id="clip_0"><rect width="288" height="177"></rect></clipPath><g><g><g><line x1="0" y1="0" x2="0" y2="177.95999908447266" fill="rgb(0, 0, 0)" stroke="rgb(60, 60, 60)" stroke-width="1px" opacity="0.25"></line><line x1="36.107499957084656" y1="0" x2="36.107499957084656" y2="177.95999908447266" fill="rgb(0, 0, 0)" stroke="rgb(60, 60, 60)" stroke-width="1px" opacity="0.25"></line><line x1="72.21499991416931" y1="0" x2="72.21499991416931" y2="177.95999908447266" fill="rgb(0, 0, 0)" stroke="rgb(60, 60, 60)" stroke-width="1px" opacity="0.25"></line><line x1="108.32249987125397" y1="0" x2="108.32249987125397" y2="177.95999908447266" fill="rgb(0, 0, 0)" stroke="rgb(60, 60, 60)" stroke-width="1px" opacity="0.25"></line><line x1="144.42999982833862" y1="0" x2="144.42999982833862" y2="177.95999908447266" fill="rgb(0, 0, 0)" stroke="rgb(60, 60, 60)" stroke-width="1px" opacity="0.25"></line><line x1="180.53749978542328" y1="0" x2="180.53749978542328" y2="177.95999908447266" fill="rgb(0, 0, 0)" stroke="rgb(60, 60, 60)" stroke-width="1px" opacity="0.25"></line><line x1="216.64499974250793" y1="0" x2="216.64499974250793" y2="177.95999908447266" fill="rgb(0, 0, 0)" stroke="rgb(60, 60, 60)" stroke-width="1px" opacity="0.25"></line><line x1="252.7524996995926" y1="0" x2="252.7524996995926" y2="177.95999908447266" fill="rgb(0, 0, 0)" stroke="rgb(60, 60, 60)" stroke-width="1px" opacity="0.25"></line><line x1="288.85999965667725" y1="0" x2="288.85999965667725" y2="177.95999908447266" fill="rgb(0, 0, 0)" stroke="rgb(60, 60, 60)" stroke-width="1px" opacity="0.25"></line></g><g><line x1="0" y1="177.95999908447266" x2="288.85999965667725" y2="177.95999908447266" fill="rgb(0, 0, 0)" stroke="rgb(60, 60, 60)" stroke-width="1px" opacity="0.25"></line><line x1="0" y1="152.53714207240515" x2="288.85999965667725" y2="152.53714207240515" fill="rgb(0, 0, 0)" stroke="rgb(60, 60, 60)" stroke-width="1px" opacity="0.25"></line><line x1="0" y1="127.11428506033761" x2="288.85999965667725" y2="127.11428506033761" fill="rgb(0, 0, 0)" stroke="rgb(60, 60, 60)" stroke-width="1px" opacity="0.25"></line><line x1="0" y1="101.6914280482701" x2="288.85999965667725" y2="101.6914280482701" fill="rgb(0, 0, 0)" stroke="rgb(60, 60, 60)" stroke-width="1px" opacity="0.25"></line><line x1="0" y1="76.26857103620257" x2="288.85999965667725" y2="76.26857103620257" fill="rgb(0, 0, 0)" stroke="rgb(60, 60, 60)" stroke-width="1px" opacity="0.25"></line><line x1="0" y1="50.84571402413505" x2="288.85999965667725" y2="50.84571402413505" fill="rgb(0, 0, 0)" stroke="rgb(60, 60, 60)" stroke-width="1px" opacity="0.25"></line><line x1="0" y1="25.42285701206754" x2="288.85999965667725" y2="25.42285701206754" fill="rgb(0, 0, 0)" stroke="rgb(60, 60, 60)" stroke-width="1px" opacity="0.25"></line><line x1="0" y1="0" x2="288.85999965667725" y2="0" fill="rgb(0, 0, 0)" stroke="rgb(60, 60, 60)" stroke-width="1px" opacity="0.25"></line></g></g></g><g><g><line x1="0" y1="305.07428414481024" x2="288.85999965667725" y2="305.07428414481024" fill="rgb(0, 0, 0)" stroke="rgb(153, 153, 153)" stroke-width="1.5px"></line></g></g><g><g><line x1="36.107499957084656" y1="0" x2="36.107499957084656" y2="177.95999908447266" fill="rgb(0, 0, 0)" stroke="rgb(153, 153, 153)" stroke-width="1.5px"></line></g></g><g><g><g><g><g><path style="fill: none;" stroke="rgb(238, 51, 119)" stroke-width="2px" d="M37.91287495493889,28.58383953103163L39.71824995279312,35.25503742200635L41.52362495064735,42.17210686533184L43.32899994850158,44.7602788177378L45.13437494635582,48.09537412812827L46.93974994421006,49.22390814582843L48.74512494206429,52.109498500965856L50.55049993991852,59.797340407631225L52.35587493777275,63.21757784468768L54.161249935626984,59.40921179294908L55.96662493348122,66.26612321306317L57.77199993133545,67.17409150507332L59.57737492918968,72.10422569811986L61.38274992704391,73.53952824887965L63.18812492489815,78.69430759649448L64.99349992275238,82.97284471704688L66.79887492060662,87.62839165638803L68.60424991846084,91.12136939406733L70.40962491631508,91.87116491421972L72.21499991416931,92.5669548338558L74.02037491202354,94.52706671834372L75.82574990987779,98.04392644952283L77.631124907732,98.52646330791315L79.43649990558625,101.02110701876164L81.24187490344048,102.75448968623655L83.0472499012947,105.0306414322874L84.85262489914895,108.24009611338934L86.65799989700317,110.39064534849834L88.46337489485741,108.33534911276648L90.26874989271164,105.49415717423135L92.07412489056587,108.2813762547793L93.87949988842011,108.67704632365785L95.68487488627433,109.42830926324488L97.49024988412857,109.94272985714016L99.2956248819828,114.91332235201722L101.10099987983703,110.72106009882236L102.90637487769128,112.92441040911878L104.7117498755455,115.4289814500068L106.51712487339974,115.26773744123004L108.32249987125397,116.95538380588849L110.1278748691082,118.26891667176375L111.93324986696244,120.72914513220668L113.73862486481666,122.31839056854591L115.5439998626709,119.56394163157927L117.34937486052513,113.91386200499427L119.15474985837936,115.64200877258645L120.9601248562336,118.70325330837343L122.76549985408782,120.16715363646193L124.57087485194207,120.77269252701561L126.3762498497963,122.85291989653874L128.1816248476505,126.48219436643703L129.98699984550476,129.54972488045007L131.792374843359,129.43270143125415L133.59774984121324,127.600274035491L135.40312483906746,135.3067636586941L137.20849983692167,132.1457463540163L139.01387483477592,132.67070519114873L140.81924983263016,128.66994627468947L142.6246248304844,125.83232706183759L144.42999982833862,124.69280493918899L146.23537482619284,128.96309821665184L148.04074982404708,129.25437872187695L149.84612482190133,129.77423274929347L151.65149981975557,127.76743346742347L153.4568748176098,131.42209165210528L155.262249815464,131.49180878453L157.06762481331825,129.5436282339429L158.8729998111725,130.97009758123497L160.67837480902674,131.2160203151847L162.48374980688095,131.59608471180465L164.28912480473517,136.1540749102733L166.0944998025894,134.85357333151256L167.89987480044365,137.29994949603935L169.7052497982979,136.19864044125762L171.51062479615211,141.5787317560497L173.31599979400633,141.19945610933794L175.12137479186057,142.16762638170684L176.92674978971482,141.61415244906152L178.73212478756906,142.31412490571546L180.53749978542328,138.62017604090434L182.3428747832775,137.8894219552893L184.14824978113174,140.61386738782116L185.95362477898598,147.82034094649555L187.75899977684023,149.0661511948605L189.56437477469444,139.57073116837302L191.36974977254866,140.33942629437826L193.1751247704029,144.26956323150367L194.98049976825715,139.90206689793126L196.7858747661114,140.8428095492631L198.5912497639656,143.17723175558152L200.39662476181982,140.96987578026366L202.20199975967407,141.54323001956442L204.0073747575283,146.0942422417755L205.81274975538255,149.21514276091688L207.61812475323677,147.107608073041L209.423499751091,152.39894502666343L211.22887474894523,152.28745132275552L213.03424974679947,151.66949248553507L214.83962474465372,153.89666484418007L216.64499974250793,154.77842549022984L218.45037474036215,154.33329332783518L220.2557497382164,150.00827338507605L222.06112473607064,144.73031034745134L223.86649973392488,152.01679910971853L225.6718747317791,149.59530025441873L227.47724972963331,152.50712001210704L229.28262472748756,152.4723745356681L231.0879997253418,157.4746954466626L232.89337472319605,155.8066513325368L234.69874972105026,161.53358542122933L236.50412471890448,159.3775785186578L238.30949971675872,156.33658452077412L240.11487471461297,157.67380467333496L241.9202497124672,149.86833157015863L243.72562471032143,150.5156150058765L245.53099970817564,152.26515491896458L247.3363747060299,154.59536578889725L249.14174970388413,156.79806680993505L250.94712470173837,151.81181365173407L252.7524996995926,154.66006278834496L254.5578746974468,158.73426491208266L256.363249695301,157.2835109389L258.1686246931553,157.19836302809708L259.9739996910095,154.42032800440194L261.77937468886375,155.64520859513775L263.584749686718,154.64533031351942L265.3901246845722,155.78626156400344L267.1954996824265,158.27986552549842L269.0008746802807,156.93290868048462L270.8062496781349,154.56180648311081L272.61162467598916,159.41777446479188L274.41699967384335,159.2704517650397L276.22237467169765,154.07155415623834L278.02774966955184,150.9454512008643L279.8331246674061,155.92305730293143L281.6384996652603,158.6015187547582L283.4438746631145,162.9963583765794L285.2492496609688,162.80802613253823L287.054624658823,165.33591741387596L288.85999965667725,163.02882732093315L290.6653746545315,162.45882641845787" fill="none"></path></g></g></g></g><g opacity="0.2"><g><g><g><path style="fill: none;" stroke="rgb(238, 51, 119)" stroke-width="2px" d="M37.91287495493889,28.58383953103163L39.71824995279312,39.2577561565912L41.52362495064735,48.81249353092426L43.32899994850158,47.8039690337672L45.13437494635582,52.44967456537415L46.93974994421006,50.785076964554065L48.74512494206429,56.23593887825804L50.55049993991852,71.00628771083159L52.35587493777275,68.26176371742622L54.161249935626984,53.754232048330394L55.96662493348122,76.4892986613226L57.77199993133545,68.53110281973932L59.57737492918968,79.48332924415134L61.38274992704391,75.68967016790391L63.18812492489815,86.42041736829664L64.99349992275238,89.38763284201039L66.79887492060662,94.60974199396047L68.60424991846084,96.35994913391707L70.40962491631508,92.99574397064758L72.21499991416931,93.61057611535529L74.02037491202354,97.4671270478814L75.82574990987779,103.31910032252406L77.631124907732,99.25025906865007L79.43649990558625,104.76304303360146L81.24187490344048,105.35455136730681L83.0472499012947,108.44485934461616L84.85262489914895,113.05426992292736L86.65799989700317,113.61646589956217L88.46337489485741,105.25240665238692L90.26874989271164,101.23237083671224L92.07412489056587,112.46220395132903L93.87949988842011,109.27055134825059L95.68487488627433,110.55520358293974L97.49024988412857,110.71436071113618L99.2956248819828,122.3692108807128L101.10099987983703,104.43266682713198L102.90637487769128,116.229435840474L104.7117498755455,119.18583798808893L106.51712487339974,115.025871428963L108.32249987125397,119.48685334723632L110.1278748691082,120.23921596794285L111.93324986696244,124.41948781991128L113.73862486481666,124.70225872190764L115.5439998626709,115.43226822732218L117.34937486052513,105.43874256658506L119.15474985837936,118.2342289237053L120.9601248562336,123.29512011176745L122.76549985408782,122.36300412851259L124.57087485194207,121.68100086282564L126.3762498497963,125.97326095078148L128.1816248476505,131.9261060712405L129.98699984550476,134.15102065144725L131.792374843359,129.25716625746074L133.59774984121324,124.85163294185102L135.40312483906746,146.86649809348663L137.20849983692167,127.40422039700258L139.01387483477592,133.45814344684706L140.81924983263016,122.66880790000192L142.6246248304844,121.57589824256034L144.42999982833862,122.98352175521619L146.23537482619284,135.36853813284586L148.04074982404708,129.69129947971462L149.84612482190133,130.55401379041825L151.65149981975557,124.75723454461851L153.4568748176098,136.90407892912793L155.262249815464,131.59638448316713L157.06762481331825,126.6213574080622L158.8729998111725,133.10980160217306L160.67837480902674,131.5849044161093L162.48374980688095,132.16618130673461L164.28912480473517,142.99106020797626L166.0944998025894,132.90282096337148L167.89987480044365,140.96951374282955L169.7052497982979,134.54667685908498L171.51062479615211,149.64886872823783L173.31599979400633,140.63054263927032L175.12137479186057,143.61988179026022L176.92674978971482,140.78394155009352L178.73212478756906,143.3640835906964L180.53749978542328,133.07925274368765L182.3428747832775,136.79329082686672L184.14824978113174,144.700535536619L185.95362477898598,158.6300512845072L187.75899977684023,150.93486656740788L189.56437477469444,125.32760112864187L191.36974977254866,141.49246898338606L193.1751247704029,150.16476863719177L194.98049976825715,133.3508223975727L196.7858747661114,142.25392352626088L198.5912497639656,146.67886506505914L200.39662476181982,137.65884181728688L202.20199975967407,142.4032613785156L204.0073747575283,152.92076057509206L205.81274975538255,153.89649353962886L207.61812475323677,143.94630604122722L209.423499751091,160.33595045709706L211.22887474894523,152.12021076689365L213.03424974679947,150.74255422970444L214.83962474465372,157.23742338214754L216.64499974250793,156.1010664593045L218.45037474036215,153.66559508424325L220.2557497382164,143.5207434709373L222.06112473607064,136.8133657910143L223.86649973392488,162.94653225311933L225.6718747317791,145.96305197146907L227.47724972963331,156.8748496486395L229.28262472748756,152.42025632100973L231.0879997253418,164.97817681315428L232.89337472319605,153.30458516134811L234.69874972105026,170.12398655426816L236.50412471890448,156.14356816480046L238.30949971675872,151.77509352394867L240.11487471461297,159.6796349021762L241.9202497124672,138.16012191539423L243.72562471032143,151.48654015945326L245.53099970817564,154.88946478859674L247.3363747060299,158.0906820937962L249.14174970388413,160.1021183414918L250.94712470173837,144.33243391443258L252.7524996995926,158.93243649326126L254.5578746974468,164.8455680976892L256.363249695301,155.10737997912605L258.1686246931553,157.07064116189264L259.9739996910095,150.25327546885924L261.77937468886375,157.48252948124147L263.584749686718,153.1455128910919L265.3901246845722,157.4976584397295L267.1954996824265,162.02027146774086L269.0008746802807,154.91247341296392L270.8062496781349,151.00515318705013L272.61162467598916,166.70172643731348L274.41699967384335,159.04946771541134L276.22237467169765,146.2732077430363L278.02774966955184,146.25629676780332L279.8331246674061,163.3894664560321L281.6384996652603,162.6192109324984L283.4438746631145,169.58861780931122L285.2492496609688,162.52552776647644L287.054624658823,169.1277543358826L288.85999965667725,159.5681921815189L290.6653746545315,161.603825064745" fill="none"></path></g></g></g></g></g></g><g transform="translate(41, 177)" clip-path="url(#clip_1)"><clipPath id="clip_1"><rect width="288" height="22"></rect></clipPath><g><g><line x1="0" y1="0" x2="0" y2="5" style="visibility: inherit;" fill="rgb(0, 0, 0)" stroke="rgb(204, 204, 204)" stroke-width="1px"></line><line x1="36.107499957084656" y1="0" x2="36.107499957084656" y2="5" style="visibility: inherit;" fill="rgb(0, 0, 0)" stroke="rgb(204, 204, 204)" stroke-width="1px"></line><line x1="72.21499991416931" y1="0" x2="72.21499991416931" y2="5" style="visibility: inherit;" fill="rgb(0, 0, 0)" stroke="rgb(204, 204, 204)" stroke-width="1px"></line><line x1="108.32249987125397" y1="0" x2="108.32249987125397" y2="5" style="visibility: inherit;" fill="rgb(0, 0, 0)" stroke="rgb(204, 204, 204)" stroke-width="1px"></line><line x1="144.42999982833862" y1="0" x2="144.42999982833862" y2="5" style="visibility: inherit;" fill="rgb(0, 0, 0)" stroke="rgb(204, 204, 204)" stroke-width="1px"></line><line x1="180.53749978542328" y1="0" x2="180.53749978542328" y2="5" style="visibility: inherit;" fill="rgb(0, 0, 0)" stroke="rgb(204, 204, 204)" stroke-width="1px"></line><line x1="216.64499974250793" y1="0" x2="216.64499974250793" y2="5" style="visibility: inherit;" fill="rgb(0, 0, 0)" stroke="rgb(204, 204, 204)" stroke-width="1px"></line><line x1="252.7524996995926" y1="0" x2="252.7524996995926" y2="5" style="visibility: inherit;" fill="rgb(0, 0, 0)" stroke="rgb(204, 204, 204)" stroke-width="1px"></line><line x1="288.85999965667725" y1="0" x2="288.85999965667725" y2="5" style="visibility: inherit;" fill="rgb(0, 0, 0)" stroke="rgb(204, 204, 204)" stroke-width="1px"></line></g><g transform="translate(0, 8)"><text style="text-anchor: middle; visibility: hidden; font-family: &quot;Helvetica Neue&quot;, sans-serif; font-size: 12px; font-weight: 200;" x="0" y="0" dx="0em" dy="0.95em" fill="rgb(50, 49, 63)" stroke="none" stroke-width="1px">-20</text><text style="text-anchor: middle; visibility: inherit; font-family: &quot;Helvetica Neue&quot;, sans-serif; font-size: 12px; font-weight: 200;" x="36.107499957084656" y="0" dx="0em" dy="0.95em" fill="rgb(50, 49, 63)" stroke="none" stroke-width="1px">0</text><text style="text-anchor: middle; visibility: inherit; font-family: &quot;Helvetica Neue&quot;, sans-serif; font-size: 12px; font-weight: 200;" x="72.21499991416931" y="0" dx="0em" dy="0.95em" fill="rgb(50, 49, 63)" stroke="none" stroke-width="1px">20</text><text style="text-anchor: middle; visibility: inherit; font-family: &quot;Helvetica Neue&quot;, sans-serif; font-size: 12px; font-weight: 200;" x="108.32249987125397" y="0" dx="0em" dy="0.95em" fill="rgb(50, 49, 63)" stroke="none" stroke-width="1px">40</text><text style="text-anchor: middle; visibility: inherit; font-family: &quot;Helvetica Neue&quot;, sans-serif; font-size: 12px; font-weight: 200;" x="144.42999982833862" y="0" dx="0em" dy="0.95em" fill="rgb(50, 49, 63)" stroke="none" stroke-width="1px">60</text><text style="text-anchor: middle; visibility: inherit; font-family: &quot;Helvetica Neue&quot;, sans-serif; font-size: 12px; font-weight: 200;" x="180.53749978542328" y="0" dx="0em" dy="0.95em" fill="rgb(50, 49, 63)" stroke="none" stroke-width="1px">80</text><text style="text-anchor: middle; visibility: inherit; font-family: &quot;Helvetica Neue&quot;, sans-serif; font-size: 12px; font-weight: 200;" x="216.64499974250793" y="0" dx="0em" dy="0.95em" fill="rgb(50, 49, 63)" stroke="none" stroke-width="1px">100</text><text style="text-anchor: middle; visibility: inherit; font-family: &quot;Helvetica Neue&quot;, sans-serif; font-size: 12px; font-weight: 200;" x="252.7524996995926" y="0" dx="0em" dy="0.95em" fill="rgb(50, 49, 63)" stroke="none" stroke-width="1px">120</text><text style="text-anchor: middle; visibility: hidden; font-family: &quot;Helvetica Neue&quot;, sans-serif; font-size: 12px; font-weight: 200;" x="288.85999965667725" y="0" dx="0em" dy="0.95em" fill="rgb(50, 49, 63)" stroke="none" stroke-width="1px">140</text></g><line x1="0" y1="0" x2="288.85999965667725" y2="0" fill="rgb(0, 0, 0)" stroke="rgb(204, 204, 204)" stroke-width="1px"></line></g></g></g></g></svg>