<svg viewBox="0 0 330 200" xmlns="http://www.w3.org/2000/svg"><g><g><g><g><g><line x1="30.760000228881836" y1="177.95999908447266" x2="25.760000228881836" y2="177.95999908447266" style="visibility: inherit;" fill="rgb(0, 0, 0)" stroke="rgb(204, 204, 204)" stroke-width="1px"></line><line x1="30.760000228881836" y1="155.71499919891357" x2="25.760000228881836" y2="155.71499919891357" style="visibility: inherit;" fill="rgb(0, 0, 0)" stroke="rgb(204, 204, 204)" stroke-width="1px"></line><line x1="30.760000228881836" y1="133.4699993133545" x2="25.760000228881836" y2="133.4699993133545" style="visibility: inherit;" fill="rgb(0, 0, 0)" stroke="rgb(204, 204, 204)" stroke-width="1px"></line><line x1="30.760000228881836" y1="111.22499942779541" x2="25.760000228881836" y2="111.22499942779541" style="visibility: inherit;" fill="rgb(0, 0, 0)" stroke="rgb(204, 204, 204)" stroke-width="1px"></line><line x1="30.760000228881836" y1="88.97999954223633" x2="25.760000228881836" y2="88.97999954223633" style="visibility: inherit;" fill="rgb(0, 0, 0)" stroke="rgb(204, 204, 204)" stroke-width="1px"></line><line x1="30.760000228881836" y1="66.73499965667725" x2="25.760000228881836" y2="66.73499965667725" style="visibility: inherit;" fill="rgb(0, 0, 0)" stroke="rgb(204, 204, 204)" stroke-width="1px"></line><line x1="30.760000228881836" y1="44.489999771118164" x2="25.760000228881836" y2="44.489999771118164" style="visibility: inherit;" fill="rgb(0, 0, 0)" stroke="rgb(204, 204, 204)" stroke-width="1px"></line><line x1="30.760000228881836" y1="22.244999885559082" x2="25.760000228881836" y2="22.244999885559082" style="visibility: inherit;" fill="rgb(0, 0, 0)" stroke="rgb(204, 204, 204)" stroke-width="1px"></line><line x1="30.760000228881836" y1="0" x2="25.760000228881836" y2="0" style="visibility: inherit;" fill="rgb(0, 0, 0)" stroke="rgb(204, 204, 204)" stroke-width="1px"></line></g><g transform="translate(20.760000228881836, 0)"><text style="text-anchor: end; visibility: hidden; font-family: &quot;Helvetica Neue&quot;, sans-serif; font-size: 12px; font-weight: 200;" x="0" y="177.95999908447266" dx="0em" dy="0.3em" fill="rgb(50, 49, 63)" stroke="none" stroke-width="1px">-1</text><text style="text-anchor: end; visibility: inherit; font-family: &quot;Helvetica Neue&quot;, sans-serif; font-size: 12px; font-weight: 200;" x="0" y="155.71499919891357" dx="0em" dy="0.3em" fill="rgb(50, 49, 63)" stroke="none" stroke-width="1px">0</text><text style="text-anchor: end; visibility: hidden; font-family: &quot;Helvetica Neue&quot;, sans-serif; font-size: 12px; font-weight: 200;" x="0" y="133.4699993133545" dx="0em" dy="0.3em" fill="rgb(50, 49, 63)" stroke="none" stroke-width="1px">1</text><text style="text-anchor: end; visibility: inherit; font-family: &quot;Helvetica Neue&quot;, sans-serif; font-size: 12px; font-weight: 200;" x="0" y="111.22499942779541" dx="0em" dy="0.3em" fill="rgb(50, 49, 63)" stroke="none" stroke-width="1px">2</text><text style="text-anchor: end; visibility: hidden; font-family: &quot;Helvetica Neue&quot;, sans-serif; font-size: 12px; font-weight: 200;" x="0" y="88.97999954223633" dx="0em" dy="0.3em" fill="rgb(50, 49, 63)" stroke="none" stroke-width="1px">3</text><text style="text-anchor: end; visibility: inherit; font-family: &quot;Helvetica Neue&quot;, sans-serif; font-size: 12px; font-weight: 200;" x="0" y="66.73499965667725" dx="0em" dy="0.3em" fill="rgb(50, 49, 63)" stroke="none" stroke-width="1px">4</text><text style="text-anchor: end; visibility: hidden; font-family: &quot;Helvetica Neue&quot;, sans-serif; font-size: 12px; font-weight: 200;" x="0" y="44.489999771118164" dx="0em" dy="0.3em" fill="rgb(50, 49, 63)" stroke="none" stroke-width="1px">5</text><text style="text-anchor: end; visibility: inherit; font-family: &quot;Helvetica Neue&quot;, sans-serif; font-size: 12px; font-weight: 200;" x="0" y="22.244999885559082" dx="0em" dy="0.3em" fill="rgb(50, 49, 63)" stroke="none" stroke-width="1px">6</text><text style="text-anchor: end; visibility: hidden; font-family: &quot;Helvetica Neue&quot;, sans-serif; font-size: 12px; font-weight: 200;" x="0" y="0" dx="0em" dy="0.3em" fill="rgb(50, 49, 63)" stroke="none" stroke-width="1px">7</text></g><line x1="30.760000228881836" y1="0" x2="30.760000228881836" y2="177.95999908447266" fill="rgb(0, 0, 0)" stroke="rgb(204, 204, 204)" stroke-width="1px"></line></g></g><g transform="translate(30, 0)" clip-path="url(#clip_0)"><clipPath id="clip_0"><rect width="299" height="177"></rect></clipPath><g><g><g><line x1="0" y1="0" x2="0" y2="177.95999908447266" fill="rgb(0, 0, 0)" stroke="rgb(60, 60, 60)" stroke-width="1px" opacity="0.25"></line><line x1="33.24888886345757" y1="0" x2="33.24888886345757" y2="177.95999908447266" fill="rgb(0, 0, 0)" stroke="rgb(60, 60, 60)" stroke-width="1px" opacity="0.25"></line><line x1="66.49777772691515" y1="0" x2="66.49777772691515" y2="177.95999908447266" fill="rgb(0, 0, 0)" stroke="rgb(60, 60, 60)" stroke-width="1px" opacity="0.25"></line><line x1="99.74666659037271" y1="0" x2="99.74666659037271" y2="177.95999908447266" fill="rgb(0, 0, 0)" stroke="rgb(60, 60, 60)" stroke-width="1px" opacity="0.25"></line><line x1="132.9955554538303" y1="0" x2="132.9955554538303" y2="177.95999908447266" fill="rgb(0, 0, 0)" stroke="rgb(60, 60, 60)" stroke-width="1px" opacity="0.25"></line><line x1="166.24444431728787" y1="0" x2="166.24444431728787" y2="177.95999908447266" fill="rgb(0, 0, 0)" stroke="rgb(60, 60, 60)" stroke-width="1px" opacity="0.25"></line><line x1="199.49333318074542" y1="0" x2="199.49333318074542" y2="177.95999908447266" fill="rgb(0, 0, 0)" stroke="rgb(60, 60, 60)" stroke-width="1px" opacity="0.25"></line><line x1="232.74222204420303" y1="0" x2="232.74222204420303" y2="177.95999908447266" fill="rgb(0, 0, 0)" stroke="rgb(60, 60, 60)" stroke-width="1px" opacity="0.25"></line><line x1="265.9911109076606" y1="0" x2="265.9911109076606" y2="177.95999908447266" fill="rgb(0, 0, 0)" stroke="rgb(60, 60, 60)" stroke-width="1px" opacity="0.25"></line><line x1="299.23999977111816" y1="0" x2="299.23999977111816" y2="177.95999908447266" fill="rgb(0, 0, 0)" stroke="rgb(60, 60, 60)" stroke-width="1px" opacity="0.25"></line></g><g><line x1="0" y1="177.95999908447266" x2="299.23999977111816" y2="177.95999908447266" fill="rgb(0, 0, 0)" stroke="rgb(60, 60, 60)" stroke-width="1px" opacity="0.25"></line><line x1="0" y1="155.71499919891357" x2="299.23999977111816" y2="155.71499919891357" fill="rgb(0, 0, 0)" stroke="rgb(60, 60, 60)" stroke-width="1px" opacity="0.25"></line><line x1="0" y1="133.4699993133545" x2="299.23999977111816" y2="133.4699993133545" fill="rgb(0, 0, 0)" stroke="rgb(60, 60, 60)" stroke-width="1px" opacity="0.25"></line><line x1="0" y1="111.22499942779541" x2="299.23999977111816" y2="111.22499942779541" fill="rgb(0, 0, 0)" stroke="rgb(60, 60, 60)" stroke-width="1px" opacity="0.25"></line><line x1="0" y1="88.97999954223633" x2="299.23999977111816" y2="88.97999954223633" fill="rgb(0, 0, 0)" stroke="rgb(60, 60, 60)" stroke-width="1px" opacity="0.25"></line><line x1="0" y1="66.73499965667725" x2="299.23999977111816" y2="66.73499965667725" fill="rgb(0, 0, 0)" stroke="rgb(60, 60, 60)" stroke-width="1px" opacity="0.25"></line><line x1="0" y1="44.489999771118164" x2="299.23999977111816" y2="44.489999771118164" fill="rgb(0, 0, 0)" stroke="rgb(60, 60, 60)" stroke-width="1px" opacity="0.25"></line><line x1="0" y1="22.244999885559082" x2="299.23999977111816" y2="22.244999885559082" fill="rgb(0, 0, 0)" stroke="rgb(60, 60, 60)" stroke-width="1px" opacity="0.25"></line><line x1="0" y1="0" x2="299.23999977111816" y2="0" fill="rgb(0, 0, 0)" stroke="rgb(60, 60, 60)" stroke-width="1px" opacity="0.25"></line></g></g></g><g><g><line x1="0" y1="155.71499919891357" x2="299.23999977111816" y2="155.71499919891357" fill="rgb(0, 0, 0)" stroke="rgb(153, 153, 153)" stroke-width="1.5px"></line></g></g><g><g><line x1="33.24888886345757" y1="0" x2="33.24888886345757" y2="177.95999908447266" fill="rgb(0, 0, 0)" stroke="rgb(153, 153, 153)" stroke-width="1.5px"></line></g></g><g><g><g><g><g><path style="fill: none;" stroke="rgb(204, 51, 17)" stroke-width="2px" d="M33.58137775209215,33.136060403584L33.913866640726724,35.67773603681326L34.2463555293613,35.481024724100735L34.578844417995874,39.98231416398676L34.91133330663045,40.07763084535827L35.243822195265025,40.49733821777181L35.576311083899604,39.886308011850815L35.908799972534176,40.35866973618158L36.241288861168755,42.03525049041946L36.57377774980333,44.48670091869144L36.906266638437906,43.5218767454362L37.238755527072485,42.4033854496538L37.571244415707056,43.76500535145851L37.903733304341635,40.56075892085664L38.23622219297621,47.02305171617081L38.568711081610786,42.93679185474275L38.901199970245365,46.36875456797134L39.233688858879944,45.112740372791905L39.56617774751451,47.002463058420744L39.89866663614909,48.5677738385225L40.23115552478367,48.653034853975896L40.563644413418245,49.50862564366071L40.89613330205281,50.08215924723936L41.22862219068739,48.373215796043496L41.56111107932197,51.954316339239085L41.89359996795655,55.864326258794335L42.22608885659112,52.727552497923625L42.5585777452257,49.58472200156848L42.89106663386027,52.43761413061793L43.22355552249484,51.393415961513256L43.55604441112942,54.752506918563085L43.888533299764,54.73275623297286L44.22102218839858,53.00191943319578L44.55351107703314,53.60638375599092L44.88599996566772,53.09675878865346L45.2184888543023,57.66539361136029L45.55097774293688,59.765998885721274L45.88346663157145,58.98723635367878L46.21595552020602,56.33356945382138L46.5484444088406,60.56802310063131L46.88093329747518,56.68864689750171L47.21342218610975,60.04625284059739L47.54591107474433,57.74888321731123L47.87839996337891,58.927740330329925L48.21088885201348,65.2154697353335L48.543377740648054,61.762600147078956L48.87586662928263,55.2659080642411L49.20835551791721,65.30687234421157L49.54084440655179,62.99732560650136L49.873333295186356,58.6464468656859L50.205822183820935,64.8577192665357L50.538311072455514,63.86240987825022L50.87079996109009,60.72674987784512L51.203288849724665,61.056836658125576L51.535777738359236,62.19504681777062L51.868266626993815,64.69756051158038L52.200755515628394,60.950499051765746L52.533244404262966,67.62324484248961L52.865733292897545,66.75392828097142L53.19822218153212,62.32449760560257L53.53071107016669,63.095813853389245L53.86319995880127,66.28514650099441L54.19568884743585,69.15785295908927L54.528177736070425,67.74793828204702L54.86066662470499,61.79134577433433L55.19315551333957,65.15507209636962L55.52564440197415,71.0022615046314L55.85813329060873,62.00490138818395L56.1906221792433,69.27630403641797L56.52311106787787,68.84424453007864L56.85559995651245,70.17997215286846L57.18808884514703,71.78143771913255L57.5205777337816,69.00993496201318L57.85306662241618,70.19655127294232L58.18555551105076,65.37881066304772L58.51804439968533,71.82089135772162L58.8505332883199,66.64991896434685L59.18302217695448,66.38241491499139L59.51551106558906,71.747621829948L59.84799995422364,67.34054591821041L60.1804888428582,72.73809961926122L60.51297773149278,67.39409658212139L60.84546662012736,69.0538277316009L61.17795550876194,72.47830173160355L61.51044439739651,73.8157742457895L61.842933286031084,77.40007287260778L62.17542217466566,70.34316988280852L62.50791106330024,75.78580966823165L62.84039995193481,68.54727356097578L63.17288884056939,76.02733658063198L63.50537772920397,71.71447419704282L63.83786661783854,74.95004381483477L64.17035550647311,75.89963068419615L64.50284439510769,70.32257592143719L64.83533328374227,75.5119253624946L65.16782217237684,74.2115251609498L65.50031106101142,79.33531123593139L65.832799949646,71.9111165626789L66.16528883828057,77.84846753244278L66.49777772691515,76.76409443225702L66.83026661554972,73.60699719469949L67.1627555041843,79.96363655079699L67.49524439281888,76.5312972804586L67.82773328145345,73.82050507595773L68.16022217008802,78.50808421277088L68.4927110587226,79.0478443561351L68.82519994735718,77.59364974515279L69.15768883599175,78.32958023186052L69.49017772462634,77.03246297187866L69.8226666132609,74.45278158866563L70.15515550189548,79.2960273132228L70.48764439053005,76.2973810645733L70.82013327916464,79.67489149827588L71.15262216779921,79.79505564527312L71.48511105643378,76.54109306893474L71.81759994506835,78.0631846393494L72.15008883370294,83.50035108762722L72.48257772233751,79.9394785559357L72.8150666109721,69.40550555405048L73.14755549960665,78.50024546054146L73.48004438824124,75.40339736055239L73.81253327687581,84.71643431830375L74.1450221655104,84.26135709567507L74.47751105414497,78.8921618575273L74.80999994277954,77.32938090476887L75.14248883141411,76.80714392606365L75.4749777200487,77.06617278863791L75.80746660868327,77.04904739557378L76.13995549731784,85.12727933958377L76.47244438595241,85.62999899203442L76.80493327458699,80.22855773659649L77.13742216322157,81.91991437967818L77.46991105185614,83.84781253117126L77.80239994049073,77.69187281097743L78.1348888291253,77.88978804571707L78.46737771775989,79.90205090066979L78.79986660639445,85.92988164921167L79.13235549502902,80.85663378126264L79.4648443836636,76.79794744679043L79.79733327229818,84.03006086869459L80.12982216093275,79.2000741972995L80.46231104956733,81.6573586089628L80.7947999382019,82.30010447004747L81.12728882683649,85.33982726539307L81.45977771547105,84.09367250214495L81.79226660410562,79.96314861764063L82.1247554927402,85.81182303985656L82.45724438137478,90.05076355025653L82.78973327000936,83.97748076747507L83.12222215864394,81.44522436561215L83.45471104727852,84.22859662712222L83.7871999359131,85.91028476863812L84.11968882454765,88.42591962145707L84.45217771318224,83.1848121404762L84.78466660181681,83.75745473568236L85.1171554904514,83.92156468847998L85.44964437908597,86.59068634070309L85.78213326772054,82.59295982904882L86.11462215635513,79.84886618662608L86.44711104498968,83.05791769809389L86.77959993362425,82.110924299531L87.11208882225884,88.10551194998493L87.44457771089341,88.36628040033406L87.777066599528,85.10995771253283L88.10955548816257,91.51160890230494L88.44204437679716,85.82213858321666L88.77453326543173,87.38743875607588L89.10702215406629,84.87656125153148L89.43951104270087,82.11098263936492L89.77199993133544,86.94540844175867L90.10448881997003,91.09863712889774L90.4369777086046,87.3855506669056L90.76946659723917,83.85663775695593L91.10195548587376,80.98229247989025L91.43444437450833,84.63194763155502L91.7669332631429,95.44643446575833L92.09942215177747,90.52561797658177L92.43191104041205,88.56310839271441L92.76439992904663,89.53137991979179L93.0968888176812,82.4465851857608L93.42937770631579,89.72078284240138L93.76186659495036,84.54995895042202L94.09435548358495,83.65693520185005L94.4268443722195,86.85770245690219L94.75933326085408,87.92256353445464L95.09182214948866,88.05832032797048L95.42431103812324,86.84319174912162L95.75679992675782,90.01313966100383L96.0892888153924,87.44925246191747L96.42177770402697,91.52584382177974L96.75426659266154,94.22387551351744L97.08675548129611,88.2302106931636L97.41924436993068,92.11700666244269L97.75173325856527,85.59455489112156L98.08422214719984,86.83471125871915L98.41671103583442,84.1390715001719L98.749199924469,85.09962625830894L99.08168881310358,80.84165635481077L99.41417770173814,93.24488006424258L99.74666659037271,91.50543018353142L100.0791554790073,88.71541778819778L100.41164436764187,94.29285971530908L100.74413325627646,92.13734604999331L101.07662214491103,93.88546735147247L101.4091110335456,88.45088376675062L101.74159992218019,88.38682662911401L102.07408881081474,94.71587124377061L102.40657769944933,94.99609337691913L102.7390665880839,85.9962723802048L103.07155547671847,94.9970639396106L103.40404436535306,90.659460162821L103.73653325398763,87.06383830460231L104.06902214262222,87.87533478709133L104.40151103125679,96.69664119565277L104.73399991989135,94.33529398904898L105.06648880852593,89.58749223277368L105.3989776971605,89.22039678330725L105.73146658579509,87.68370434355052L106.06395547442966,92.90691740638385L106.39644436306423,97.24230426948475L106.72893325169882,90.6589032825882L107.06142214033338,93.33738052272247L107.39391102896796,93.21354626980997L107.72639991760254,99.08249113250008L108.0588888062371,91.46730245025856L108.3913776948717,92.92241458771969L108.72386658350626,95.32108868078535L109.05635547214085,97.98567043320577L109.38884436077542,83.01183453292379L109.72133324940998,92.18828202862073L110.05382213804457,90.61409298652165L110.38631102667914,97.55095911623403L110.71879991531372,90.83418796539081L111.0512888039483,89.32189748707356L111.38377769258288,95.6784254671245L111.71626658121745,92.38252185382385L112.04875546985203,92.93177017563085L112.3812443584866,89.732270486061L112.71373324712117,97.94371878900097L113.04622213575574,95.36335854226604L113.37871102439033,95.69834056497393L113.7111999130249,96.68922142950328L114.04368880165948,103.35634538168642L114.37617769029406,96.85623246313276L114.70866657892864,99.28661160411957L115.0411554675632,92.16178513678165L115.37364435619777,94.67270507029616L115.70613324483236,95.83627184320835L116.03862213346693,97.87811299395503L116.37111102210152,97.80019219033215L116.70359991073609,103.15812784053469L117.03608879937066,92.66868934641025L117.36857768800525,93.88702661612433L117.7010665766398,91.58802878110987L118.03355546527439,100.74468846586774L118.36604435390896,95.35485683737852L118.69853324254353,102.15715948835964L119.03102213117812,92.64853028198263L119.36351101981269,96.37580923447945L119.69599990844728,94.04580112592953L120.02848879708183,99.18004594204535L120.3609776857164,94.48158377439677L120.69346657435099,96.58565761706495L121.02595546298556,95.6431829038197L121.35844435162015,97.31708002569758L121.69093324025472,98.33003456193114L122.0234221288893,102.61747668879798L122.35591101752388,99.63833185553926L122.68839990615844,98.29748623822888L123.02088879479302,103.69070688070633L123.3533776834276,103.6797177774456L123.68586657206217,99.77913239287795L124.01835546069675,96.25387367797975L124.35084434933133,103.47906057051205L124.68333323796591,98.42852280881903L125.01582212660048,97.16292497001405L125.34831101523504,101.45063758156539L125.68079990386963,98.71184225678621L126.0132887925042,103.93448252852295L126.34577768113878,99.6772922573507L126.67826656977336,99.67757334927774L127.01075545840794,101.97487402548745L127.34324434704251,106.72805895734655L127.67573323567709,100.8281144283635L128.00822212431166,107.60818960262372L128.34071101294623,102.03723930794058L128.6731999015808,94.99389237409423L129.00568879021537,107.47732805153532L129.33817767884997,103.31472786562131L129.67066656748455,98.69782478578327L130.00315545611912,100.69735364607914L130.3356443447537,97.80157113186101L130.66813323338826,98.35672768775703L131.00062212202283,104.23108224413727L131.3331110106574,108.51126371349255L131.665599899292,100.70475750136484L131.99808878792658,105.34651865407113L132.33057767656115,105.1323159984272L132.66306656519572,104.77763102272047L132.9955554538303,107.70271074080551L133.32804434246486,99.59632717512181L133.66053323109944,99.5608459488601L133.993022119734,105.32155450877758L134.3255110083686,101.95920712827115L134.65799989700318,105.80060940314456L134.99048878563775,101.79469940387867L135.32297767427232,103.81003305554373L135.6554665629069,102.5211151940373L135.98795545154147,100.90018533773127L136.32044434017604,102.54532622511124L136.65293322881064,100.9094560677022L136.9854221174452,99.57195173178866L137.31791100607978,94.36068772766498L137.65039989471435,101.3483201201243L137.98288878334893,102.04409158661474L138.3153776719835,104.74862551802312L138.64786656061807,108.11094107680196L138.98035544925267,95.99834520544027L139.31284433788724,99.90829678516161L139.6453332265218,103.68697313133589L139.97782211515639,104.23360146423806L140.31031100379096,98.88030117902099L140.64279989242553,102.65297382592348L140.9752887810601,105.11864326280647L141.30777766969467,100.00953761148594L141.64026655832927,107.71502574938245L141.97275544696384,100.12004386415992L142.30524433559842,108.28834720811051L142.637733224233,103.79889545088758L142.97022211286756,99.71724973995993L143.30271100150213,101.15824894123534L143.6351998901367,99.93653326477556L143.9676887787713,98.7913594504098L144.30017766740588,103.45471164528522L144.63266655604045,106.48179591115672L144.96515544467502,105.60374428541536L145.2976443333096,113.81924985862292L145.6301332219442,105.09175920661505L145.96262211057874,103.304247910002L146.2951109992133,107.07941325889897L146.6275998878479,112.59618175874061L146.96008877648248,108.10224313792764L147.29257766511705,107.46157629637878L147.62506655375162,110.58319761129587L147.95755544238622,110.86600791162164L148.2900443310208,105.70437519529423L148.62253321965534,111.16963492541186L148.95502210828994,105.2781072433761L149.2875109969245,110.07086779711335L149.61999988555908,109.42926221460061L149.95248877419365,101.38288912352846L150.28497766282823,108.08077938266888L150.6174665514628,106.39411644440656L150.9499554400974,106.56531203521399L151.28244432873194,102.17968396787137L151.61493321736654,113.44034059278908L151.9474221060011,108.33511454042377L152.27991099463569,103.15758687116568L152.61239988327026,107.7272028638065L152.94488877190483,108.83450351872011L153.27737766053943,110.43774049448666L153.60986654917397,108.96869044034156L153.94235543780857,107.90717064418595L154.27484432644314,109.63926970582406L154.60733321507774,108.89116740831355L154.9398221037123,113.00906071877569L155.27231099234686,108.36241758269512L155.60479988098146,111.53782026904821L155.937288769616,108.5467237252692L156.2697776582506,107.61071412634578L156.60226654688518,101.6147634452268L156.93475543551978,111.94972601458119L157.26724432415432,110.2947336507018L157.5997332127889,102.57436355153618L157.9322221014235,105.19272424463361L158.26471099005803,107.58119417038574L158.59719987869263,100.44500204267729L158.9296887673272,103.78079419151072L159.26217765596178,107.44036711494073L159.59466654459635,103.98248560459092L159.92715543323095,107.92533024339673L160.2596443218655,107.10350761030509L160.59213321050007,105.74578056650876L160.92462209913467,111.8859817905992L161.25711098776924,106.11441406614199L161.5895998764038,109.00952832408075L161.92208876503838,111.18661712070184L162.25457765367298,109.33141040226451L162.58706654230753,113.10596848652665L162.9195554309421,109.9649863021823L163.2520443195767,105.23388564926995L163.58453320821124,107.82781255920031L163.91702209684584,108.90764045596211L164.2495109854804,102.1752766586003L164.581999874115,103.78989520560117L164.91448876274956,109.65123997901878L165.24697765138413,111.86333002417712L165.57946654001873,103.4767747097469L165.91195542865327,112.4569007088943L166.24444431728787,111.44472845679729L166.57693320592244,105.92902068120861L166.90942209455704,109.54945818332544L167.2419109831916,117.70110815650446L167.5743998718262,113.27136191567035L167.90688876046076,113.66565433498283L168.2393776490953,109.3990740023612L168.5718665377299,113.82181946312573L168.90435542636448,115.62168289366457L169.23684431499905,116.32724749682052L169.56933320363362,111.74222448440537L169.90182209226822,114.9766882971636L170.2343109809028,115.58988768418192L170.56679986953733,113.85332032162819L170.89928875817193,112.95438568715656L171.2317776468065,116.60150305604611L171.56426653544108,112.82694497178397L171.89675542407565,113.24424184833265L172.22924431271025,117.45070828572807L172.5617332013448,117.07805198936546L172.89422208997937,110.26013812919132L173.22671097861397,115.17470430070728L173.5591998672485,112.75155929912569L173.8916887558831,112.0422609465993L174.22417764451768,110.55721517071947L174.55666653315228,113.03714074156233L174.88915542178682,110.19667499713637L175.22164431042142,111.32057863841953L175.554133199056,113.58358344772023L175.88662208769054,112.50738057609294L176.21911097632514,115.58873414655682L176.5515998649597,117.62531940863005L176.8840887535943,119.93899236368429L177.21657764222886,114.20453938083836L177.54906653086346,111.38014626065547L177.88155541949803,114.74061615923415L178.21404430813257,113.05512532127136L178.54653319676717,119.22752483006059L178.87902208540174,116.02909912379687L179.21151097403634,114.61720884783347L179.5439998626709,113.2681346621307L179.8764887513055,114.60150747707894L180.20897763994006,114.37803409146409L180.54146652857463,113.34545615655065L180.8739554172092,115.37892819294143L181.20644430584377,114.54696503599143L181.53893319447835,110.33944317796431L181.87142208311292,109.74555427597124L182.20391097174752,112.78216384563439L182.53639986038206,110.35084066006243L182.86888874901666,112.73773806210954L183.20137763765123,114.1570693187075L183.5338665262858,116.40455042856604L183.86635541492038,114.17281046662151L184.19884430355495,108.35812695309187L184.53133319218955,115.34055914490102L184.8638220808241,108.95044067956928L185.1963109694587,111.55411299357377L185.52879985809327,110.8685006136161L185.8612887467278,116.98300579267845L186.1937776353624,114.79246701252976L186.52626652399698,112.31933538052715L186.85875541263158,112.15773138877717L187.19124430126612,113.54379833280211L187.52373318990072,105.57646776125034L187.8562220785353,113.99557139938281L188.1887109671699,113.69633313218924L188.52119985580444,109.40288730605062L188.853688744439,116.4122539384532L189.1861776330736,117.01672356486961L189.51866652170816,125.08052700722862L189.85115541034276,111.4317054147815L190.18364429897733,123.9454433323192L190.5161331876119,123.42067917808129L190.84862207624647,121.62875792038653L191.18111096488104,120.12115849507802L191.51359985351564,118.39358342237881L191.8460887421502,117.90226390383691L192.1785776307848,120.19719916496251L192.51106651941936,121.45242312057348L192.84355540805393,123.63938460817906L193.1760442966885,122.7075357001379L193.50853318532307,121.19989384585926L193.84102207395765,117.14993462017833L194.17351096259222,121.93066921269758L194.50599985122682,123.94046588376216L194.83848873986136,120.49371667444723L195.17097762849596,121.19626086529286L195.50346651713053,120.54143070315627L195.83595540576513,115.29654704383483L196.16844429439968,124.2125655209436L196.50093318303425,118.90747515302382L196.83342207166885,121.3519380602794L197.1659109603034,125.56165561751016L197.498399848938,120.8076645352188L197.83088873757256,120.15851189964621L198.16337762620716,122.30697174867976L198.4958665148417,124.08952415941019L198.82835540347628,117.24475010934032L199.16084429211088,115.43864696838341L199.49333318074542,126.00700334692851L199.82582206938002,117.99230348204992L200.1583109580146,118.93830510343628L200.4907998466492,118.46764849334215L200.82328873528374,122.41227249708231L201.15577762391834,119.02381538908912L201.4882665125529,122.16387739514403L201.82075540118745,122.4577245313219L202.15324428982206,121.43742447963655L202.48573317845663,119.40395774686704L202.8182220670912,120.43471123606537L203.15071095572577,122.82194011444153L203.48319984436037,118.33296833494308L203.81568873299491,124.62881493229247L204.1481776216295,116.90694656011954L204.4806665102641,121.90181220939564L204.81315539889866,122.33533286339343L205.14564428753323,127.13697167912801L205.4781331761678,122.10729305986956L205.8106220648024,120.86151750554188L206.14311095343695,122.03103759332384L206.47559984207152,118.95521039621792L206.80808873070612,120.46214156524707L207.14057761934066,118.21448808769742L207.47306650797526,117.64352674043221L207.80555539660983,121.67300868440964L208.13804428524443,121.021021263271L208.47053317387898,119.93848321604287L208.80302206251358,121.56676123961131L209.13551095114815,124.50965582152492L209.4679998397827,119.74527494517577L209.8004887284173,120.9016049268721L210.13297761705186,119.05324518348766L210.46546650568646,118.54333116879127L210.797955394321,119.52854776580978L211.1304442829556,122.69188471378538L211.46293317159018,121.38210240622311L211.79542206022472,126.6903192588785L212.12791094885932,127.80540297799826L212.4603998374939,129.92665790175386L212.79288872612847,132.34853003423189L213.12537761476304,130.53006150029603L213.45786650339764,124.8704638279819L213.7903553920322,125.4080309239531L214.12284428066675,127.40999414640953L214.45533316930135,128.83945001600205L214.78782205793593,127.80271934563825L215.1203109465705,127.66483314818458L215.45279983520507,131.95221163159624L215.78528872383967,130.44603092497607L216.1177776124742,128.33442063649056L216.4502665011088,123.73537750126184L216.7827553897434,130.87672209702907L217.11524427837793,129.29450602414568L217.44773316701253,124.33154696039878L217.7802220556471,126.34660217194744L218.1127109442817,128.47752559726882L218.44519983291624,125.6611144270895L218.77768872155085,126.42666033494004L219.11017761018542,124.57356976138738L219.44266649881996,122.77215502162858L219.77515538745456,127.81420433748724L220.10764427608913,127.64724899188104L220.44013316472373,124.2371080283466L220.77262205335828,130.2809344986232L221.10511094199288,126.1016226021037L221.43759983062745,123.74594496663201L221.77008871926202,128.61567962759636L222.1025776078966,131.19801547325244L222.43506649653116,128.54339126975674L222.76755538516576,126.85168458767157L223.1000442738003,130.02658873362577L223.4325331624349,130.09857213324267L223.76502205106948,131.84333889427182L224.09751093970405,122.48998380766523L224.42999982833862,128.55571953738684L224.7624887169732,126.2203521195488L225.09497760560777,124.15815832219835L225.42746649424234,129.9764668608625L225.75995538287694,128.64968379533582L226.09244427151148,120.17406476900533L226.42493316014608,125.7095948290713L226.75742204878065,123.14423587508395L227.08991093741523,125.55303723295481L227.4223998260498,126.02259334163648L227.75488871468437,126.76157075876085L228.08737760331897,123.78246039904036L228.4198664919535,129.98392375236085L228.7523553805881,124.46760871213735L229.08484426922269,131.03964403866337L229.41733315785729,123.54251396577695L229.74982204649183,125.72830865670426L230.0823109351264,124.44429664486779L230.414799823761,129.80637177146752L230.74728871239554,121.9985396540236L231.07977760103014,131.1064033713344L231.41226648966472,125.75683683548777L231.74475537829932,128.58326389442573L232.07724426693386,122.39130993403307L232.40973315556843,127.40112118803347L232.74222204420303,123.46284296713668L233.07471093283758,127.15948555139721L233.40719982147218,127.89585623866992L233.73968871010675,121.18155922714675L234.07217759874132,136.33547560976007L234.4046664873759,134.93195179634193L234.7371553760105,136.47802501621084L235.06964426464504,138.11200178082834L235.4021331532796,136.49056675459684L235.7346220419142,134.43268877905064L236.06711093054878,138.4103397583122L236.39959981918335,135.72104710851363L236.73208870781792,134.09827822153403L237.06457759645252,132.52393404851296L237.39706648508707,137.32531166090024L237.72955537372164,137.6130145518428L238.06204426235624,136.8611652459087L238.39453315099078,134.9570975906638L238.72702203962538,135.31884168627403L239.05951092825995,132.41015546151857L239.39199981689455,137.8523285282704L239.7244887055291,137.61601374966807L240.05697759416367,137.6269219727045L240.38946648279827,134.22708196757168L240.7219553714328,134.09377279526956L241.0544442600674,135.39413321965486L241.38693314870198,133.07666684949095L241.71942203733659,136.91879704638296L242.05191092597113,138.39974047121444L242.38439981460573,132.88456438365756L242.7168887032403,133.32477555588093L243.04937759187484,130.75902943754124L243.38186648050944,133.48637291810434L243.71435536914402,132.3360877387446L244.0468442577786,131.75429904866724L244.37933314641316,138.7740621046542L244.71182203504776,133.48194704615884L245.04431092368233,133.806430550573L245.37679981231688,134.9316057350544L245.70928870095148,138.44612726870196L246.04177758958605,127.8539443716246L246.37426647822062,129.21226011738133L246.7067553668552,132.26493435585564L247.0392442554898,134.23092576708336L247.37173314412433,134.4164146171995L247.7042220327589,132.0806149542284L248.0367109213935,132.18905809823036L248.36919981002805,132.30934157670606L248.70168869866265,135.70822162638996L249.03417758729722,130.8026305079594L249.36666647593182,136.0514799500816L249.69915536456637,138.19938557069298L250.03164425320097,130.28409810870767L250.36413314183554,132.93327814497502L250.69662203047008,134.7077186669809L251.02911091910468,134.54963627975076L251.36159980773925,130.52644177878278L251.69408869637385,132.52153415989062L252.0265775850084,134.07680783674869L252.359066473643,131.30701019386595L252.69155536227757,135.61404257177975L253.0240442509121,135.21817497695162L253.3565331395467,126.50749017482667L253.68902202818128,131.8097961415824L254.02151091681588,135.04473595434916L254.35399980545043,133.5392752143157L254.68648869408503,132.14185056535212L255.0189775827196,135.39169487977836L255.35146647135417,133.87032062413977L255.68395535998874,129.9180236063347L256.0164442486233,130.90608029254054L256.3489331372579,141.62717300808083L256.68142202589246,142.71697303872583L257.01391091452706,141.89598837779403L257.3463998031616,142.3089084408939L257.6788886917962,143.92203799622467L258.01137758043075,140.79761902109038L258.34386646906535,143.96979843161978L258.67635535769995,144.79883730439488L259.0088442463345,141.80486155722173L259.3413331349691,145.0657122116778L259.67382202360363,145.21386555694752L260.00631091223823,142.21767687380162L260.3387998008728,144.29591942909946L260.6712886895074,140.34119600456575L261.003777578142,140.59454866648133L261.3362664667765,144.00651937935214L261.6687553554111,138.95900070406412L262.00124424404567,143.25578250797832L262.33373313268027,140.70660357656465L262.6662220213148,144.09464302438323L262.9987109099494,144.59558463780485" fill="none"></path></g></g></g></g></g></g><g transform="translate(30, 177)" clip-path="url(#clip_1)"><clipPath id="clip_1"><rect width="299" height="22"></rect></clipPath><g><g><line x1="0" y1="0" x2="0" y2="5" style="visibility: inherit;" fill="rgb(0, 0, 0)" stroke="rgb(204, 204, 204)" stroke-width="1px"></line><line x1="33.24888886345757" y1="0" x2="33.24888886345757" y2="5" style="visibility: inherit;" fill="rgb(0, 0, 0)" stroke="rgb(204, 204, 204)" stroke-width="1px"></line><line x1="66.49777772691515" y1="0" x2="66.49777772691515" y2="5" style="visibility: inherit;" fill="rgb(0, 0, 0)" stroke="rgb(204, 204, 204)" stroke-width="1px"></line><line x1="99.74666659037271" y1="0" x2="99.74666659037271" y2="5" style="visibility: inherit;" fill="rgb(0, 0, 0)" stroke="rgb(204, 204, 204)" stroke-width="1px"></line><line x1="132.9955554538303" y1="0" x2="132.9955554538303" y2="5" style="visibility: inherit;" fill="rgb(0, 0, 0)" stroke="rgb(204, 204, 204)" stroke-width="1px"></line><line x1="166.24444431728787" y1="0" x2="166.24444431728787" y2="5" style="visibility: inherit;" fill="rgb(0, 0, 0)" stroke="rgb(204, 204, 204)" stroke-width="1px"></line><line x1="199.49333318074542" y1="0" x2="199.49333318074542" y2="5" style="visibility: inherit;" fill="rgb(0, 0, 0)" stroke="rgb(204, 204, 204)" stroke-width="1px"></line><line x1="232.74222204420303" y1="0" x2="232.74222204420303" y2="5" style="visibility: inherit;" fill="rgb(0, 0, 0)" stroke="rgb(204, 204, 204)" stroke-width="1px"></line><line x1="265.9911109076606" y1="0" x2="265.9911109076606" y2="5" style="visibility: inherit;" fill="rgb(0, 0, 0)" stroke="rgb(204, 204, 204)" stroke-width="1px"></line><line x1="299.23999977111816" y1="0" x2="299.23999977111816" y2="5" style="visibility: inherit;" fill="rgb(0, 0, 0)" stroke="rgb(204, 204, 204)" stroke-width="1px"></line></g><g transform="translate(0, 8)"><text style="text-anchor: middle; visibility: hidden; font-family: &quot;Helvetica Neue&quot;, sans-serif; font-size: 12px; font-weight: 200;" x="0" y="0" dx="0em" dy="0.95em" fill="rgb(50, 49, 63)" stroke="none" stroke-width="1px">-100</text><text style="text-anchor: middle; visibility: inherit; font-family: &quot;Helvetica Neue&quot;, sans-serif; font-size: 12px; font-weight: 200;" x="33.24888886345757" y="0" dx="0em" dy="0.95em" fill="rgb(50, 49, 63)" stroke="none" stroke-width="1px">0</text><text style="text-anchor: middle; visibility: inherit; font-family: &quot;Helvetica Neue&quot;, sans-serif; font-size: 12px; font-weight: 200;" x="66.49777772691515" y="0" dx="0em" dy="0.95em" fill="rgb(50, 49, 63)" stroke="none" stroke-width="1px">100</text><text style="text-anchor: middle; visibility: inherit; font-family: &quot;Helvetica Neue&quot;, sans-serif; font-size: 12px; font-weight: 200;" x="99.74666659037271" y="0" dx="0em" dy="0.95em" fill="rgb(50, 49, 63)" stroke="none" stroke-width="1px">200</text><text style="text-anchor: middle; visibility: inherit; font-family: &quot;Helvetica Neue&quot;, sans-serif; font-size: 12px; font-weight: 200;" x="132.9955554538303" y="0" dx="0em" dy="0.95em" fill="rgb(50, 49, 63)" stroke="none" stroke-width="1px">300</text><text style="text-anchor: middle; visibility: inherit; font-family: &quot;Helvetica Neue&quot;, sans-serif; font-size: 12px; font-weight: 200;" x="166.24444431728787" y="0" dx="0em" dy="0.95em" fill="rgb(50, 49, 63)" stroke="none" stroke-width="1px">400</text><text style="text-anchor: middle; visibility: inherit; font-family: &quot;Helvetica Neue&quot;, sans-serif; font-size: 12px; font-weight: 200;" x="199.49333318074542" y="0" dx="0em" dy="0.95em" fill="rgb(50, 49, 63)" stroke="none" stroke-width="1px">500</text><text style="text-anchor: middle; visibility: inherit; font-family: &quot;Helvetica Neue&quot;, sans-serif; font-size: 12px; font-weight: 200;" x="232.74222204420303" y="0" dx="0em" dy="0.95em" fill="rgb(50, 49, 63)" stroke="none" stroke-width="1px">600</text><text style="text-anchor: middle; visibility: inherit; font-family: &quot;Helvetica Neue&quot;, sans-serif; font-size: 12px; font-weight: 200;" x="265.9911109076606" y="0" dx="0em" dy="0.95em" fill="rgb(50, 49, 63)" stroke="none" stroke-width="1px">700</text><text style="text-anchor: middle; visibility: hidden; font-family: &quot;Helvetica Neue&quot;, sans-serif; font-size: 12px; font-weight: 200;" x="299.23999977111816" y="0" dx="0em" dy="0.95em" fill="rgb(50, 49, 63)" stroke="none" stroke-width="1px">800</text></g><line x1="0" y1="0" x2="299.23999977111816" y2="0" fill="rgb(0, 0, 0)" stroke="rgb(204, 204, 204)" stroke-width="1px"></line></g></g></g></g></svg>