<svg viewBox="0 0 330 200" xmlns="http://www.w3.org/2000/svg"><g><g><g><g><g><line x1="30.760000228881836" y1="177.95999908447266" x2="25.760000228881836" y2="177.95999908447266" style="visibility: inherit;" fill="rgb(0, 0, 0)" stroke="rgb(204, 204, 204)" stroke-width="1px"></line><line x1="30.760000228881836" y1="155.71499919891357" x2="25.760000228881836" y2="155.71499919891357" style="visibility: inherit;" fill="rgb(0, 0, 0)" stroke="rgb(204, 204, 204)" stroke-width="1px"></line><line x1="30.760000228881836" y1="133.4699993133545" x2="25.760000228881836" y2="133.4699993133545" style="visibility: inherit;" fill="rgb(0, 0, 0)" stroke="rgb(204, 204, 204)" stroke-width="1px"></line><line x1="30.760000228881836" y1="111.22499942779541" x2="25.760000228881836" y2="111.22499942779541" style="visibility: inherit;" fill="rgb(0, 0, 0)" stroke="rgb(204, 204, 204)" stroke-width="1px"></line><line x1="30.760000228881836" y1="88.97999954223633" x2="25.760000228881836" y2="88.97999954223633" style="visibility: inherit;" fill="rgb(0, 0, 0)" stroke="rgb(204, 204, 204)" stroke-width="1px"></line><line x1="30.760000228881836" y1="66.73499965667725" x2="25.760000228881836" y2="66.73499965667725" style="visibility: inherit;" fill="rgb(0, 0, 0)" stroke="rgb(204, 204, 204)" stroke-width="1px"></line><line x1="30.760000228881836" y1="44.489999771118164" x2="25.760000228881836" y2="44.489999771118164" style="visibility: inherit;" fill="rgb(0, 0, 0)" stroke="rgb(204, 204, 204)" stroke-width="1px"></line><line x1="30.760000228881836" y1="22.244999885559082" x2="25.760000228881836" y2="22.244999885559082" style="visibility: inherit;" fill="rgb(0, 0, 0)" stroke="rgb(204, 204, 204)" stroke-width="1px"></line><line x1="30.760000228881836" y1="0" x2="25.760000228881836" y2="0" style="visibility: inherit;" fill="rgb(0, 0, 0)" stroke="rgb(204, 204, 204)" stroke-width="1px"></line></g><g transform="translate(20.760000228881836, 0)"><text style="text-anchor: end; visibility: hidden; font-family: &quot;Helvetica Neue&quot;, sans-serif; font-size: 12px; font-weight: 200;" x="0" y="177.95999908447266" dx="0em" dy="0.3em" fill="rgb(50, 49, 63)" stroke="none" stroke-width="1px">-1</text><text style="text-anchor: end; visibility: inherit; font-family: &quot;Helvetica Neue&quot;, sans-serif; font-size: 12px; font-weight: 200;" x="0" y="155.71499919891357" dx="0em" dy="0.3em" fill="rgb(50, 49, 63)" stroke="none" stroke-width="1px">0</text><text style="text-anchor: end; visibility: hidden; font-family: &quot;Helvetica Neue&quot;, sans-serif; font-size: 12px; font-weight: 200;" x="0" y="133.4699993133545" dx="0em" dy="0.3em" fill="rgb(50, 49, 63)" stroke="none" stroke-width="1px">1</text><text style="text-anchor: end; visibility: inherit; font-family: &quot;Helvetica Neue&quot;, sans-serif; font-size: 12px; font-weight: 200;" x="0" y="111.22499942779541" dx="0em" dy="0.3em" fill="rgb(50, 49, 63)" stroke="none" stroke-width="1px">2</text><text style="text-anchor: end; visibility: hidden; font-family: &quot;Helvetica Neue&quot;, sans-serif; font-size: 12px; font-weight: 200;" x="0" y="88.97999954223633" dx="0em" dy="0.3em" fill="rgb(50, 49, 63)" stroke="none" stroke-width="1px">3</text><text style="text-anchor: end; visibility: inherit; font-family: &quot;Helvetica Neue&quot;, sans-serif; font-size: 12px; font-weight: 200;" x="0" y="66.73499965667725" dx="0em" dy="0.3em" fill="rgb(50, 49, 63)" stroke="none" stroke-width="1px">4</text><text style="text-anchor: end; visibility: hidden; font-family: &quot;Helvetica Neue&quot;, sans-serif; font-size: 12px; font-weight: 200;" x="0" y="44.489999771118164" dx="0em" dy="0.3em" fill="rgb(50, 49, 63)" stroke="none" stroke-width="1px">5</text><text style="text-anchor: end; visibility: inherit; font-family: &quot;Helvetica Neue&quot;, sans-serif; font-size: 12px; font-weight: 200;" x="0" y="22.244999885559082" dx="0em" dy="0.3em" fill="rgb(50, 49, 63)" stroke="none" stroke-width="1px">6</text><text style="text-anchor: end; visibility: hidden; font-family: &quot;Helvetica Neue&quot;, sans-serif; font-size: 12px; font-weight: 200;" x="0" y="0" dx="0em" dy="0.3em" fill="rgb(50, 49, 63)" stroke="none" stroke-width="1px">7</text></g><line x1="30.760000228881836" y1="0" x2="30.760000228881836" y2="177.95999908447266" fill="rgb(0, 0, 0)" stroke="rgb(204, 204, 204)" stroke-width="1px"></line></g></g><g transform="translate(30, 0)" clip-path="url(#clip_0)"><clipPath id="clip_0"><rect width="299" height="177"></rect></clipPath><g><g><g><line x1="0" y1="0" x2="0" y2="177.95999908447266" fill="rgb(0, 0, 0)" stroke="rgb(60, 60, 60)" stroke-width="1px" opacity="0.25"></line><line x1="29.92399997711182" y1="0" x2="29.92399997711182" y2="177.95999908447266" fill="rgb(0, 0, 0)" stroke="rgb(60, 60, 60)" stroke-width="1px" opacity="0.25"></line><line x1="59.84799995422364" y1="0" x2="59.84799995422364" y2="177.95999908447266" fill="rgb(0, 0, 0)" stroke="rgb(60, 60, 60)" stroke-width="1px" opacity="0.25"></line><line x1="89.77199993133544" y1="0" x2="89.77199993133544" y2="177.95999908447266" fill="rgb(0, 0, 0)" stroke="rgb(60, 60, 60)" stroke-width="1px" opacity="0.25"></line><line x1="119.69599990844728" y1="0" x2="119.69599990844728" y2="177.95999908447266" fill="rgb(0, 0, 0)" stroke="rgb(60, 60, 60)" stroke-width="1px" opacity="0.25"></line><line x1="149.61999988555908" y1="0" x2="149.61999988555908" y2="177.95999908447266" fill="rgb(0, 0, 0)" stroke="rgb(60, 60, 60)" stroke-width="1px" opacity="0.25"></line><line x1="179.5439998626709" y1="0" x2="179.5439998626709" y2="177.95999908447266" fill="rgb(0, 0, 0)" stroke="rgb(60, 60, 60)" stroke-width="1px" opacity="0.25"></line><line x1="209.4679998397827" y1="0" x2="209.4679998397827" y2="177.95999908447266" fill="rgb(0, 0, 0)" stroke="rgb(60, 60, 60)" stroke-width="1px" opacity="0.25"></line><line x1="239.39199981689455" y1="0" x2="239.39199981689455" y2="177.95999908447266" fill="rgb(0, 0, 0)" stroke="rgb(60, 60, 60)" stroke-width="1px" opacity="0.25"></line><line x1="269.31599979400636" y1="0" x2="269.31599979400636" y2="177.95999908447266" fill="rgb(0, 0, 0)" stroke="rgb(60, 60, 60)" stroke-width="1px" opacity="0.25"></line><line x1="299.23999977111816" y1="0" x2="299.23999977111816" y2="177.95999908447266" fill="rgb(0, 0, 0)" stroke="rgb(60, 60, 60)" stroke-width="1px" opacity="0.25"></line></g><g><line x1="0" y1="177.95999908447266" x2="299.23999977111816" y2="177.95999908447266" fill="rgb(0, 0, 0)" stroke="rgb(60, 60, 60)" stroke-width="1px" opacity="0.25"></line><line x1="0" y1="155.71499919891357" x2="299.23999977111816" y2="155.71499919891357" fill="rgb(0, 0, 0)" stroke="rgb(60, 60, 60)" stroke-width="1px" opacity="0.25"></line><line x1="0" y1="133.4699993133545" x2="299.23999977111816" y2="133.4699993133545" fill="rgb(0, 0, 0)" stroke="rgb(60, 60, 60)" stroke-width="1px" opacity="0.25"></line><line x1="0" y1="111.22499942779541" x2="299.23999977111816" y2="111.22499942779541" fill="rgb(0, 0, 0)" stroke="rgb(60, 60, 60)" stroke-width="1px" opacity="0.25"></line><line x1="0" y1="88.97999954223633" x2="299.23999977111816" y2="88.97999954223633" fill="rgb(0, 0, 0)" stroke="rgb(60, 60, 60)" stroke-width="1px" opacity="0.25"></line><line x1="0" y1="66.73499965667725" x2="299.23999977111816" y2="66.73499965667725" fill="rgb(0, 0, 0)" stroke="rgb(60, 60, 60)" stroke-width="1px" opacity="0.25"></line><line x1="0" y1="44.489999771118164" x2="299.23999977111816" y2="44.489999771118164" fill="rgb(0, 0, 0)" stroke="rgb(60, 60, 60)" stroke-width="1px" opacity="0.25"></line><line x1="0" y1="22.244999885559082" x2="299.23999977111816" y2="22.244999885559082" fill="rgb(0, 0, 0)" stroke="rgb(60, 60, 60)" stroke-width="1px" opacity="0.25"></line><line x1="0" y1="0" x2="299.23999977111816" y2="0" fill="rgb(0, 0, 0)" stroke="rgb(60, 60, 60)" stroke-width="1px" opacity="0.25"></line></g></g></g><g><g><line x1="0" y1="155.71499919891357" x2="299.23999977111816" y2="155.71499919891357" fill="rgb(0, 0, 0)" stroke="rgb(153, 153, 153)" stroke-width="1.5px"></line></g></g><g><g><line x1="29.92399997711182" y1="0" x2="29.92399997711182" y2="177.95999908447266" fill="rgb(0, 0, 0)" stroke="rgb(153, 153, 153)" stroke-width="1.5px"></line></g></g><g><g><g><g><g><path style="fill: none;" stroke="rgb(255, 112, 67)" stroke-width="2px" d="M30.223239976882937,32.53816196391472L30.52247997665405,33.75123804133409L30.821719976425168,35.782620450946524L31.12095997619629,39.36796389115398L31.420199975967407,38.08933505490131L31.719439975738524,39.91503242462113L32.01867997550964,38.722428325284L32.31791997528076,43.85375614970417L32.61715997505188,42.04393782205125L32.916399974823,43.31032590042469L33.21563997459412,42.90890541413228L33.514879974365236,43.841133531093874L33.814119974136354,45.94493158545629L34.11335997390747,40.8230017779174L34.41259997367859,42.50361328431654L34.711839973449706,49.67360008672449L35.01107997322083,46.03265348117657L35.31031997299194,45.413020801564016L35.60955997276306,48.736736604777434L35.908799972534176,44.08685030429342L36.20803997230529,46.76265451931022L36.50727997207642,46.628122862306554L36.806519971847536,48.75093970252465L37.10575997161865,44.410986421514735L37.40499997138977,46.71653422879126L37.70423997116089,49.58595244170192L38.003479970932005,48.57352296397357L38.30271997070312,50.91922979146739L38.60195997047425,51.2169008385772L38.901199970245365,50.61250015923724L39.20043997001648,50.23007724431545L39.4996799697876,49.48359255129071L39.79891996955872,53.88544969970371L40.098159969329835,46.99446519755338L40.39739996910095,50.589386977765116L40.69663996887207,49.152073793268755L40.995879968643195,51.842675111614426L41.29511996841431,52.704821177182566L41.59435996818543,54.18392689724578L41.89359996795655,53.618635121112675L42.19283996772766,56.65197766007668L42.492079967498775,52.171616309701676L42.79131996726989,54.41901521343061L43.09055996704101,54.59419382380793L43.38979996681213,53.10574312307608L43.68903996658325,54.43986905224392L43.98827996635437,58.70185910066084L44.28751996612549,51.43236575608216L44.586759965896604,54.23435372823178L44.88599996566772,55.37105765943761L45.18523996543884,53.57282244062708L45.48447996520996,55.64565795404542L45.78371996498108,58.850975716142784L46.0829599647522,57.773937524166286L46.382199964523316,61.44994106627473L46.681439964294434,61.58682753111998L46.98067996406555,54.657720599318054L47.27991996383667,58.775430934846554L47.579159963607786,60.13759180602028L47.87839996337891,57.03198212370171L48.17763996315003,60.11815933770595L48.476879962921146,57.89841351525183L48.77611996269226,62.10420639274662L49.07535996246338,60.12822561086659L49.3745999622345,56.82542728992166L49.673839962005616,58.52970355440448L49.97307996177673,58.73140027110594L50.27231996154786,60.48283633587562L50.571559961318975,58.571750663792045L50.87079996109009,55.899828699541104L51.17003996086121,56.33179804431893L51.46927996063232,59.420584639985464L51.76851996040344,54.41288422724847L52.067759960174556,57.452188036514144L52.36699995994567,62.182074160156844L52.66623995971679,58.279181700338995L52.965479959487915,64.6478549730864L53.26471995925903,60.05954371548705L53.56395995903015,62.71567149561133L53.86319995880127,65.28622004300632L54.162439958572385,64.51958158917523L54.4616799583435,59.949058677298126L54.76091995811462,60.12242344920287L55.060159957885745,65.44705766148354L55.35939995765686,61.33679361021086L55.65863995742798,64.66734047761338L55.9578799571991,60.43018198395839L56.257119956970215,69.0584737038289L56.55635995674133,64.14454131505408L56.85559995651245,62.111132922118486L57.15483995628357,68.40394319629377L57.45407995605469,64.08333752565795L57.75331995582581,68.97529170791131L58.05255995559693,71.57738089096824L58.351799955368044,60.079050434499095L58.65103995513916,68.6960931736669L58.95027995491028,71.37996950024876L59.249519954681396,72.50770500789577L59.54875995445252,68.26081967284108L59.84799995422364,60.236334626728876L60.147239953994756,71.32944720408L60.44647995376587,65.92958112415772L60.74571995353699,66.53640025479444L61.0449599533081,66.02484476931659L61.34419995307922,69.81979262553136L61.643439952850336,66.86220701271418L61.942679952621454,66.53159517392851L62.24191995239258,66.46362396379845L62.541159952163696,66.84938816011709L62.84039995193481,67.99605229205827L63.13963995170593,68.614587122069L63.43887995147705,63.0744826886621L63.738119951248166,69.63733214315744L64.03735995101928,73.5447167701866L64.3365999507904,73.16442591101327L64.63583995056152,68.15713387711367L64.93507995033264,64.80607260265879L65.23431995010375,70.3138885898054L65.53355994987488,69.37383763147818L65.832799949646,69.922841986707L66.13203994941712,67.11502533478733L66.43127994918824,71.81465960273545L66.73051994895935,74.02697505179754L67.02975994873047,73.92060032008885L67.32899994850159,71.02928345497571L67.62823994827271,76.90627921474584L67.92747994804382,69.72010045661636L68.22671994781494,75.4723550442377L68.52595994758606,76.44367084992109L68.82519994735718,69.62620514574382L69.1244399471283,75.82732641549273L69.42367994689941,74.1188762010745L69.72291994667053,74.09436816720972L70.02215994644166,72.20336730885606L70.32139994621276,74.89247300600505L70.62063994598388,71.83661659477184L70.919879945755,69.27854746821299L71.21911994552612,76.47628281707853L71.51835994529723,71.67619796237454L71.81759994506835,70.73813055840037L72.11683994483947,77.48329729749548L72.41607994461059,71.45903058244357L72.71531994438172,76.73477601390505L73.01455994415284,70.83327752389141L73.31379994392395,71.0878407373607L73.61303994369507,72.7596058034901L73.91227994346619,77.24012626250305L74.2115199432373,72.74418287285198L74.51075994300842,74.01613975355349L74.80999994277954,72.69214374100147L75.10923994255066,75.0180945792838L75.40847994232178,73.13110325860634L75.7077199420929,78.24521552840088L76.00695994186401,70.98777201133589L76.30619994163513,79.05507319191906L76.60543994140625,74.0802128020539L76.90467994117736,75.19897988614207L77.2039199409485,72.86022080250518L77.50315994071961,75.7267803635541L77.80239994049073,75.1888870948751L78.10163994026185,80.59474096320537L78.40087994003297,76.2510857545526L78.70011993980408,75.52390624293184L78.9993599395752,72.67336892172398L79.29859993934632,73.72820085146463L79.59783993911743,72.36152659859454L79.89707993888855,78.00723143500545L80.19631993865967,77.14033862840529L80.49555993843079,78.4456818049689L80.7947999382019,77.97739856539079L81.09403993797302,74.18658223014131L81.39327993774414,79.1521347646867L81.69251993751527,78.31176536803196L81.99175993728639,71.41616141175996L82.2909999370575,77.6634825263468L82.59023993682862,79.86001439852475L82.88947993659974,76.78607794239974L83.18871993637086,83.18423404575833L83.48795993614198,77.39252051592666L83.7871999359131,80.39720228557553L84.08643993568421,83.29112853235097L84.38567993545531,68.05658782517503L84.68491993522643,83.14392122052436L84.98415993499755,79.57647750208571L85.28339993476867,78.779306100633L85.58263993453978,81.41813877181266L85.8818799343109,81.94875547211632L86.18111993408202,80.05989197313238L86.48035993385314,76.79567749688908L86.77959993362425,72.37280209740356L87.07883993339539,83.4482536159428L87.3780799331665,78.86325181801271L87.67731993293762,76.39148852029643L87.97655993270874,82.73377097363004L88.27579993247986,75.61695827802328L88.57503993225097,85.03823684216854L88.87427993202209,82.1499059158275L89.17351993179321,75.50137115617758L89.47275993156433,80.72733679844737L89.77199993133544,76.2991312595907L90.07123993110656,84.62487260078774L90.37047993087768,84.40554134338072L90.6697199306488,80.33559542096327L90.96895993041991,85.23098634979624L91.26819993019103,84.9001729734025L91.56743992996216,78.2383208207566L91.86667992973328,80.21485848286943L92.1659199295044,73.92226565716601L92.46515992927552,73.73283091282883L92.76439992904663,81.43875925129032L93.06363992881775,82.7212915527939L93.36287992858887,76.35451167283804L93.66211992835999,80.08094204593249L93.9613599281311,85.32034176086609L94.26059992790222,76.01834163896683L94.55983992767334,74.25361469930749L94.85907992744445,83.39476129186573L95.15831992721557,84.61396835546725L95.45755992698669,81.93062239101187L95.75679992675782,79.24872961878305L96.05603992652894,82.16696766543646L96.35527992630006,88.364917369669L96.65451992607117,82.55723463620893L96.95375992584229,82.2749918233585L97.25299992561341,78.67475051101815L97.55223992538453,81.69102599675193L97.85147992515564,83.69453257299642L98.15071992492676,78.370524188025L98.44995992469788,85.87337156463491L98.749199924469,80.83652244942641L99.04843992424011,83.03372257788374L99.34767992401123,81.4465131455795L99.64691992378235,84.41906027398477L99.94615992355347,87.27471028609193L100.2453999233246,86.07823984685274L100.54463992309572,77.35572929521254L100.84387992286683,89.31448302454532L101.14311992263795,84.6842784625751L101.44235992240907,84.16095954513185L101.74159992218019,85.59449124766638L102.0408399219513,88.13260815102694L102.34007992172242,84.68997455181352L102.63931992149354,88.6281785220126L102.93855992126464,86.81798894087115L103.23779992103576,91.44186628267244L103.53703992080688,89.37572393929031L103.836279920578,82.49733553764395L104.13551992034911,82.71624780897105L104.43475992012023,85.00877522604242L104.73399991989135,88.51163674833924L105.03323991966246,87.42744397127649L105.33247991943358,88.96740874535362L105.63171991920471,89.8560888281097L105.93095991897583,88.45356209548936L106.23019991874695,84.59415933004311L106.52943991851807,87.01649287757118L106.82867991828918,88.61119102310136L107.1279199180603,85.67989546089393L107.42715991783142,88.37683991027234L107.72639991760254,87.85067825183114L108.02563991737365,87.33638609778063L108.32487991714477,85.6646687642426L108.62411991691589,87.80024611722388L108.923359916687,90.02186411798448L109.22259991645812,84.17800008025574L109.52183991622924,89.82322228713156L109.82107991600036,87.25600441389088L110.12031991577149,83.0919510357503L110.4195599155426,89.13816943921734L110.71879991531372,94.80218237623444L111.01803991508484,79.59400597036597L111.31727991485596,89.68512659663793L111.61651991462708,91.26818859711307L111.9157599143982,82.84479698118798L112.21499991416931,88.30029804817832L112.51423991394043,86.26676236833237L112.81347991371155,92.28815982428L113.11271991348266,84.34973664043218L113.41195991325378,93.37749181034837L113.7111999130249,87.51990200078626L114.01043991279602,87.07045722394082L114.30967991256713,88.06869951478575L114.60891991233827,86.35801647581502L114.90815991210938,86.44431169741506L115.2073999118805,86.8590283622184L115.50663991165162,80.45734004709743L115.80587991142274,87.02790096691183L116.10511991119385,88.20304024142388L116.40435991096497,84.08768471373696L116.70359991073609,82.50454315894285L117.0028399105072,99.30013583834489L117.30207991027832,93.48718660896884L117.60131991004944,83.09119261790943L117.90055990982056,84.14511232479254L118.19979990959168,93.791953901331L118.49903990936279,86.07341355150174L118.79827990913391,89.8781518925714L119.09751990890504,91.6355863529916L119.39675990867616,83.98050383159602L119.69599990844728,78.17284231262101L119.9952399082184,89.8326096967703L120.29447990798951,94.53591407063368L120.59371990776063,84.45013949459667L120.89295990753175,88.1366866357796L121.19219990730286,91.35340187997508L121.49143990707398,81.53604887977235L121.79067990684509,86.06172437023406L122.0899199066162,92.2269825529902L122.38915990638732,91.63629173461982L122.68839990615844,85.52935747491301L122.98763990592956,93.11806517617924L123.28687990570067,92.69251851675313L123.58611990547179,93.54367017543927L123.88535990524291,87.3108014287991L124.18459990501403,90.24085594363055L124.48383990478516,99.24466526353604L124.78307990455627,94.05626517068504L125.08231990432739,92.37872446099823L125.38155990409851,93.55316896112458L125.68079990386963,90.85572066772602L125.98003990364074,87.79262481346632L126.27927990341186,90.37973657007137L126.57851990318298,86.1151159255071L126.8777599029541,89.50060300559198L127.17699990272521,94.73149040839553L127.47623990249633,93.14091317658813L127.77547990226745,88.47407119892046L128.07471990203857,95.79638330767557L128.37395990180968,96.73221788709725L128.6731999015808,94.49216980244137L128.97243990135192,90.15171798103256L129.27167990112304,95.33067762803216L129.57091990089415,96.50580629530168L129.87015990066527,85.12977204157824L130.1693999004364,90.99238438047814L130.4686399002075,91.43404874492808L130.76787989997862,93.189414793055L131.06711989974977,95.1002989275305L131.3663598995209,92.23519255870815L131.665599899292,91.52642191649761L131.96483989906312,88.80151147218976L132.26407989883424,97.42109994956468L132.56331989860536,95.40070664321297L132.86255989837647,91.34068379618202L133.1617998981476,94.0693598115879L133.4610398979187,89.25802067255995L133.76027989768983,91.31983526098998L134.05951989746094,91.30577005739565L134.35875989723206,96.03992029253527L134.65799989700318,92.00414560192712L134.9572398967743,94.32586945406138L135.25647989654541,91.9564819576201L135.55571989631653,94.46814970173295L135.85495989608765,95.96562186223628L136.15419989585877,90.76332628167143L136.45343989562988,96.47513014990591L136.752679895401,90.6283066915114L137.05191989517212,92.19807251347561L137.35115989494324,96.83318822873707L137.65039989471435,99.24254911865137L137.94963989448547,89.66740719799213L138.2488798942566,94.3639865800917L138.5481198940277,96.8972877953438L138.84735989379882,91.70208846003129L139.14659989356994,83.72497535905654L139.44583989334106,87.25493308239538L139.74507989311218,91.12166014880836L140.04431989288332,93.8719219027621L140.3435598926544,91.99589316723905L140.64279989242553,97.27021192458028L140.94203989219665,95.96521348339888L141.24127989196776,83.57840448178172L141.54051989173888,88.41974620630481L141.83975989151,97.53407238612681L142.13899989128112,92.05619003739889L142.43823989105223,94.34609216194417L142.73747989082335,91.09050137387749L143.03671989059447,93.25583734577572L143.3359598903656,87.97803941288475L143.6351998901367,91.02658213039376L143.93443988990782,94.63710186074536L144.23367988967894,88.88623151827414L144.53291988945006,85.41723892137452L144.83215988922117,97.43164354863916L145.1313998889923,96.01363554554678L145.43063988876344,99.73305453132912L145.72987988853455,91.06964223144291L146.02911988830567,93.79505121614966L146.3283598880768,95.0655708154884L146.6275998878479,95.22099874027549L146.92683988761902,92.7584213145899L147.22607988739014,92.25688967330257L147.52531988716126,97.63660199241849L147.82455988693238,84.18166488254974L148.1237998867035,91.51822782164345L148.4230398864746,99.71101268135249L148.72227988624573,91.04437577973727L149.02151988601685,92.92522020336878L149.32075988578796,105.12534704008522L149.61999988555908,102.70023969863564L149.9192398853302,98.42500120429918L150.21847988510132,99.29704913076876L150.51771988487243,96.95129457068356L150.81695988464355,95.95041107644875L151.11619988441467,94.52589553006442L151.4154398841858,97.70559680145266L151.7146798839569,96.5592614940299L152.01391988372802,95.05399301026728L152.31315988349914,100.03713765654811L152.61239988327026,93.29152010964549L152.91163988304137,99.94137016736909L153.2108798828125,102.7183409580125L153.5101198825836,97.30948524004634L153.80935988235473,102.59268756300617L154.10859988212587,99.80508301172677L154.407839881897,95.72443968521816L154.7070798816681,100.27239568861341L155.00631988143923,94.30513759853716L155.30555988121034,89.06233295875154L155.60479988098146,102.75969859663564L155.90403988075258,98.46567997940042L156.2032798805237,102.16328517092052L156.5025198802948,93.95072310751493L156.80175988006593,102.66125277871788L157.10099987983705,105.35212458174806L157.40023987960816,101.497351877666L157.69947987937928,92.45237054588165L157.9987198791504,99.82366159701746L158.29795987892152,100.2831355216747L158.59719987869263,91.66379631449922L158.89643987846375,101.59652959531832L159.19567987823487,95.93171050786896L159.494919878006,95.57697249594958L159.7941598777771,95.16344384230956L160.09339987754822,94.2598764946631L160.39263987731934,93.99122155949317L160.69187987709046,105.2494411704397L160.99111987686157,97.66329511824438L161.2903598766327,103.40737682549661L161.5895998764038,101.93699556241404L161.88883987617493,97.16725272496615L162.18807987594604,97.69868618294458L162.48731987571716,99.72167826371606L162.78655987548828,100.37537610271261L163.08579987525943,96.46954543671404L163.38503987503054,101.98659502848272L163.68427987480166,101.02268307808504L163.98351987457278,107.326021040471L164.2827598743439,99.19343758573905L164.581999874115,103.23838754113535L164.88123987388613,103.39414959406213L165.18047987365725,101.48305331473603L165.47971987342837,100.80136826632497L165.77895987319948,95.52754274576137L166.0781998729706,93.49699830830878L166.37743987274172,99.29922361548734L166.67667987251284,101.33439281068286L166.97591987228395,101.19665246281397L167.27515987205507,99.92185284111451L167.5743998718262,98.711317198281L167.8736398715973,100.71427750153521L168.17287987136842,89.54968271677672L168.4721198711395,97.1086158882622L168.77135987091063,103.35907144301655L169.07059987068175,101.73731952541448L169.36983987045286,103.05094165477249L169.66907987022398,106.11995104674247L169.9683198699951,103.63058503004822L170.26755986976622,95.70684757348272L170.56679986953733,109.70187365123411L170.86603986930845,97.09803516383886L171.16527986907957,108.09527948320692L171.4645198688507,95.94339968913664L171.7637598686218,103.91947858396475L172.06299986839292,102.14522103689251L172.36223986816404,100.72163892785079L172.66147986793516,101.50343513125677L172.96071986770627,106.87901592940739L173.2599598674774,101.67473679448949L173.5591998672485,102.53342489899296L173.85843986701965,104.97381727692778L174.15767986679077,109.23615736434817L174.4569198665619,108.09907157241128L174.756159866333,108.58968305751432L175.05539986610412,110.49269131441156L175.35463986587524,105.19476613882057L175.65387986564636,115.61972585741785L175.95311986541748,108.04848563278733L176.2523598651886,107.89562466069242L176.5515998649597,116.57533764053608L176.85083986473083,110.57411781169048L177.15007986450195,107.96661363132216L177.44931986427306,109.21338891825826L177.74855986404418,101.5454875442656L178.0477998638153,103.55751703988267L178.34703986358642,111.24628816355244L178.64627986335753,105.01761458133274L178.94551986312865,110.79414914710446L179.24475986289977,101.64088377995608L179.5439998626709,108.27712474551413L179.843239862442,107.64234492356923L180.14247986221312,105.62004761718345L180.44171986198424,104.31788130975747L180.74095986175536,105.00877874830553L181.04019986152647,110.96471360698138L181.3394398612976,112.10816374443607L181.6386798610687,113.79461984146906L181.93791986083983,109.05724500460042L182.23715986061094,109.4607657249137L182.53639986038206,109.20792618835549L182.8356398601532,106.17315167164998L183.13487985992433,107.18628122738528L183.43411985969544,107.36178335865975L183.73335985946656,102.62835441601214L184.03259985923768,111.53616819102422L184.3318398590088,115.02812546800055L184.6310798587799,104.04477663634634L184.93031985855103,102.95249583685472L185.22955985832215,108.8399185160315L185.52879985809327,109.55607710266395L185.82803985786438,110.55967074736509L186.1272798576355,114.89053627333772L186.42651985740662,111.98362941351661L186.72575985717774,112.88814080574821L187.02499985694885,108.11162524394513L187.32423985671997,113.1118634615625L187.6234798564911,109.59504811171792L187.9227198562622,103.43023543314803L188.22195985603332,108.21484432100124L188.52119985580444,107.722286406894L188.82043985557556,110.90311204599038L189.11967985534667,108.91964255088442L189.4189198551178,102.79481917665134L189.7181598548889,107.56090781904777L190.01739985466003,102.62407969727269L190.31663985443114,109.36422921065127L190.61587985420226,112.01800748655523L190.91511985397338,111.33551098409066L191.2143598537445,110.09633578642706L191.51359985351564,114.04722336688098L191.81283985328676,109.00331247995837L192.11207985305788,109.88806788297848L192.411319852829,108.16444931174283L192.7105598526001,104.31310274699786L193.00979985237123,106.58908816934422L193.30903985214235,104.8803197376501L193.60827985191347,107.08301972135905L193.90751985168458,112.33942284606769L194.2067598514557,116.6403945107811L194.50599985122682,104.96503978373448L194.80523985099794,106.32892433181928L195.10447985076905,112.78362234148221L195.40371985054017,108.56235349713666L195.7029598503113,106.46508950417251L196.0021998500824,102.07230154812237L196.30143984985352,107.82520848115928L196.60067984962464,113.407185004452L196.89991984939576,111.83253985092415L197.19915984916688,107.09266700843978L197.498399848938,107.09872374392421L197.7976398487091,109.19437013240258L198.09687984848023,114.87079884680065L198.39611984825135,111.17399450209155L198.69535984802246,105.66056198002548L198.99459984779358,113.73098168991237L199.2938398475647,112.76341554446321L199.59307984733582,108.98866387802491L199.89231984710693,102.43386001698832L200.19155984687805,114.08879580216535L200.4907998466492,105.257417816822L200.7900398464203,112.36358614455025L201.08927984619143,110.90461297080833L201.38851984596255,110.63757564012417L201.68775984573367,107.69328090219665L201.98699984550478,107.23749299431847L202.2862398452759,114.36361619705565L202.58547984504702,111.84450216868697L202.88471984481814,108.71357034663947L203.18395984458925,107.96993369823394L203.48319984436037,109.46732100079703L203.7824398441315,106.01197992503307L204.0816798439026,112.28912330199205L204.38091984367372,108.16698444270742L204.68015984344484,107.10240976070327L204.97939984321596,111.05866725768783L205.27863984298708,112.55018610332138L205.5778798427582,114.34641124967254L205.87711984252928,115.95225230348012L206.1763598423004,108.55138560836099L206.47559984207152,106.83426927679602L206.77483984184263,105.8902671206265L207.07407984161375,109.88002228951973L207.37331984138487,109.6012639558403L207.672559841156,110.94651157880048L207.9717998409271,109.8813375875934L208.27103984069822,113.90095744782889L208.57027984046934,110.44947210472446L208.86951984024046,106.7937071813626L209.16875984001157,111.20249616276874L209.4679998397827,107.85273957914501L209.7672398395538,107.65707838344292L210.06647983932493,105.23002461298915L210.36571983909604,113.84937177559652L210.66495983886716,111.32536515661104L210.96419983863828,119.08493697235565L211.26343983840943,105.93638741114546L211.56267983818054,106.12979456781L211.86191983795166,114.96773048084731L212.16115983772278,112.89258789217877L212.4603998374939,108.59313041133646L212.759639837265,110.65858328395416L213.05887983703613,115.10438623816754L213.35811983680725,108.74356232489208L213.65735983657837,109.88817925902504L213.95659983634948,108.65425464641362L214.2558398361206,114.1839189013607L214.55507983589172,114.81574195445046L214.85431983566284,116.87662310553787L215.15355983543395,115.51690190014597L215.45279983520507,109.1296447384866L215.7520398349762,107.03543032774974L216.0512798347473,113.40545602391967L216.35051983451842,105.41550815948403L216.64975983428954,113.09721220781842L216.94899983406066,109.77071995887286L217.24823983383178,108.6820031928712L217.5474798336029,114.28039707578921L217.846719833374,107.90903751887117L218.14595983314513,109.2833383791201L218.44519983291624,113.70124958910174L218.74443983268736,101.37661493957216L219.04367983245848,108.25116882304405L219.3429198322296,110.60203077040728L219.64215983200071,107.98828422781025L219.94139983177183,106.61288021433825L220.24063983154298,111.28794545677704L220.5398798313141,105.30530421322214L220.8391198310852,116.49215034099723L221.13835983085633,112.87328801439605L221.43759983062745,110.3945000703145L221.73683983039857,114.02891261446416L222.03607983016968,111.92645637628175L222.3353198299408,114.13942947438068L222.63455982971192,109.0084039563726L222.93379982948304,113.9910049814738L223.23303982925415,109.05685784024809L223.53227982902527,116.53852255352626L223.8315198287964,110.7790179156359L224.1307598285675,106.59527749536028L224.42999982833862,109.14934238786418L224.72923982810974,110.66479912807654L225.02847982788086,106.72511544754457L225.32771982765198,111.92842932339227L225.6269598274231,110.37762394744982L225.9261998271942,107.73493554361062L226.22543982696533,111.88711941736051L226.52467982673645,115.35805313964306L226.82391982650756,112.57452707311631L227.12315982627868,120.85537326030658L227.4223998260498,112.98137051215201L227.72163982582092,106.99913234381324L228.02087982559203,108.02071587184469L228.32011982536315,115.00377123915246L228.61935982513427,112.31312749183667L228.9185998249054,107.29502667779934L229.21783982467653,112.73668529328847L229.51707982444765,102.1577534939413L229.81631982421877,117.24303438786114L230.11555982398988,112.5734053572188L230.414799823761,107.51246454241482L230.71403982353212,106.80195961605068L231.01327982330324,110.62988538929017L231.31251982307435,111.95122693939913L231.61175982284547,109.90106705869857L231.9109998226166,107.29236956354566L232.2102398223877,117.59984081207381L232.50947982215882,111.10129246179326L232.80871982192994,109.69627302717845L233.10795982170106,111.75667685235203L233.40719982147218,112.9030784550406L233.7064398212433,112.50395178494523L234.0056798210144,110.27465944421442L234.30491982078553,115.47918519752113L234.60415982055665,116.30985161907188L234.90339982032776,110.3063750993781L235.20263982009888,113.34900958279809L235.50187981987,104.46219284437348L235.80111981964112,110.78904175982643L236.10035981941223,111.25197629735896L236.39959981918335,112.62951236657943L236.69883981895447,111.41133155369266L236.99807981872559,103.05367832334514L237.2973198184967,114.01030751106714L237.59655981826782,107.08554424508111L237.89579981803897,116.56778263204433L238.19503981781008,111.20561469207246L238.4942798175812,115.4618635704702L238.79351981735232,99.72672731116018L239.09275981712344,108.68297905918394L239.39199981689455,114.60118660799242L239.69123981666567,111.58429590219191L239.9904798164368,112.69409191091063L240.2897198162079,111.83181855843213L240.58895981597902,111.99029341363587L240.88819981575014,111.2670889661531L241.18743981552126,113.52754273362541L241.48667981529238,112.0934408918049L241.7859198150635,115.98235035415803L242.0851598148346,104.66304098167257L242.38439981460573,115.04880428731212L242.68363981437685,110.63652021949247L242.98287981414796,111.06862745842318L243.28211981391905,113.2413831964709L243.58135981369017,112.49704381824779L243.8805998134613,110.97440862665349L244.1798398132324,118.92157217834574L244.47907981300352,110.88447512086577L244.77831981277464,114.648961628346L245.07755981254576,112.45351699852733L245.37679981231688,114.062654252951L245.676039812088,110.80371687986622L245.9752798118591,110.81158215020196L246.27451981163023,110.58616233558291L246.57375981140135,113.99845126572961L246.87299981117246,114.0137734275637L247.17223981094358,112.80112959527742L247.4714798107147,109.54136485727531L247.77071981048582,108.25213408211425L248.06995981025693,119.5428171588228L248.36919981002805,111.05701783147447L248.6684398097992,109.19643854469587L248.9676798095703,105.24465730405882L249.26691980934143,108.24255574210997L249.56615980911255,116.54404892688422L249.86539980888367,115.54687001210289L250.16463980865478,110.36379210319114L250.4638798084259,109.53892519149349L250.76311980819702,118.70909054780225L251.06235980796814,115.41491591503393L251.36159980773925,109.99057097116383L251.66083980751037,111.08254946424336L251.9600798072815,110.6054356952593L252.2593198070526,113.68530425176903L252.55855980682372,112.50927662069512L252.85779980659484,109.12879085546297L253.15703980636596,111.04407699558828L253.45627980613708,110.88965675884151L253.7555198059082,107.65795348095162L254.0547598056793,115.50723074676955L254.35399980545043,107.84433864306152L254.65323980522155,114.86493569349238L254.95247980499266,109.63910529356485L255.25171980476378,118.63932671368468L255.5509598045349,111.11782384927574L255.85019980430602,109.246106957841L256.14943980407713,114.03997862023323L256.4486798038483,108.67930364964741L256.74791980361937,107.29998026006069L257.0471598033905,112.72497754934636L257.3463998031616,112.18281751735981L257.64563980293275,113.51424125149322L257.94487980270384,114.80660911863242L258.244119802475,116.44532466885005L258.5433598022461,107.85508377974406L258.8425998020172,104.63480450205861L259.1418398017883,110.34530367946195L259.44107980155945,113.51056584195669L259.74031980133054,112.19071460942314L260.0395598011017,107.05892536995293L260.3387998008728,111.51134989531545L260.6380398006439,121.2546590390399L260.937279800415,113.0301028361439L261.23651980018616,111.34540223774957L261.53575979995725,113.80620029850081L261.8349997997284,112.38920263525938L262.13423979949954,112.6369135700545L262.43347979927063,112.16471890979358L262.7327197990418,102.61851619856589L263.03195979881286,113.53031387573628L263.331199798584,109.57620434536398L263.6304397983551,110.97622246512606L263.92967979812624,115.18783341514836L264.22891979789733,112.16643993489402L264.5281597976685,105.08428110063164L264.82739979743957,119.08680384704087L265.1266397972107,110.32719181284256L265.4258797969818,112.68162574912765L265.72511979675295,119.49678437805471L266.02435979652404,108.30665000509543L266.3235997962952,113.34392606181575L266.6228397960663,113.13982150106006L266.9220797958374,111.22500473141667L267.2213197956085,111.46750220650847L267.52055979537965,116.25807766828461L267.81979979515074,113.32393671326861L268.1190397949219,107.77430432425945L268.418279794693,110.56296429617055L268.7175197944641,116.66637429954687L269.0167597942352,114.6861850941932L269.31599979400636,115.68699433773031L269.61523979377745,112.71380016753074L269.9144797935486,116.82485445837187L270.2137197933197,113.34096398933934L270.51295979309083,119.69167124505213L270.812199792862,113.4203883695908L271.11143979263306,108.81525667715005L271.4106797924042,120.50094285842056L271.7099197921753,117.59655787051088L272.00915979194644,109.62375661362444L272.30839979171753,118.44171378535714L272.6076397914887,109.40785679917576L272.90687979125977,119.56295766057599L273.2061197910309,112.18445633633064L273.505359790802,117.96766550946415L273.80459979057315,121.70449628385893L274.10383979034424,113.73811506051356L274.4030797901154,116.36857331371607L274.7023197898865,108.15282377393032L275.0015597896576,115.40948765866938L275.3007997894287,112.27996925168895L275.60003978919985,114.94971938303195L275.89927978897094,116.33893137446694L276.1985197887421,117.56248740750561L276.4977597885132,114.640780792545L276.7969997882843,116.77909481409893L277.0962397880554,115.49396108636495L277.39547978782656,113.41680046980514L277.69471978759765,118.05882149995341L277.9939597873688,109.0693266538417L278.2931997871399,113.55707594863861L278.59243978691103,116.43173679116956L278.8916797866821,116.00718986435186L279.19091978645326,109.82714518550938L279.49015978622435,120.6652755633113L279.7893997859955,119.85130494150224L280.08863978576665,112.13683512099374L280.38787978553773,109.76357598102913L280.6871197853088,110.79745330315245L280.9863597850799,122.0024749410021L281.28559978485106,119.97312116652347L281.5848397846222,113.2940269411456L281.8840797843933,111.48108743237833L282.18331978416444,113.7158902356033L282.4825597839355,116.66115818803291L282.7817997837067,116.9441991958837L283.08103978347776,106.25056863125269L283.3802797832489,115.52049245174226L283.67951978302,112.08609537635311L283.97875978279114,112.41789257449147L284.27799978256223,110.13419303501541L284.5772397823334,115.75109125252641L284.87647978210447,116.42221148737792L285.1757197818756,119.06241514465455L285.4749597816467,117.11782649704105L285.77419978141785,110.7635313415426L286.07343978118894,112.11561002869189L286.3726797809601,117.32130257867686L286.6719197807312,115.89101404054577L286.9711597805023,118.72657393530176L287.2703997802734,109.28167304204294L287.56963978004455,119.66467050919289L287.86887977981564,110.00257836970741L288.1681197795868,111.5833545094174L288.4673597793579,105.99994600838318L288.766599779129,109.24241563744067L289.0658397789001,112.85327745136385L289.36507977867126,116.86206201335528L289.66431977844235,114.33669501551537L289.9635597782135,114.29535328775603L290.2627997779846,110.71786185883116L290.56203977775573,114.20777193799927L290.8612797775269,112.07251280229389L291.16051977729796,109.65064597343712" fill="none"></path></g></g></g></g></g></g><g transform="translate(30, 177)" clip-path="url(#clip_1)"><clipPath id="clip_1"><rect width="299" height="22"></rect></clipPath><g><g><line x1="0" y1="0" x2="0" y2="5" style="visibility: inherit;" fill="rgb(0, 0, 0)" stroke="rgb(204, 204, 204)" stroke-width="1px"></line><line x1="29.92399997711182" y1="0" x2="29.92399997711182" y2="5" style="visibility: inherit;" fill="rgb(0, 0, 0)" stroke="rgb(204, 204, 204)" stroke-width="1px"></line><line x1="59.84799995422364" y1="0" x2="59.84799995422364" y2="5" style="visibility: inherit;" fill="rgb(0, 0, 0)" stroke="rgb(204, 204, 204)" stroke-width="1px"></line><line x1="89.77199993133544" y1="0" x2="89.77199993133544" y2="5" style="visibility: inherit;" fill="rgb(0, 0, 0)" stroke="rgb(204, 204, 204)" stroke-width="1px"></line><line x1="119.69599990844728" y1="0" x2="119.69599990844728" y2="5" style="visibility: inherit;" fill="rgb(0, 0, 0)" stroke="rgb(204, 204, 204)" stroke-width="1px"></line><line x1="149.61999988555908" y1="0" x2="149.61999988555908" y2="5" style="visibility: inherit;" fill="rgb(0, 0, 0)" stroke="rgb(204, 204, 204)" stroke-width="1px"></line><line x1="179.5439998626709" y1="0" x2="179.5439998626709" y2="5" style="visibility: inherit;" fill="rgb(0, 0, 0)" stroke="rgb(204, 204, 204)" stroke-width="1px"></line><line x1="209.4679998397827" y1="0" x2="209.4679998397827" y2="5" style="visibility: inherit;" fill="rgb(0, 0, 0)" stroke="rgb(204, 204, 204)" stroke-width="1px"></line><line x1="239.39199981689455" y1="0" x2="239.39199981689455" y2="5" style="visibility: inherit;" fill="rgb(0, 0, 0)" stroke="rgb(204, 204, 204)" stroke-width="1px"></line><line x1="269.31599979400636" y1="0" x2="269.31599979400636" y2="5" style="visibility: inherit;" fill="rgb(0, 0, 0)" stroke="rgb(204, 204, 204)" stroke-width="1px"></line><line x1="299.23999977111816" y1="0" x2="299.23999977111816" y2="5" style="visibility: inherit;" fill="rgb(0, 0, 0)" stroke="rgb(204, 204, 204)" stroke-width="1px"></line></g><g transform="translate(0, 8)"><text style="text-anchor: middle; visibility: hidden; font-family: &quot;Helvetica Neue&quot;, sans-serif; font-size: 12px; font-weight: 200;" x="0" y="0" dx="0em" dy="0.95em" fill="rgb(50, 49, 63)" stroke="none" stroke-width="1px">-100</text><text style="text-anchor: middle; visibility: inherit; font-family: &quot;Helvetica Neue&quot;, sans-serif; font-size: 12px; font-weight: 200;" x="29.92399997711182" y="0" dx="0em" dy="0.95em" fill="rgb(50, 49, 63)" stroke="none" stroke-width="1px">0</text><text style="text-anchor: middle; visibility: inherit; font-family: &quot;Helvetica Neue&quot;, sans-serif; font-size: 12px; font-weight: 200;" x="59.84799995422364" y="0" dx="0em" dy="0.95em" fill="rgb(50, 49, 63)" stroke="none" stroke-width="1px">100</text><text style="text-anchor: middle; visibility: inherit; font-family: &quot;Helvetica Neue&quot;, sans-serif; font-size: 12px; font-weight: 200;" x="89.77199993133544" y="0" dx="0em" dy="0.95em" fill="rgb(50, 49, 63)" stroke="none" stroke-width="1px">200</text><text style="text-anchor: middle; visibility: inherit; font-family: &quot;Helvetica Neue&quot;, sans-serif; font-size: 12px; font-weight: 200;" x="119.69599990844728" y="0" dx="0em" dy="0.95em" fill="rgb(50, 49, 63)" stroke="none" stroke-width="1px">300</text><text style="text-anchor: middle; visibility: inherit; font-family: &quot;Helvetica Neue&quot;, sans-serif; font-size: 12px; font-weight: 200;" x="149.61999988555908" y="0" dx="0em" dy="0.95em" fill="rgb(50, 49, 63)" stroke="none" stroke-width="1px">400</text><text style="text-anchor: middle; visibility: inherit; font-family: &quot;Helvetica Neue&quot;, sans-serif; font-size: 12px; font-weight: 200;" x="179.5439998626709" y="0" dx="0em" dy="0.95em" fill="rgb(50, 49, 63)" stroke="none" stroke-width="1px">500</text><text style="text-anchor: middle; visibility: inherit; font-family: &quot;Helvetica Neue&quot;, sans-serif; font-size: 12px; font-weight: 200;" x="209.4679998397827" y="0" dx="0em" dy="0.95em" fill="rgb(50, 49, 63)" stroke="none" stroke-width="1px">600</text><text style="text-anchor: middle; visibility: inherit; font-family: &quot;Helvetica Neue&quot;, sans-serif; font-size: 12px; font-weight: 200;" x="239.39199981689455" y="0" dx="0em" dy="0.95em" fill="rgb(50, 49, 63)" stroke="none" stroke-width="1px">700</text><text style="text-anchor: middle; visibility: inherit; font-family: &quot;Helvetica Neue&quot;, sans-serif; font-size: 12px; font-weight: 200;" x="269.31599979400636" y="0" dx="0em" dy="0.95em" fill="rgb(50, 49, 63)" stroke="none" stroke-width="1px">800</text><text style="text-anchor: middle; visibility: hidden; font-family: &quot;Helvetica Neue&quot;, sans-serif; font-size: 12px; font-weight: 200;" x="299.23999977111816" y="0" dx="0em" dy="0.95em" fill="rgb(50, 49, 63)" stroke="none" stroke-width="1px">900</text></g><line x1="0" y1="0" x2="299.23999977111816" y2="0" fill="rgb(0, 0, 0)" stroke="rgb(204, 204, 204)" stroke-width="1px"></line></g></g></g></g></svg>