<svg viewBox="0 0 330 200" xmlns="http://www.w3.org/2000/svg"><g><g><g><g><g><line x1="41.140000343322754" y1="177.95999908447266" x2="36.140000343322754" y2="177.95999908447266" style="visibility: inherit;" fill="rgb(0, 0, 0)" stroke="rgb(204, 204, 204)" stroke-width="1px"></line><line x1="41.140000343322754" y1="152.53714207240515" x2="36.140000343322754" y2="152.53714207240515" style="visibility: inherit;" fill="rgb(0, 0, 0)" stroke="rgb(204, 204, 204)" stroke-width="1px"></line><line x1="41.140000343322754" y1="127.11428506033761" x2="36.140000343322754" y2="127.11428506033761" style="visibility: inherit;" fill="rgb(0, 0, 0)" stroke="rgb(204, 204, 204)" stroke-width="1px"></line><line x1="41.140000343322754" y1="101.6914280482701" x2="36.140000343322754" y2="101.6914280482701" style="visibility: inherit;" fill="rgb(0, 0, 0)" stroke="rgb(204, 204, 204)" stroke-width="1px"></line><line x1="41.140000343322754" y1="76.26857103620257" x2="36.140000343322754" y2="76.26857103620257" style="visibility: inherit;" fill="rgb(0, 0, 0)" stroke="rgb(204, 204, 204)" stroke-width="1px"></line><line x1="41.140000343322754" y1="50.84571402413505" x2="36.140000343322754" y2="50.84571402413505" style="visibility: inherit;" fill="rgb(0, 0, 0)" stroke="rgb(204, 204, 204)" stroke-width="1px"></line><line x1="41.140000343322754" y1="25.42285701206754" x2="36.140000343322754" y2="25.42285701206754" style="visibility: inherit;" fill="rgb(0, 0, 0)" stroke="rgb(204, 204, 204)" stroke-width="1px"></line><line x1="41.140000343322754" y1="0" x2="36.140000343322754" y2="0" style="visibility: inherit;" fill="rgb(0, 0, 0)" stroke="rgb(204, 204, 204)" stroke-width="1px"></line></g><g transform="translate(31.140000343322754, 0)"><text style="text-anchor: end; visibility: hidden; font-family: &quot;Helvetica Neue&quot;, sans-serif; font-size: 12px; font-weight: 200;" x="0" y="177.95999908447266" dx="0em" dy="0.3em" fill="rgb(50, 49, 63)" stroke="none" stroke-width="1px">2.5</text><text style="text-anchor: end; visibility: inherit; font-family: &quot;Helvetica Neue&quot;, sans-serif; font-size: 12px; font-weight: 200;" x="0" y="152.53714207240515" dx="0em" dy="0.3em" fill="rgb(50, 49, 63)" stroke="none" stroke-width="1px">3</text><text style="text-anchor: end; visibility: inherit; font-family: &quot;Helvetica Neue&quot;, sans-serif; font-size: 12px; font-weight: 200;" x="0" y="127.11428506033761" dx="0em" dy="0.3em" fill="rgb(50, 49, 63)" stroke="none" stroke-width="1px">3.5</text><text style="text-anchor: end; visibility: inherit; font-family: &quot;Helvetica Neue&quot;, sans-serif; font-size: 12px; font-weight: 200;" x="0" y="101.6914280482701" dx="0em" dy="0.3em" fill="rgb(50, 49, 63)" stroke="none" stroke-width="1px">4</text><text style="text-anchor: end; visibility: inherit; font-family: &quot;Helvetica Neue&quot;, sans-serif; font-size: 12px; font-weight: 200;" x="0" y="76.26857103620257" dx="0em" dy="0.3em" fill="rgb(50, 49, 63)" stroke="none" stroke-width="1px">4.5</text><text style="text-anchor: end; visibility: inherit; font-family: &quot;Helvetica Neue&quot;, sans-serif; font-size: 12px; font-weight: 200;" x="0" y="50.84571402413505" dx="0em" dy="0.3em" fill="rgb(50, 49, 63)" stroke="none" stroke-width="1px">5</text><text style="text-anchor: end; visibility: inherit; font-family: &quot;Helvetica Neue&quot;, sans-serif; font-size: 12px; font-weight: 200;" x="0" y="25.42285701206754" dx="0em" dy="0.3em" fill="rgb(50, 49, 63)" stroke="none" stroke-width="1px">5.5</text><text style="text-anchor: end; visibility: hidden; font-family: &quot;Helvetica Neue&quot;, sans-serif; font-size: 12px; font-weight: 200;" x="0" y="0" dx="0em" dy="0.3em" fill="rgb(50, 49, 63)" stroke="none" stroke-width="1px">6</text></g><line x1="41.140000343322754" y1="0" x2="41.140000343322754" y2="177.95999908447266" fill="rgb(0, 0, 0)" stroke="rgb(204, 204, 204)" stroke-width="1px"></line></g></g><g transform="translate(41, 0)" clip-path="url(#clip_0)"><clipPath id="clip_0"><rect width="288" height="177"></rect></clipPath><g><g><g><line x1="0" y1="0" x2="0" y2="177.95999908447266" fill="rgb(0, 0, 0)" stroke="rgb(60, 60, 60)" stroke-width="1px" opacity="0.25"></line><line x1="36.107499957084656" y1="0" x2="36.107499957084656" y2="177.95999908447266" fill="rgb(0, 0, 0)" stroke="rgb(60, 60, 60)" stroke-width="1px" opacity="0.25"></line><line x1="72.21499991416931" y1="0" x2="72.21499991416931" y2="177.95999908447266" fill="rgb(0, 0, 0)" stroke="rgb(60, 60, 60)" stroke-width="1px" opacity="0.25"></line><line x1="108.32249987125397" y1="0" x2="108.32249987125397" y2="177.95999908447266" fill="rgb(0, 0, 0)" stroke="rgb(60, 60, 60)" stroke-width="1px" opacity="0.25"></line><line x1="144.42999982833862" y1="0" x2="144.42999982833862" y2="177.95999908447266" fill="rgb(0, 0, 0)" stroke="rgb(60, 60, 60)" stroke-width="1px" opacity="0.25"></line><line x1="180.53749978542328" y1="0" x2="180.53749978542328" y2="177.95999908447266" fill="rgb(0, 0, 0)" stroke="rgb(60, 60, 60)" stroke-width="1px" opacity="0.25"></line><line x1="216.64499974250793" y1="0" x2="216.64499974250793" y2="177.95999908447266" fill="rgb(0, 0, 0)" stroke="rgb(60, 60, 60)" stroke-width="1px" opacity="0.25"></line><line x1="252.7524996995926" y1="0" x2="252.7524996995926" y2="177.95999908447266" fill="rgb(0, 0, 0)" stroke="rgb(60, 60, 60)" stroke-width="1px" opacity="0.25"></line><line x1="288.85999965667725" y1="0" x2="288.85999965667725" y2="177.95999908447266" fill="rgb(0, 0, 0)" stroke="rgb(60, 60, 60)" stroke-width="1px" opacity="0.25"></line></g><g><line x1="0" y1="177.95999908447266" x2="288.85999965667725" y2="177.95999908447266" fill="rgb(0, 0, 0)" stroke="rgb(60, 60, 60)" stroke-width="1px" opacity="0.25"></line><line x1="0" y1="152.53714207240515" x2="288.85999965667725" y2="152.53714207240515" fill="rgb(0, 0, 0)" stroke="rgb(60, 60, 60)" stroke-width="1px" opacity="0.25"></line><line x1="0" y1="127.11428506033761" x2="288.85999965667725" y2="127.11428506033761" fill="rgb(0, 0, 0)" stroke="rgb(60, 60, 60)" stroke-width="1px" opacity="0.25"></line><line x1="0" y1="101.6914280482701" x2="288.85999965667725" y2="101.6914280482701" fill="rgb(0, 0, 0)" stroke="rgb(60, 60, 60)" stroke-width="1px" opacity="0.25"></line><line x1="0" y1="76.26857103620257" x2="288.85999965667725" y2="76.26857103620257" fill="rgb(0, 0, 0)" stroke="rgb(60, 60, 60)" stroke-width="1px" opacity="0.25"></line><line x1="0" y1="50.84571402413505" x2="288.85999965667725" y2="50.84571402413505" fill="rgb(0, 0, 0)" stroke="rgb(60, 60, 60)" stroke-width="1px" opacity="0.25"></line><line x1="0" y1="25.42285701206754" x2="288.85999965667725" y2="25.42285701206754" fill="rgb(0, 0, 0)" stroke="rgb(60, 60, 60)" stroke-width="1px" opacity="0.25"></line><line x1="0" y1="0" x2="288.85999965667725" y2="0" fill="rgb(0, 0, 0)" stroke="rgb(60, 60, 60)" stroke-width="1px" opacity="0.25"></line></g></g></g><g><g><line x1="0" y1="305.07428414481024" x2="288.85999965667725" y2="305.07428414481024" fill="rgb(0, 0, 0)" stroke="rgb(153, 153, 153)" stroke-width="1.5px"></line></g></g><g><g><line x1="36.107499957084656" y1="0" x2="36.107499957084656" y2="177.95999908447266" fill="rgb(0, 0, 0)" stroke="rgb(153, 153, 153)" stroke-width="1.5px"></line></g></g><g><g><g><g><g><path style="fill: none;" stroke="rgb(51, 187, 238)" stroke-width="2px" d="M37.91287495493889,27.466866586251342L39.71824995279312,36.561046581868794L41.52362495064735,40.09565038567277L43.32899994850158,42.25590350829583L45.13437494635582,45.18486951788756L46.93974994421006,49.80199671126627L48.74512494206429,55.766363562953686L50.55049993991852,58.93138393328957L52.35587493777275,55.10314822866496L54.161249935626984,61.0820952549016L55.96662493348122,61.54717794322232L57.77199993133545,60.43134301894834L59.57737492918968,65.5110941994334L61.38274992704391,68.79339639821481L63.18812492489815,64.62907977194469L64.99349992275238,66.42764949020079L66.79887492060662,67.96824947627559L68.60424991846084,70.71133175244067L70.40962491631508,76.21698446323725L72.21499991416931,74.2798319445578L74.02037491202354,75.34254187799989L75.82574990987779,79.80805285389133L77.631124907732,77.8638658977899L79.43649990558625,79.41015383056919L81.24187490344048,79.84708278310349L83.0472499012947,85.5122651586741L84.85262489914895,88.19349858421069L86.65799989700317,88.12242685893555L88.46337489485741,84.8769627635891L90.26874989271164,84.40162637943972L92.07412489056587,90.86806266880899L93.87949988842011,85.0911089220254L95.68487488627433,94.01240269506637L97.49024988412857,93.07524612828605L99.2956248819828,88.23479300905667L101.10099987983703,86.74792035276487L102.90637487769128,89.7059421629266L104.7117498755455,90.39128595916925L106.51712487339974,93.71853110399579L108.32249987125397,98.9242442824124L110.1278748691082,97.57147887122973L111.93324986696244,98.10103088997347L113.73862486481666,101.94237896736067L115.5439998626709,103.13833698524772L117.34937486052513,102.04993116835394L119.15474985837936,103.343606411857L120.9601248562336,105.37971436824515L122.76549985408782,106.14585202077505L124.57087485194207,98.06718685379465L126.3762498497963,102.6265777115064L128.1816248476505,106.0432820544575L129.98699984550476,109.40390887754765L131.792374843359,109.95338212619988L133.59774984121324,105.93590047558412L135.40312483906746,108.38544392874094L137.20849983692167,110.86065415901844L139.01387483477592,105.46237573054415L140.81924983263016,102.81926658273106L142.6246248304844,105.93092330847225L144.42999982833862,112.53326195456549L146.23537482619284,111.13794220290376L148.04074982404708,117.51157564418216L149.84612482190133,118.97339308617114L151.65149981975557,113.01895385584915L153.4568748176098,108.489446730616L155.262249815464,111.36483597506808L157.06762481331825,108.97725245872181L158.8729998111725,110.19452003198947L160.67837480902674,110.47005171432859L162.48374980688095,114.59074478894591L164.28912480473517,117.16352575640383L166.0944998025894,114.99471763979987L167.89987480044365,115.57522790546372L169.7052497982979,115.23196609705408L171.51062479615211,121.27052542013823L173.31599979400633,126.33253649377767L175.12137479186057,120.31087677417362L176.92674978971482,124.97795992290247L178.73212478756906,125.41854809637397L180.53749978542328,125.7639815500973L182.3428747832775,121.96875442869768L184.14824978113174,126.40397820912915L185.95362477898598,123.32397337074553L187.75899977684023,125.87262036923853L189.56437477469444,128.5421150221673L191.36974977254866,128.9913779481754L193.1751247704029,129.8406075670788L194.98049976825715,132.90945596695175L196.7858747661114,131.79315545199665L198.5912497639656,131.21989983778718L200.39662476181982,127.97182166185786L202.20199975967407,130.17902087858727L204.0073747575283,125.50776810300016L205.81274975538255,127.8798475943229L207.61812475323677,126.98455330667713L209.423499751091,131.1750792810916L211.22887474894523,126.69251826141637L213.03424974679947,124.23822725604958L214.83962474465372,126.72742258222468L216.64499974250793,130.2370189672126L218.45037474036215,128.11691441171632L220.2557497382164,128.83195309336665L222.06112473607064,129.06341247040905L223.86649973392488,127.1964597465323L225.6718747317791,128.77770427197106L227.47724972963331,134.87839474517108L229.28262472748756,133.5852728334794L231.0879997253418,130.3374539441766L232.89337472319605,125.41692116688192L234.69874972105026,125.27739491908768L236.50412471890448,129.4603703487172L238.30949971675872,131.40554966435735L240.11487471461297,132.83457249854007L241.9202497124672,135.06334870158588L243.72562471032143,135.3426783599124L245.53099970817564,132.7485041790216L247.3363747060299,138.2993564639748L249.14174970388413,140.15201589095048L250.94712470173837,137.03369052659096L252.7524996995926,137.54331935949224L254.5578746974468,134.68393912960923L256.363249695301,138.07748149871142L258.1686246931553,139.77256043384656L259.9739996910095,139.05673591990524L261.77937468886375,138.19165328173966L263.584749686718,139.41066887980523L265.3901246845722,140.74392954300856L267.1954996824265,141.6271340048159L269.0008746802807,139.83986757747948L270.8062496781349,133.75080812377848L272.61162467598916,138.5799661186817L274.41699967384335,140.02786909023902L276.22237467169765,138.37230535724666L278.02774966955184,139.40877389695194L279.8331246674061,140.2343965107722L281.6384996652603,144.79251610831673L283.4438746631145,144.25253569013123L285.2492496609688,143.52136994781057L287.054624658823,136.99980604592764L288.85999965667725,137.70223288600116L290.6653746545315,130.76266514355" fill="none"></path></g></g></g></g><g opacity="0.2"><g><g><g><path style="fill: none;" stroke="rgb(51, 187, 238)" stroke-width="2px" d="M37.91287495493889,27.466866586251342L39.71824995279312,42.01755457923926L41.52362495064735,43.48887003732463L43.32899994850158,44.7963611805005L45.13437494635582,49.00892754001063L46.93974994421006,56.18914578549864L48.74512494206429,64.29550359073619L50.55049993991852,63.54601401743483L52.35587493777275,49.45724416084704L54.161249935626984,69.96013477846074L55.96662493348122,62.24058370995044L57.77199993133545,58.76366295692007L59.57737492918968,73.11413470119962L61.38274992704391,73.71041932468403L63.18812492489815,58.387499830411144L64.99349992275238,69.12423557687205L66.79887492060662,70.2784975251052L68.60424991846084,74.8252586983955L70.40962491631508,84.47462479865602L72.21499991416931,71.37428022995196L74.02037491202354,76.93654849662458L75.82574990987779,86.50617237818786L77.631124907732,74.94762384821765L79.43649990558625,81.72956741248345L81.24187490344048,80.50247310640096L83.0472499012947,94.010014562615L84.85262489914895,92.21534186197408L86.65799989700317,88.01581938013467L88.46337489485741,80.00876961010052L90.26874989271164,83.68862206592686L92.07412489056587,100.56771495852237L93.87949988842011,76.42567945127043L95.68487488627433,107.39434228960454L97.49024988412857,91.66951134524217L99.2956248819828,80.9741135382397L101.10099987983703,84.51761140666765L102.90637487769128,94.14297483240392L104.7117498755455,91.41930164717112L106.51712487339974,98.70939880270349L108.32249987125397,106.73281403264056L110.1278748691082,95.54233075716807L111.93324986696244,98.89535891745203L113.73862486481666,107.70440108066863L115.5439998626709,104.93227401156037L117.34937486052513,100.41732244329614L119.15474985837936,105.28411927690988L120.9601248562336,108.43387630263689L122.76549985408782,107.29505849952693L124.57087485194207,85.94918910359618L126.3762498497963,109.46566399798186L128.1816248476505,111.1683385688427L129.98699984550476,114.44484911215841L131.792374843359,110.77759199917585L133.59774984121324,99.909677999671L135.40312483906746,112.05975910847233L137.20849983692167,114.57346950443232L139.01387483477592,97.36495808783573L140.81924983263016,98.85460286101235L142.6246248304844,110.5984083970834L144.42999982833862,122.43676992370456L146.23537482619284,109.04496257541126L148.04074982404708,127.07202580609945L149.84612482190133,121.16611924915456L151.65149981975557,104.08729501036629L153.4568748176098,101.69518604276631L155.262249815464,115.67791984174619L157.06762481331825,105.39587718420236L158.8729998111725,112.02042139189092L160.67837480902674,110.88334923783727L162.48374980688095,120.77178440087197L164.28912480473517,121.02269720759068L166.0944998025894,111.74150546489389L167.89987480044365,116.44599330395951L169.7052497982979,114.71707338443957L171.51062479615211,130.32836440476447L173.31599979400633,133.92555310423683L175.12137479186057,111.27838719476755L176.92674978971482,131.9785846459958L178.73212478756906,126.07943035658121L180.53749978542328,126.28213173068227L182.3428747832775,116.27591374659823L184.14824978113174,133.0568138797763L185.95362477898598,118.70396611317015L187.75899977684023,129.69559086697802L189.56437477469444,132.54635700156047L191.36974977254866,129.66527233718756L193.1751247704029,131.11445199543388L194.98049976825715,137.5127285667612L196.7858747661114,130.11870467956396L198.5912497639656,130.36001641647297L200.39662476181982,123.0997043979639L202.20199975967407,133.48981970368135L204.0073747575283,118.50088893961947L205.81274975538255,131.43796683130702L207.61812475323677,125.64161187520845L209.423499751091,137.46086824271333L211.22887474894523,119.96867673190354L213.03424974679947,120.5567907479994L214.83962474465372,130.46121557148737L216.64499974250793,135.50141354469451L218.45037474036215,124.9367575784719L220.2557497382164,129.90451111584218L222.06112473607064,129.4106015359726L223.86649973392488,124.39603066071712L225.6718747317791,131.14957106012923L227.47724972963331,144.02943045497108L229.28262472748756,131.64558996594184L231.0879997253418,125.46572561022236L232.89337472319605,118.03612200093994L234.69874972105026,125.0681055473963L236.50412471890448,135.73483349316146L238.30949971675872,134.32331863781758L240.11487471461297,134.97810674981417L241.9202497124672,138.40651300615457L243.72562471032143,135.76167284740222L245.53099970817564,128.85724290768536L247.3363747060299,146.6256348914046L249.14174970388413,142.93100503141406L250.94712470173837,132.35620248005165L252.7524996995926,138.3077626088442L254.5578746974468,130.3948687847847L256.363249695301,143.1677950523647L258.1686246931553,142.3151788365493L259.9739996910095,137.98299914899326L261.77937468886375,136.89402932449127L263.584749686718,141.2391922769036L265.3901246845722,142.74382053781352L267.1954996824265,142.95194069752688L269.0008746802807,137.1589679364749L270.8062496781349,124.61721894322702L272.61162467598916,145.8237031110366L274.41699967384335,142.19972354757505L276.22237467169765,135.88895975775813L278.02774966955184,140.96347670650982L279.8331246674061,141.4728304315026L281.6384996652603,151.62969550463353L283.4438746631145,143.442565062853L285.2492496609688,142.42462133432957L287.054624658823,127.21746019310325L288.85999965667725,138.7558731461114L290.6653746545315,120.3533135298733" fill="none"></path></g></g></g></g></g></g><g transform="translate(41, 177)" clip-path="url(#clip_1)"><clipPath id="clip_1"><rect width="288" height="22"></rect></clipPath><g><g><line x1="0" y1="0" x2="0" y2="5" style="visibility: inherit;" fill="rgb(0, 0, 0)" stroke="rgb(204, 204, 204)" stroke-width="1px"></line><line x1="36.107499957084656" y1="0" x2="36.107499957084656" y2="5" style="visibility: inherit;" fill="rgb(0, 0, 0)" stroke="rgb(204, 204, 204)" stroke-width="1px"></line><line x1="72.21499991416931" y1="0" x2="72.21499991416931" y2="5" style="visibility: inherit;" fill="rgb(0, 0, 0)" stroke="rgb(204, 204, 204)" stroke-width="1px"></line><line x1="108.32249987125397" y1="0" x2="108.32249987125397" y2="5" style="visibility: inherit;" fill="rgb(0, 0, 0)" stroke="rgb(204, 204, 204)" stroke-width="1px"></line><line x1="144.42999982833862" y1="0" x2="144.42999982833862" y2="5" style="visibility: inherit;" fill="rgb(0, 0, 0)" stroke="rgb(204, 204, 204)" stroke-width="1px"></line><line x1="180.53749978542328" y1="0" x2="180.53749978542328" y2="5" style="visibility: inherit;" fill="rgb(0, 0, 0)" stroke="rgb(204, 204, 204)" stroke-width="1px"></line><line x1="216.64499974250793" y1="0" x2="216.64499974250793" y2="5" style="visibility: inherit;" fill="rgb(0, 0, 0)" stroke="rgb(204, 204, 204)" stroke-width="1px"></line><line x1="252.7524996995926" y1="0" x2="252.7524996995926" y2="5" style="visibility: inherit;" fill="rgb(0, 0, 0)" stroke="rgb(204, 204, 204)" stroke-width="1px"></line><line x1="288.85999965667725" y1="0" x2="288.85999965667725" y2="5" style="visibility: inherit;" fill="rgb(0, 0, 0)" stroke="rgb(204, 204, 204)" stroke-width="1px"></line></g><g transform="translate(0, 8)"><text style="text-anchor: middle; visibility: hidden; font-family: &quot;Helvetica Neue&quot;, sans-serif; font-size: 12px; font-weight: 200;" x="0" y="0" dx="0em" dy="0.95em" fill="rgb(50, 49, 63)" stroke="none" stroke-width="1px">-20</text><text style="text-anchor: middle; visibility: inherit; font-family: &quot;Helvetica Neue&quot;, sans-serif; font-size: 12px; font-weight: 200;" x="36.107499957084656" y="0" dx="0em" dy="0.95em" fill="rgb(50, 49, 63)" stroke="none" stroke-width="1px">0</text><text style="text-anchor: middle; visibility: inherit; font-family: &quot;Helvetica Neue&quot;, sans-serif; font-size: 12px; font-weight: 200;" x="72.21499991416931" y="0" dx="0em" dy="0.95em" fill="rgb(50, 49, 63)" stroke="none" stroke-width="1px">20</text><text style="text-anchor: middle; visibility: inherit; font-family: &quot;Helvetica Neue&quot;, sans-serif; font-size: 12px; font-weight: 200;" x="108.32249987125397" y="0" dx="0em" dy="0.95em" fill="rgb(50, 49, 63)" stroke="none" stroke-width="1px">40</text><text style="text-anchor: middle; visibility: inherit; font-family: &quot;Helvetica Neue&quot;, sans-serif; font-size: 12px; font-weight: 200;" x="144.42999982833862" y="0" dx="0em" dy="0.95em" fill="rgb(50, 49, 63)" stroke="none" stroke-width="1px">60</text><text style="text-anchor: middle; visibility: inherit; font-family: &quot;Helvetica Neue&quot;, sans-serif; font-size: 12px; font-weight: 200;" x="180.53749978542328" y="0" dx="0em" dy="0.95em" fill="rgb(50, 49, 63)" stroke="none" stroke-width="1px">80</text><text style="text-anchor: middle; visibility: inherit; font-family: &quot;Helvetica Neue&quot;, sans-serif; font-size: 12px; font-weight: 200;" x="216.64499974250793" y="0" dx="0em" dy="0.95em" fill="rgb(50, 49, 63)" stroke="none" stroke-width="1px">100</text><text style="text-anchor: middle; visibility: inherit; font-family: &quot;Helvetica Neue&quot;, sans-serif; font-size: 12px; font-weight: 200;" x="252.7524996995926" y="0" dx="0em" dy="0.95em" fill="rgb(50, 49, 63)" stroke="none" stroke-width="1px">120</text><text style="text-anchor: middle; visibility: hidden; font-family: &quot;Helvetica Neue&quot;, sans-serif; font-size: 12px; font-weight: 200;" x="288.85999965667725" y="0" dx="0em" dy="0.95em" fill="rgb(50, 49, 63)" stroke="none" stroke-width="1px">140</text></g><line x1="0" y1="0" x2="288.85999965667725" y2="0" fill="rgb(0, 0, 0)" stroke="rgb(204, 204, 204)" stroke-width="1px"></line></g></g></g></g></svg>